<svg xmlns="http://www.w3.org/2000/svg" viewBox="0 0 1366 500">
  <title>inforgrafik</title>
  <g id="steg">
    <path d="M276,169a24.75,24.75,0,0,0-6-4c-4-2-13-1-13-1s-20,2-31-5-13-6-13-6c-30-5-58,1-58,1a15.22,15.22,0,0,0-9-1c-5,1-9,1-11,0s-10,1-13,0a5,5,0,0,0-5,1l-6,1s-13,4-8,34-2,49-2,49-1,17,2,27-3,16,5,18,44,9,51,7" fill="none" stroke="#fff" stroke-linecap="round" stroke-miterlimit="10" stroke-width="4"/>
    <path d="M276,169s31,15,15,50c0,0-8,14-19,22" fill="none" stroke="#fff" stroke-linecap="round" stroke-miterlimit="10" stroke-width="4"/>
    <path d="M281,252s21,28-6,47c0,0-11,7-33,3" fill="none" stroke="#fff" stroke-linecap="round" stroke-miterlimit="10" stroke-width="4"/>
    <path d="M119,147s1-12,21-19,69-28,79-34,30-19,43-22" fill="none" stroke="#fff" stroke-linecap="round" stroke-miterlimit="10" stroke-width="4"/>
    <path d="M272,70s72-48,131,4" fill="none" stroke="#fff" stroke-linecap="round" stroke-miterlimit="10" stroke-width="4"/>
    <path d="M411,83s0,8,9,11,34,38,27,65" fill="none" stroke="#fff" stroke-linecap="round" stroke-miterlimit="10" stroke-width="4"/>
    <path d="M289,293s30-10,79-50" fill="none" stroke="#fff" stroke-linecap="round" stroke-miterlimit="10" stroke-width="4"/>
    <path d="M440,173s3,13-17,24-41,29-41,29" fill="none" stroke="#fff" stroke-linecap="round" stroke-miterlimit="10" stroke-width="4"/>
    <path d="M281,166s27,9,20,37-2,24-28,44" fill="none" stroke="#fff" stroke-linecap="round" stroke-miterlimit="10" stroke-width="2"/>
    <path d="M257,177s-11,13,5,13" fill="none" stroke="#fff" stroke-linecap="round" stroke-miterlimit="10" stroke-width="2"/>
    <path d="M247,173s0,11-10,9" fill="none" stroke="#fff" stroke-linecap="round" stroke-miterlimit="10" stroke-width="2"/>
    <path d="M107,174s0-18,15-16" fill="none" stroke="#fff" stroke-linecap="round" stroke-miterlimit="10" stroke-width="2"/>
    <path d="M146,260s-18,17,4,29" fill="none" stroke="#fff" stroke-linecap="round" stroke-miterlimit="10" stroke-width="2"/>
    <path d="M111,253s7,13,23,6" fill="none" stroke="#fff" stroke-linecap="round" stroke-miterlimit="10" stroke-width="2"/>
    <path d="M261,265s-18,3-12,23" fill="none" stroke="#fff" stroke-linecap="round" stroke-miterlimit="10" stroke-width="2"/>
    <path d="M127,146s21,1,26,0" fill="none" stroke="#fff" stroke-linecap="round" stroke-miterlimit="10" stroke-width="2"/>
    <path d="M128,140s20,3,25,3" fill="none" stroke="#fff" stroke-linecap="round" stroke-miterlimit="10" stroke-width="2"/>
    <line x1="134" y1="135" x2="159" y2="137" fill="none" stroke="#fff" stroke-linecap="round" stroke-miterlimit="10" stroke-width="2"/>
    <path d="M144,130s7,2,10,0" fill="none" stroke="#fff" stroke-linecap="round" stroke-miterlimit="10" stroke-width="2"/>
    <path d="M73.5,332.5c4,5,16,4,35-5s27,0,27,0c28,15,18,10,44,10s33-4,48-20-6-32-45-25-69-1-69-1-13-8-29,8c0,0-6,10-15,12s-7,17-1,20" fill="none" stroke="#fff" stroke-linecap="round" stroke-miterlimit="10" stroke-width="3"/>
    <path d="M242.5,313.5s-7,43-62,40-57-14-57-14-5-5-16,5-39,11-38-7c0,0-9.61-.83-5.3-8.91" fill="none" stroke="#fff" stroke-linecap="round" stroke-miterlimit="10" stroke-width="3"/>
    <path d="M128.5,327.5s0,11,5,15" fill="none" stroke="#fff" stroke-linecap="round" stroke-miterlimit="10"/>
    <path d="M132.5,330.5s2,12,5,14" fill="none" stroke="#fff" stroke-linecap="round" stroke-miterlimit="10"/>
    <path d="M137.5,332.5s2,11,5,14" fill="none" stroke="#fff" stroke-linecap="round" stroke-miterlimit="10"/>
    <path d="M141.5,336.5s3,10,5,11" fill="none" stroke="#fff" stroke-linecap="round" stroke-miterlimit="10"/>
    <path d="M146.5,341.5s2,5,3,6" fill="none" stroke="#fff" stroke-linecap="round" stroke-miterlimit="10"/>
    <path d="M214.5,346.5s1-8-3-10" fill="none" stroke="#fff" stroke-linecap="round" stroke-miterlimit="10"/>
    <path d="M219.5,344.5s1-12-1-12" fill="none" stroke="#fff" stroke-linecap="round" stroke-miterlimit="10"/>
    <path d="M224.5,341.5s0-10-3-13" fill="none" stroke="#fff" stroke-linecap="round" stroke-miterlimit="10"/>
    <path d="M228.5,337.5s-1-9-3-11" fill="none" stroke="#fff" stroke-linecap="round" stroke-miterlimit="10"/>
    <path d="M231.5,332.5s0-10-2-12" fill="none" stroke="#fff" stroke-linecap="round" stroke-miterlimit="10"/>
    <path d="M234.5,328.5s0-12-2-12" fill="none" stroke="#fff" stroke-linecap="round" stroke-miterlimit="10"/>
    <path d="M237.5,324.5c-1-9-3-10-3-10" fill="none" stroke="#fff" stroke-linecap="round" stroke-miterlimit="10"/>
    <path d="M239.5,320.5s-1-8-3-9" fill="none" stroke="#fff" stroke-linecap="round" stroke-miterlimit="10"/>
    <path d="M142.5,314.5a12.16,12.16,0,0,1,5-15" fill="none" stroke="#fff" stroke-linecap="round" stroke-miterlimit="10"/>
    <path d="M294.5,163.5a42.8,42.8,0,0,0,27-20s5-10,12-8,18-3,18-3,13-4,21-11,12-8,12-8" fill="none" stroke="#fff" stroke-linecap="round" stroke-miterlimit="10"/>
    <path d="M389.5,82.5s11,7,11,19" fill="none" stroke="#fff" stroke-linecap="round" stroke-miterlimit="10" stroke-width="2"/>
    <path d="M395.5,76.5s9,11,9,19" fill="none" stroke="#fff" stroke-linecap="round" stroke-miterlimit="10" stroke-width="2"/>
    <path d="M404.5,77.5s5,12,5,15" fill="none" stroke="#fff" stroke-linecap="round" stroke-miterlimit="10" stroke-width="2"/>
    <path d="M403.5,106.5a20.71,20.71,0,0,1,9,19" fill="none" stroke="#fff" stroke-linecap="round" stroke-miterlimit="10" stroke-width="2"/>
    <path d="M410.5,103.5s13,8,10,22" fill="none" stroke="#fff" stroke-linecap="round" stroke-miterlimit="10" stroke-width="2"/>
    <path d="M416.5,98.5s19,12,17,33" fill="none" stroke="#fff" stroke-linecap="round" stroke-miterlimit="10" stroke-width="2"/>
    <path d="M299,70s-5-5-10-5" fill="none" stroke="#fff" stroke-linecap="round" stroke-miterlimit="10" stroke-width="2"/>
    <path d="M300,66s-4-4-7-4" fill="none" stroke="#fff" stroke-linecap="round" stroke-miterlimit="10" stroke-width="2"/>
    <path d="M310,69s-10-10-13-10" fill="none" stroke="#fff" stroke-linecap="round" stroke-miterlimit="10" stroke-width="2"/>
    <path d="M316,69s-9-11-15-12" fill="none" stroke="#fff" stroke-linecap="round" stroke-miterlimit="10" stroke-width="2"/>
    <path d="M325,70s-15-15-19-15" fill="none" stroke="#fff" stroke-linecap="round" stroke-miterlimit="10" stroke-width="2"/>
    <path d="M337,73s-19-19-25-19" fill="none" stroke="#fff" stroke-linecap="round" stroke-miterlimit="10" stroke-width="2"/>
    <path d="M348,75s-18-20-26-20" fill="none" stroke="#fff" stroke-linecap="round" stroke-miterlimit="10" stroke-width="2"/>
    <path d="M364,75s-19-22-33-23" fill="none" stroke="#fff" stroke-linecap="round" stroke-miterlimit="10" stroke-width="2"/>
    <path d="M375,71s-22-20-29-20" fill="none" stroke="#fff" stroke-linecap="round" stroke-miterlimit="10" stroke-width="2"/>
    <path d="M385,71s-21-18-27-19" fill="none" stroke="#fff" stroke-linecap="round" stroke-miterlimit="10" stroke-width="2"/>
    <path d="M216,297s21,7,2,22" fill="none" stroke="#fff" stroke-linecap="round" stroke-miterlimit="10" stroke-width="2"/>
    <path d="M174,238s7-13,13-22,2-18-2-18" fill="none" stroke="#fff" stroke-linecap="round" stroke-miterlimit="10"/>
  </g>
  <g id="cp">
    <path d="M289.7,107.58l35.37-30.84a22.37,22.37,0,0,0,1.87-1.9c.94-1,3.56-2.34,9.56,3.66,0,0,5,5,1,9s0,6,0,6l19,21-7,7s-17-22-33-14l-14.77,12.16a8,8,0,0,1-6.11,1.8c-3.37-.45-7.78-2.2-8.27-8.23A6.83,6.83,0,0,1,289.7,107.58Z" fill="none" stroke="#fff" stroke-linecap="round" stroke-linejoin="round" stroke-width="4"/>
    <line x1="322" y1="101" x2="331" y2="92" fill="none" stroke="#fff" stroke-linecap="round" stroke-linejoin="round" stroke-width="3"/>
    <line x1="287.11" y1="115.06" x2="263.5" y2="139.5" fill="none" stroke="#fff" stroke-linecap="round" stroke-linejoin="round" stroke-width="3"/>
    <line x1="292.73" y1="121.52" x2="271.5" y2="143.5" fill="none" stroke="#fff" stroke-linecap="round" stroke-linejoin="round" stroke-width="3"/>
    <path d="M261.5,135.5s-3,11,16,9" fill="none" stroke="#fff" stroke-linecap="round" stroke-linejoin="round" stroke-width="3"/>
    <polygon points="338.94 110.48 346.22 103.2 352.05 109.23 344.98 116.31 338.94 110.48" fill="#fff" stroke="#fff" stroke-linecap="round" stroke-linejoin="round" stroke-width="3"/>
    <path d="M353.19,117.92S391.5,151.5,385.5,187.5s-33,96,0,131l24,25" fill="none" stroke="#fff" stroke-linecap="round" stroke-linejoin="round" stroke-width="3"/>
    <path d="M415,400s-52.65-21.24-10-51c43-30,65-32,125-26,0,0,44,9,38,37s-71,39-71,39S446,411,415,400Z" fill="none" stroke="#fff" stroke-linecap="round" stroke-miterlimit="10" stroke-width="4"/>
    <path d="M568,360c0,15-14,53-14,53s-3,17-61,27-78-15-78-15-3-2-10-15-16-33-16-33" fill="none" stroke="#fff" stroke-linecap="round" stroke-miterlimit="10" stroke-width="4"/>
    <path d="M398.13,397.12S422,420,483,410s79.76-27.89,83.5-39.5" fill="none" stroke="#fff" stroke-linecap="round" stroke-miterlimit="10" stroke-width="3"/>
    <ellipse cx="411" cy="375.5" rx="11.5" ry="5" transform="translate(-94.59 142.48) rotate(-17.67)" fill="none" stroke="#fff" stroke-linecap="round" stroke-miterlimit="10" stroke-width="2"/>
    <ellipse cx="545" cy="350.5" rx="11.5" ry="5" transform="translate(-80.68 181.98) rotate(-17.67)" fill="none" stroke="#fff" stroke-linecap="round" stroke-miterlimit="10" stroke-width="2"/>
    <ellipse cx="480.11" cy="365.62" rx="4.22" ry="3.43" transform="translate(-70.19 117.94) rotate(-13.06)" fill="none" stroke="#fff" stroke-linecap="round" stroke-miterlimit="10" stroke-width="1.7"/>
    <polyline points="462.06 371.06 469.93 365.07 464.39 361.29 466.61 374.71 470.39 369.17 460.88 364.85" fill="none" stroke="#fff" stroke-linecap="round" stroke-linejoin="round"/>
    <g>
      <path d="M465.63,332s-7.6-3.88-14.39,1.63-.64,9.16.08,9.41,4.83,2.72,11.87-.54c0,0,3.72-1.46,7.57-8l.1-.15,2.25-3.15s.29-.86,3.88-1.64,6.63-1.4,7.88-1.07a3.42,3.42,0,0,1,2.42,4.7c-1,2.55-3.28,3-11.16,4.42l.93,4.61" fill="none" stroke="#fff" stroke-linecap="round" stroke-miterlimit="10" stroke-width="2.43"/>
      <ellipse cx="445.56" cy="332.28" rx="1.77" ry="1.52" transform="translate(-56.69 94.21) rotate(-11.35)" fill="none" stroke="#fff" stroke-linecap="round" stroke-miterlimit="10" stroke-width="1.13"/>
    </g>
    <g>
      <path d="M454.41,353.89a1.61,1.61,0,0,1,0,.61,2.2,2.2,0,0,1-.31.69,2.11,2.11,0,0,1-.64.62,2.57,2.57,0,0,1-1,.37,2.94,2.94,0,0,1-.82.06,2.11,2.11,0,0,1-1.34-.52,2.42,2.42,0,0,1-.49-.52,2.64,2.64,0,0,1-.36-.66,3.72,3.72,0,0,1-.22-.78,3.52,3.52,0,0,1,0-1.25,2.67,2.67,0,0,1,.4-1,2.52,2.52,0,0,1,.76-.73,2.94,2.94,0,0,1,2.29-.34,2.32,2.32,0,0,1,.94.53,1.34,1.34,0,0,1,.42.71.49.49,0,0,1-.08.37.41.41,0,0,1-.3.21.48.48,0,0,1-.35,0,1.35,1.35,0,0,1-.31-.32,1.73,1.73,0,0,0-.64-.53,1.33,1.33,0,0,0-.78-.08,1.36,1.36,0,0,0-1,.74,2.4,2.4,0,0,0-.15,1.59,3,3,0,0,0,.38,1.06,1.41,1.41,0,0,0,.64.56,1.44,1.44,0,0,0,.83.08,1.37,1.37,0,0,0,1.17-1.21,1.64,1.64,0,0,1,.12-.39.41.41,0,0,1,.32-.2.47.47,0,0,1,.38.08A.48.48,0,0,1,454.41,353.89Z" stroke="#fff"/>
      <path d="M459.24,352.77a2.43,2.43,0,0,1,0,.89,1.91,1.91,0,0,1-.3.75,1.94,1.94,0,0,1-.58.56,2.39,2.39,0,0,1-.84.3,2.22,2.22,0,0,1-.89,0,1.78,1.78,0,0,1-.73-.32,2.11,2.11,0,0,1-.55-.6,2.61,2.61,0,0,1-.3-.84,2.73,2.73,0,0,1,0-.9,2.07,2.07,0,0,1,.3-.75,2,2,0,0,1,.59-.55,2.42,2.42,0,0,1,.83-.31,2.66,2.66,0,0,1,.89,0,2,2,0,0,1,.74.32,2,2,0,0,1,.55.61A2.38,2.38,0,0,1,459.24,352.77Zm-1.05.18a1.67,1.67,0,0,0-.46-.95.93.93,0,0,0-.82-.22,1,1,0,0,0-.52.26,1,1,0,0,0-.27.53,1.89,1.89,0,0,0,0,.75,1.93,1.93,0,0,0,.25.7,1.07,1.07,0,0,0,.44.41,1,1,0,0,0,.58.06.93.93,0,0,0,.7-.49A1.62,1.62,0,0,0,458.19,353Z" stroke="#fff"/>
      <path d="M464,351.92a2.43,2.43,0,0,1,0,.89,1.91,1.91,0,0,1-.3.75,1.86,1.86,0,0,1-.59.56,2.27,2.27,0,0,1-.83.3,2.22,2.22,0,0,1-.89,0,1.82,1.82,0,0,1-.74-.32,1.94,1.94,0,0,1-.54-.6,2.61,2.61,0,0,1-.3-.84,2.48,2.48,0,0,1,0-.9,1.88,1.88,0,0,1,.88-1.3,2.58,2.58,0,0,1,1.73-.3,1.81,1.81,0,0,1,1.28.92A2.21,2.21,0,0,1,464,351.92Zm-1.05.18a1.61,1.61,0,0,0-.46-.94,1,1,0,0,0-1.34,0,1,1,0,0,0-.28.53,2.11,2.11,0,0,0,0,.75,1.76,1.76,0,0,0,.25.7,1.07,1.07,0,0,0,.44.41,1,1,0,0,0,.58.06.91.91,0,0,0,.69-.49A1.61,1.61,0,0,0,463,352.1Z" stroke="#fff"/>
      <path d="M467.74,353l-1.2-1.36-.47.64.15.83a.67.67,0,0,1-.08.5.53.53,0,0,1-.34.23.49.49,0,0,1-.41-.1.74.74,0,0,1-.22-.45l-.8-4.47a.91.91,0,0,1,0-.56.45.45,0,0,1,.35-.25.48.48,0,0,1,.41.09.7.7,0,0,1,.23.47l.46,2.54,1-1.45a2.61,2.61,0,0,1,.28-.37.44.44,0,0,1,.26-.14.47.47,0,0,1,.35.07.42.42,0,0,1,.19.29c0,.15-.08.39-.32.69l-.47.61,1.38,1.5a3.31,3.31,0,0,1,.23.26.48.48,0,0,1,.08.18.56.56,0,0,1-.06.41.46.46,0,0,1-.34.21.36.36,0,0,1-.31-.05A1.79,1.79,0,0,1,467.74,353Z" stroke="#fff"/>
      <path d="M471.58,350.4l-1.05.19.28,1.59a.75.75,0,0,1-.06.55.55.55,0,0,1-.38.25.55.55,0,0,1-.45-.1.79.79,0,0,1-.25-.48l-.77-4.35a.69.69,0,0,1,.08-.57.8.8,0,0,1,.52-.26L471,347a4,4,0,0,1,1-.08,1.43,1.43,0,0,1,.65.21,1.38,1.38,0,0,1,.48.48,2,2,0,0,1,.27.71,1.65,1.65,0,0,1-.3,1.4A2.41,2.41,0,0,1,471.58,350.4Zm-.74-2.53-.77.13.31,1.73.77-.14a2.25,2.25,0,0,0,.65-.21.71.71,0,0,0,.37-.35,1,1,0,0,0-.28-1.09A1.45,1.45,0,0,0,470.84,347.87Z" stroke="#fff"/>
      <path d="M477.27,349.81l-2,.37a1.35,1.35,0,0,0,.26.61,1,1,0,0,0,.44.34,1.09,1.09,0,0,0,.54.05,1.69,1.69,0,0,0,.34-.11,1.2,1.2,0,0,0,.27-.19,1.88,1.88,0,0,0,.24-.25l.26-.35a.36.36,0,0,1,.22-.11.38.38,0,0,1,.28,0,.31.31,0,0,1,.14.23.69.69,0,0,1,0,.36,1.24,1.24,0,0,1-.27.42,1.91,1.91,0,0,1-.51.39,2.68,2.68,0,0,1-.77.26,2.11,2.11,0,0,1-1.67-.3,2.22,2.22,0,0,1-.84-1.46,2.68,2.68,0,0,1,0-.89,2.1,2.1,0,0,1,.28-.76,1.91,1.91,0,0,1,.58-.55,2.22,2.22,0,0,1,.83-.3,2,2,0,0,1,1.11.07,1.76,1.76,0,0,1,.78.55,1.81,1.81,0,0,1,.36.8c.05.26,0,.45-.13.55A1.39,1.39,0,0,1,477.27,349.81Zm-2.16-.23,1.91-.34a1.31,1.31,0,0,0-.44-.75.87.87,0,0,0-.71-.15.89.89,0,0,0-.6.39A1.37,1.37,0,0,0,475.11,349.58Z" stroke="#fff"/>
      <path d="M480.13,349.68l.16.87a.74.74,0,0,1-.07.51.54.54,0,0,1-.35.23.51.51,0,0,1-.4-.1.65.65,0,0,1-.23-.45l-.53-2.92c-.08-.47.05-.74.39-.8a.41.41,0,0,1,.4.1.9.9,0,0,1,.22.46,2,2,0,0,1,.3-.55.78.78,0,0,1,.5-.26,1.29,1.29,0,0,1,.67.05.49.49,0,0,1,.39.38.41.41,0,0,1-.08.34.42.42,0,0,1-.26.18l-.29,0a1.15,1.15,0,0,0-.41,0,.57.57,0,0,0-.35.19.77.77,0,0,0-.16.4,2.28,2.28,0,0,0,0,.59C480,349.09,480.07,349.36,480.13,349.68Z" stroke="#fff"/>
      <path d="M482,346.6l.25,0-.06-.32a2,2,0,0,1,0-.8.76.76,0,0,1,.34-.5,2,2,0,0,1,.8-.28c.61-.11.94,0,1,.29a.35.35,0,0,1-.06.26.33.33,0,0,1-.2.15h-.22l-.26,0q-.29.06-.33.24a1,1,0,0,0,0,.49l0,.25.25-.05c.4-.07.63,0,.67.26s0,.29-.1.35a1,1,0,0,1-.43.15l-.26.05.5,2.78a.72.72,0,0,1-.07.5.52.52,0,0,1-.75.13.65.65,0,0,1-.23-.45l-.5-2.78-.29.06a.58.58,0,0,1-.38-.05.35.35,0,0,1-.17-.25C481.47,346.82,481.62,346.66,482,346.6Z" stroke="#fff"/>
      <path d="M487.92,347.91l-2.05.37a1.36,1.36,0,0,0,.25.6,1,1,0,0,0,.45.35,1.09,1.09,0,0,0,.54,0,1.42,1.42,0,0,0,.33-.11,1.26,1.26,0,0,0,.28-.19,1.34,1.34,0,0,0,.23-.25l.27-.35a.36.36,0,0,1,.22-.11.38.38,0,0,1,.28,0,.34.34,0,0,1,.14.23.71.71,0,0,1-.05.36,1.24,1.24,0,0,1-.27.42,2.14,2.14,0,0,1-.51.39,2.68,2.68,0,0,1-.77.26,2.11,2.11,0,0,1-1.67-.3,2.14,2.14,0,0,1-.84-1.46,2.68,2.68,0,0,1,0-.89,2.1,2.1,0,0,1,.28-.76,1.91,1.91,0,0,1,.58-.55,2.22,2.22,0,0,1,.83-.3,2,2,0,0,1,1.1.07,1.66,1.66,0,0,1,.78.55,1.72,1.72,0,0,1,.37.8.53.53,0,0,1-.13.55A1.44,1.44,0,0,1,487.92,347.91Zm-2.16-.23,1.9-.34a1.3,1.3,0,0,0-.43-.75.87.87,0,0,0-.71-.15.89.89,0,0,0-.6.39A1.37,1.37,0,0,0,485.76,347.68Z" stroke="#fff"/>
      <path d="M493.54,347.51a1,1,0,0,1,0,.44,1.54,1.54,0,0,1-.29.48,1.85,1.85,0,0,1-.54.44,3,3,0,0,1-.81.27,2.05,2.05,0,0,1-1.62-.3,2.12,2.12,0,0,1-.81-1.42,2.62,2.62,0,0,1,0-1.19,1.82,1.82,0,0,1,.59-.89,2.33,2.33,0,0,1,2.48-.29,1.56,1.56,0,0,1,.44.34.85.85,0,0,1,.19.38.42.42,0,0,1-.08.34.51.51,0,0,1-.32.19.3.3,0,0,1-.23,0,1,1,0,0,1-.23-.18,1.72,1.72,0,0,0-.48-.37,1,1,0,0,0-1.25.45,1.6,1.6,0,0,0-.1,1,1.8,1.8,0,0,0,.17.54,1.39,1.39,0,0,0,.28.38,1.06,1.06,0,0,0,.39.21,1.08,1.08,0,0,0,.44,0,1,1,0,0,0,.52-.24,1.4,1.4,0,0,0,.32-.52,1,1,0,0,1,.15-.31.43.43,0,0,1,.26-.15.41.41,0,0,1,.34.09A.45.45,0,0,1,493.54,347.51Z" stroke="#fff"/>
      <path d="M494,344.46l.11,0-.11-.64c0-.16-.05-.3-.06-.4a.74.74,0,0,1,0-.26.48.48,0,0,1,.15-.2.5.5,0,0,1,.63,0,.39.39,0,0,1,.18.22,1.92,1.92,0,0,1,.1.4l.13.72.39-.07a.52.52,0,0,1,.36,0,.36.36,0,0,1,.16.25.3.3,0,0,1-.11.33,1.1,1.1,0,0,1-.47.17l-.19,0,.34,1.93a2.5,2.5,0,0,0,.09.37.35.35,0,0,0,.13.2.3.3,0,0,0,.26,0l.24-.08a1.16,1.16,0,0,1,.24-.07.29.29,0,0,1,.25.06.34.34,0,0,1,.15.23.43.43,0,0,1-.21.44,2.11,2.11,0,0,1-.77.28,1.49,1.49,0,0,1-.78,0,.73.73,0,0,1-.41-.4,3,3,0,0,1-.22-.76l-.36-2-.14,0a.5.5,0,0,1-.37-.05.36.36,0,0,1-.16-.25.33.33,0,0,1,.07-.29A.51.51,0,0,1,494,344.46Z" stroke="#fff"/>
    </g>
  </g>
  <g id="telefon">
    <path d="M588,132,722,368s12,24,44,21,99-9,99-9,21-3,11-19S728,114,728,114s-8-17-51-13-82,8-82,8S574,108,588,132Z" fill="none" stroke="#fff" stroke-linecap="round" stroke-linejoin="round" stroke-width="4"/>
    <path d="M879.15,370.13c3.8,8.56-.71,14.48-5.78,18.15a28.26,28.26,0,0,1-14.21,5.14c-16.29,1.42-69.74,6.06-99.16,8.58-35,3-45-21-45-21L626,223l-47.7-83a25.86,25.86,0,0,1-3.52-14.2c.3-5.41,5-12.35,12.22-14.81" fill="none" stroke="#fff" stroke-linecap="round" stroke-linejoin="round" stroke-width="4"/>
    <line x1="644" y1="118" x2="667" y2="116" fill="none" stroke="#fff" stroke-linecap="round" stroke-linejoin="round" stroke-width="4"/>
    <ellipse cx="801.62" cy="367.34" rx="10.11" ry="12.87" transform="translate(-0.98 732.53) rotate(-49.09)" stroke-width="2.74" stroke="#fff" stroke-linecap="round" stroke-linejoin="round" fill="none"/>
    <path d="M624.5,217.5s6,1-3-14l-18-30s-2-5-6-2" fill="none" stroke="#fff" stroke-linecap="round" stroke-linejoin="round" stroke-width="2.74"/>
    <path d="M608.65,193.65s4.94-1.77,1.9-8.46" fill="none" stroke="#fff" stroke-linecap="round" stroke-linejoin="round" stroke-width="2.5"/>
    <path d="M611.5,195.5a9,9,0,0,1,8,5" fill="none" stroke="#fff" stroke-linecap="round" stroke-linejoin="round" stroke-width="2.5"/>
    <path d="M590.5,159.5c4-1,2-5,2-5l-4.4-7a2.42,2.42,0,0,0-2.42-1.17c-.93.16-1.88.85-2,3" fill="none" stroke="#fff" stroke-linecap="round" stroke-linejoin="round" stroke-width="2.5"/>
    <polygon points="599 139 731 129 860 344 722 357 599 139" fill="none" stroke="#fff" stroke-linecap="round" stroke-linejoin="round" stroke-width="2"/>
    <ellipse cx="723.64" cy="230.95" rx="43.52" ry="55.41" transform="translate(75.18 626.54) rotate(-49.09)" stroke-width="2" stroke="#fff" stroke-linecap="round" stroke-linejoin="round" fill="none"/>
    <path d="M701.5,239.5s25,10,35,19c0,0-11-39-1-58" fill="none" stroke="#fff" stroke-linecap="round" stroke-linejoin="round" stroke-width="3"/>
  </g>
  <g id="streger">
    <path d="M524.5,315.5s0-16,9-23" fill="none" stroke="#fff" stroke-linecap="round" stroke-linejoin="round" stroke-width="3"/>
    <path d="M542.5,283.5s8-15,23-16" fill="none" stroke="#fff" stroke-linecap="round" stroke-linejoin="round" stroke-width="3"/>
    <path d="M577.5,263.5s17,1,25-4" fill="none" stroke="#fff" stroke-linecap="round" stroke-linejoin="round" stroke-width="3"/>
    <path d="M611.5,251.5a34.38,34.38,0,0,0,10-18" fill="none" stroke="#fff" stroke-linecap="round" stroke-linejoin="round" stroke-width="3"/>
    <g>
      <path d="M953.12,167.61l-2.82.51,6.55,22.16.46,2h.15l.43-2,6.58-22.21-2.8-.51v-4.47h13.51v4.47l-3.1.4-10.89,32.1h-7.62L942.66,168l-3-.4v-4.47h13.51Z" fill="#fff"/>
      <path d="M977.39,195.66l3.58-.76v-17l-4-.77v-4.46h11.37V194.9l3.56.76v4.45H977.39Zm11-29.6H981V160.5h7.41Z" fill="#fff"/>
      <path d="M1012.25,196.76a9,9,0,0,1-3.06,2.89,8.09,8.09,0,0,1-4,1,9.3,9.3,0,0,1-7.89-3.71q-2.81-3.7-2.8-9.8v-.53q0-6.49,2.82-10.49a9.14,9.14,0,0,1,7.92-4,7.59,7.59,0,0,1,3.7.9,9,9,0,0,1,2.9,2.55v-9.85l-4-.76V160.5h11.37v34.4l3.56.76v4.45h-10Zm-10.36-9.63a11.23,11.23,0,0,0,1.21,5.68,4.21,4.21,0,0,0,3.95,2.07,5.7,5.7,0,0,0,2.81-.66,5.27,5.27,0,0,0,2-1.91V180.66a5.8,5.8,0,0,0-1.94-2,5.26,5.26,0,0,0-2.78-.72,4.16,4.16,0,0,0-4,2.41,13.76,13.76,0,0,0-1.25,6.3Z" fill="#fff"/>
      <path d="M1047.57,182.08h-5l-.78-3.43a6.67,6.67,0,0,0-1.92-1,7.66,7.66,0,0,0-2.55-.41,4.92,4.92,0,0,0-3.1.88,2.65,2.65,0,0,0-1.14,2.19,2.49,2.49,0,0,0,1.09,2.07,11.62,11.62,0,0,0,4.37,1.46c3.4.68,5.92,1.67,7.56,3a6.56,6.56,0,0,1,2.46,5.42,7.2,7.2,0,0,1-3.18,6,13.79,13.79,0,0,1-8.39,2.35,17.52,17.52,0,0,1-5.83-.93,14.72,14.72,0,0,1-4.71-2.65l-.08-6.17h5.18l1,3.58a4.3,4.3,0,0,0,1.8.83,10.94,10.94,0,0,0,2.39.26,6.07,6.07,0,0,0,3.44-.81,2.54,2.54,0,0,0,1.18-2.21,2.61,2.61,0,0,0-1.19-2.11,12.33,12.33,0,0,0-4.4-1.57,17.66,17.66,0,0,1-7.32-2.93,6.38,6.38,0,0,1-2.48-5.3,7.67,7.67,0,0,1,2.85-5.95q2.84-2.51,8.1-2.5a21,21,0,0,1,6,.86,12.74,12.74,0,0,1,4.48,2.21Z" fill="#fff"/>
      <path d="M1062.85,165.91v6.73h4.83v5.2h-4.83v14a3.25,3.25,0,0,0,.66,2.29,2.4,2.4,0,0,0,1.78.68,10.67,10.67,0,0,0,2.62-.28l.63,5.36a18.93,18.93,0,0,1-2.46.57,16.72,16.72,0,0,1-2.64.19,7.87,7.87,0,0,1-5.9-2.11c-1.38-1.4-2.07-3.63-2.07-6.67v-14h-4v-5.2h4v-6.73Z" fill="#fff"/>
      <path d="M1084.46,200.64a12.36,12.36,0,0,1-9.49-3.81,13.61,13.61,0,0,1-3.56-9.67v-1a15,15,0,0,1,3.37-10.08,11.15,11.15,0,0,1,9-3.93c3.71,0,6.59,1.11,8.63,3.35s3.08,5.25,3.08,9.06v4H1079.1l0,.15a7.18,7.18,0,0,0,1.82,4.47,5.64,5.64,0,0,0,4.38,1.75,14.34,14.34,0,0,0,4.09-.49,18.71,18.71,0,0,0,3.55-1.56l2,4.57a14.91,14.91,0,0,1-4.41,2.26A18.71,18.71,0,0,1,1084.46,200.64Zm-.66-22.8a3.89,3.89,0,0,0-3.25,1.57,8.29,8.29,0,0,0-1.47,4.14l.08.13h9.09V183a5.93,5.93,0,0,0-1.11-3.77A4,4,0,0,0,1083.8,177.84Z" fill="#fff"/>
      <path d="M1129.63,196.76a9,9,0,0,1-3.06,2.89,8.07,8.07,0,0,1-4,1,9.3,9.3,0,0,1-7.89-3.71q-2.81-3.7-2.8-9.8v-.53q0-6.49,2.82-10.49a9.16,9.16,0,0,1,7.92-4,7.63,7.63,0,0,1,3.71.9,9,9,0,0,1,2.89,2.55v-9.85l-4-.76V160.5h11.37v34.4l3.56.76v4.45h-10Zm-10.36-9.63a11.23,11.23,0,0,0,1.21,5.68,4.21,4.21,0,0,0,4,2.07,5.76,5.76,0,0,0,2.82-.66,5.32,5.32,0,0,0,2-1.91V180.66a5.8,5.8,0,0,0-1.94-2,5.26,5.26,0,0,0-2.78-.72,4.17,4.17,0,0,0-4,2.41,13.76,13.76,0,0,0-1.25,6.3Z" fill="#fff"/>
      <path d="M1161.75,196.63a9.14,9.14,0,0,1-3.26,3,9.29,9.29,0,0,1-4.43,1,8.63,8.63,0,0,1-6.81-2.78q-2.46-2.78-2.46-8.64V177.87l-3-.77v-4.46h10.43v16.63a7.16,7.16,0,0,0,1,4.3,3.53,3.53,0,0,0,3,1.31,7.38,7.38,0,0,0,3-.57,5.26,5.26,0,0,0,2.1-1.64v-14.8l-3.25-.77v-4.46h10.66V194.9l3.33.76v4.45h-9.83Z" fill="#fff"/>
      <path d="M1184,200.11h-7.38v-6.5H1184Z" fill="#fff"/>
      <path d="M1197.3,200.11h-7.39v-6.5h7.39Z" fill="#fff"/>
      <path d="M1210.55,200.11h-7.39v-6.5h7.39Z" fill="#fff"/>
      <path d="M948.66,243.11a6.46,6.46,0,0,1-.28-.73,5.23,5.23,0,0,1-.18-.76,5.43,5.43,0,0,1-1.67,1.28,5,5,0,0,1-2.25.48,4.72,4.72,0,0,1-3.33-1.14,4,4,0,0,1-1.23-3.1,3.54,3.54,0,0,1,1.61-3.1,8.38,8.38,0,0,1,4.72-1.09h2v-1.4a2.09,2.09,0,0,0-.59-1.6,2.48,2.48,0,0,0-1.75-.56,4.28,4.28,0,0,0-1.18.15,3.08,3.08,0,0,0-.83.36l-.25,1.53h-2.9v-3.16a10.51,10.51,0,0,1,2.42-1.2,8.67,8.67,0,0,1,3-.49,6.74,6.74,0,0,1,4.3,1.3,4.43,4.43,0,0,1,1.66,3.7v6.51a4.68,4.68,0,0,0,0,.55l1.17.16v2.31Zm-3.34-2.57a3.39,3.39,0,0,0,1.59-.38,3,3,0,0,0,1.1-.94V237h-2a2.64,2.64,0,0,0-1.86.58,1.79,1.79,0,0,0-.63,1.37,1.4,1.4,0,0,0,.47,1.14A1.9,1.9,0,0,0,945.32,240.54Z" fill="#fff"/>
      <path d="M959,225.35v3.49h2.51v2.71H959v7.26a1.69,1.69,0,0,0,.35,1.19,1.24,1.24,0,0,0,.92.35q.39,0,.69,0c.2,0,.42-.06.67-.11L962,243a10.27,10.27,0,0,1-1.28.3,9.75,9.75,0,0,1-1.37.09,4.11,4.11,0,0,1-3.07-1.09,4.82,4.82,0,0,1-1.07-3.47v-7.27h-2.1v-2.71h2.1v-3.49Z" fill="#fff"/>
      <path d="M979.32,241.37a4.59,4.59,0,0,1-1.58,1.5,4.26,4.26,0,0,1-2.09.51,4.85,4.85,0,0,1-4.1-1.92,8.22,8.22,0,0,1-1.46-5.09v-.28a9.19,9.19,0,0,1,1.47-5.44,4.74,4.74,0,0,1,4.11-2.07,4,4,0,0,1,1.93.47,4.68,4.68,0,0,1,1.5,1.32v-5.11l-2.06-.4v-2.32H983v17.87l1.84.39v2.31h-5.18Zm-5.38-5a5.85,5.85,0,0,0,.63,2.95,2.2,2.2,0,0,0,2,1.07,3,3,0,0,0,1.46-.34,2.69,2.69,0,0,0,1-1V233a2.87,2.87,0,0,0-1-1.06,2.71,2.71,0,0,0-1.44-.38,2.17,2.17,0,0,0-2.06,1.25,7.18,7.18,0,0,0-.65,3.27Z" fill="#fff"/>
      <path d="M996,241.3a4.77,4.77,0,0,1-1.69,1.54,4.82,4.82,0,0,1-2.3.54,4.5,4.5,0,0,1-3.54-1.44,6.65,6.65,0,0,1-1.28-4.49v-5.89l-1.56-.4v-2.32H991v8.64a3.75,3.75,0,0,0,.52,2.23,1.82,1.82,0,0,0,1.55.68,4,4,0,0,0,1.58-.29,2.88,2.88,0,0,0,1.09-.85v-7.69l-1.69-.4v-2.32h5.54v11.57l1.72.39v2.31h-5.1Z" fill="#fff"/>
      <path d="M1021.13,233.75h-2.59l-.4-1.78a3.49,3.49,0,0,0-1-.53,4,4,0,0,0-1.32-.21,2.59,2.59,0,0,0-1.61.45,1.4,1.4,0,0,0-.6,1.14,1.3,1.3,0,0,0,.57,1.08,6,6,0,0,0,2.27.76,9.25,9.25,0,0,1,3.93,1.55,3.41,3.41,0,0,1,1.28,2.81,3.78,3.78,0,0,1-1.66,3.15,7.17,7.17,0,0,1-4.36,1.21,9.15,9.15,0,0,1-3-.48,7.94,7.94,0,0,1-2.45-1.37l0-3.21h2.69l.53,1.86a2.22,2.22,0,0,0,.94.43,5.48,5.48,0,0,0,1.24.14,3.14,3.14,0,0,0,1.78-.42,1.34,1.34,0,0,0,.61-1.15,1.35,1.35,0,0,0-.61-1.1,6.45,6.45,0,0,0-2.29-.81,9.19,9.19,0,0,1-3.8-1.53,3.27,3.27,0,0,1-1.28-2.74,4,4,0,0,1,1.47-3.1,6.22,6.22,0,0,1,4.21-1.29,11.08,11.08,0,0,1,3.14.44,6.75,6.75,0,0,1,2.33,1.15Z" fill="#fff"/>
      <path d="M1023,224.86v-2.32h5.91v17.87l1.86.39v2.31h-7.57V240.8l1.86-.39V225.26Z" fill="#fff"/>
      <path d="M1038.82,243.38a6.42,6.42,0,0,1-4.93-2,7.1,7.1,0,0,1-1.85-5v-.52a7.84,7.84,0,0,1,1.75-5.24,6.52,6.52,0,0,1,9.17-.3,6.72,6.72,0,0,1,1.6,4.71v2.09H1036l0,.08a3.7,3.7,0,0,0,1,2.32,2.9,2.9,0,0,0,2.27.91,7.09,7.09,0,0,0,2.12-.26,9.49,9.49,0,0,0,1.85-.81l1,2.38a7.78,7.78,0,0,1-2.29,1.17A9.61,9.61,0,0,1,1038.82,243.38Zm-.34-11.83a2,2,0,0,0-1.69.81,4.23,4.23,0,0,0-.76,2.15l0,.07h4.72v-.34a3.11,3.11,0,0,0-.58-2A2.05,2.05,0,0,0,1038.48,231.55Z" fill="#fff"/>
      <path d="M1052.06,225.35v3.49h2.5v2.71h-2.5v7.26a1.69,1.69,0,0,0,.34,1.19,1.25,1.25,0,0,0,.92.35c.27,0,.5,0,.7,0s.41-.06.66-.11L1055,243a10.27,10.27,0,0,1-1.28.3,9.75,9.75,0,0,1-1.37.09,4.07,4.07,0,0,1-3.06-1.09,4.78,4.78,0,0,1-1.08-3.47v-7.27h-2.1v-2.71h2.1v-3.49Z" fill="#fff"/>
      <path d="M1063,240.8l1.86-.39v-8.85l-2.06-.4v-2.32h5.91v11.57l1.84.39v2.31H1063Zm5.71-15.37h-3.85v-2.89h3.85Z" fill="#fff"/>
      <path d="M1071.36,224.86v-2.32h5.89v11.92h.86l2.21-3.13-1.25-.17v-2.32h7v2.32l-1.68.39-2.57,3.53,3.59,5.42,1.47.3v2.31h-6.59V240.8l.79-.13-2.19-3.53h-1.65v3.27l1.66.39v2.31h-7.35V240.8l1.86-.39V225.26Z" fill="#fff"/>
      <path d="M1087.82,224.86v-2.32h5.9v11.92h.85l2.22-3.13-1.25-.17v-2.32h7v2.32l-1.69.39-2.57,3.53,3.6,5.42,1.46.3v2.31h-6.59V240.8l.79-.13-2.18-3.53h-1.65v3.27l1.66.39v2.31H1088V240.8l1.86-.39V225.26Z" fill="#fff"/>
      <path d="M1111.27,243.38a6.43,6.43,0,0,1-4.94-2,7.09,7.09,0,0,1-1.84-5v-.52a7.79,7.79,0,0,1,1.75-5.24,6.51,6.51,0,0,1,9.16-.3A6.67,6.67,0,0,1,1117,235v2.09h-8.52l0,.08a3.69,3.69,0,0,0,.94,2.32,2.93,2.93,0,0,0,2.27.91,7.16,7.16,0,0,0,2.13-.26,9.69,9.69,0,0,0,1.84-.81l1,2.38a7.84,7.84,0,0,1-2.28,1.17A9.66,9.66,0,0,1,1111.27,243.38Zm-.35-11.83a2,2,0,0,0-1.69.81,4.33,4.33,0,0,0-.76,2.15l0,.07h4.72v-.34a3.11,3.11,0,0,0-.57-2A2.07,2.07,0,0,0,1110.92,231.55Z" fill="#fff"/>
      <path d="M1139.23,236.37a8.32,8.32,0,0,1-1.43,5.1,4.8,4.8,0,0,1-4.11,1.91,4.14,4.14,0,0,1-3.73-2l-.28,1.76h-3.32V225.26l-2-.4v-2.32h5.88v7.82a4.32,4.32,0,0,1,1.48-1.32,4.1,4.1,0,0,1,2-.46,4.72,4.72,0,0,1,4.14,2,9.41,9.41,0,0,1,1.43,5.46Zm-3.84-.28a7.42,7.42,0,0,0-.61-3.3,2.16,2.16,0,0,0-2.09-1.22,2.88,2.88,0,0,0-1.52.38,2.58,2.58,0,0,0-1,1.07v6a2.36,2.36,0,0,0,1,1,3.15,3.15,0,0,0,1.53.34,2.2,2.2,0,0,0,2.09-1,6.14,6.14,0,0,0,.59-3Z" fill="#fff"/>
      <path d="M1147.84,243.38a6.43,6.43,0,0,1-4.94-2,7.09,7.09,0,0,1-1.84-5v-.52a7.79,7.79,0,0,1,1.75-5.24,6.51,6.51,0,0,1,9.16-.3,6.67,6.67,0,0,1,1.6,4.71v2.09h-8.52l0,.08a3.69,3.69,0,0,0,.94,2.32,2.93,2.93,0,0,0,2.27.91,7.16,7.16,0,0,0,2.13-.26,9.69,9.69,0,0,0,1.84-.81l1,2.38a7.71,7.71,0,0,1-2.28,1.17A9.66,9.66,0,0,1,1147.84,243.38Zm-.35-11.83a2,2,0,0,0-1.69.81,4.33,4.33,0,0,0-.76,2.15l0,.07h4.72v-.34a3.11,3.11,0,0,0-.57-2A2.07,2.07,0,0,0,1147.49,231.55Z" fill="#fff"/>
      <path d="M1155.18,240.8l1.86-.39V225.26l-2.06-.4v-2.32h5.89v8.12a4.81,4.81,0,0,1,1.65-1.53,4.29,4.29,0,0,1,2.16-.55,4.39,4.39,0,0,1,3.52,1.48,7,7,0,0,1,1.27,4.58v5.77l1.84.39v2.31H1164V240.8l1.66-.39v-5.79a3.7,3.7,0,0,0-.59-2.36,2.15,2.15,0,0,0-1.74-.69,3.25,3.25,0,0,0-1.41.29,3,3,0,0,0-1,.82v7.73l1.67.39v2.31h-7.36Z" fill="#fff"/>
      <path d="M1172.73,235.84a7.62,7.62,0,0,1,1.78-5.22,6.22,6.22,0,0,1,4.94-2,7.24,7.24,0,0,1,1.15.09,8.12,8.12,0,0,1,1.09.23l.88-1.81h2.14l-1.29,2.65a6.22,6.22,0,0,1,2,2.54,8.55,8.55,0,0,1,.72,3.56v.28a7.62,7.62,0,0,1-1.79,5.24,6.22,6.22,0,0,1-4.92,2,8.28,8.28,0,0,1-1.34-.1,7.52,7.52,0,0,1-1.2-.3l-1,2h-2.14l1.43-2.92a6,6,0,0,1-1.89-2.48,8.84,8.84,0,0,1-.64-3.45Zm3.85.28a9.14,9.14,0,0,0,.08,1.33,4.06,4.06,0,0,0,.27,1h.07l3.33-6.8a3,3,0,0,0-.43-.09,2.28,2.28,0,0,0-.45,0,2.34,2.34,0,0,0-2.19,1.2,6.15,6.15,0,0,0-.68,3.09Zm5.77-.28a8.12,8.12,0,0,0-.13-1.52,4.19,4.19,0,0,0-.39-1.18h-.07l-3.46,7.05a2.14,2.14,0,0,0,.54.18,3.16,3.16,0,0,0,.64.06,2.34,2.34,0,0,0,2.18-1.18,6.23,6.23,0,0,0,.69-3.13Z" fill="#fff"/>
      <path d="M1194.14,231.16l-1.35.25,1.89,6.38.25,1.35h.08l.27-1.35,1.86-6.36-1.37-.27v-2.32h6.47v2.32l-1.24.2-4.2,11.75h-3.68l-4.22-11.75-1.24-.2v-2.32h6.48Z" fill="#fff"/>
      <path d="M1210.13,243.38a6.4,6.4,0,0,1-4.93-2,7.05,7.05,0,0,1-1.85-5v-.52a7.79,7.79,0,0,1,1.75-5.24,6.52,6.52,0,0,1,9.17-.3,6.71,6.71,0,0,1,1.59,4.71v2.09h-8.52l0,.08a3.69,3.69,0,0,0,.94,2.32,2.94,2.94,0,0,0,2.28.91,7.13,7.13,0,0,0,2.12-.26,9.69,9.69,0,0,0,1.84-.81l1,2.38a7.71,7.71,0,0,1-2.28,1.17A9.66,9.66,0,0,1,1210.13,243.38Zm-.35-11.83a2,2,0,0,0-1.68.81,4.24,4.24,0,0,0-.77,2.15l0,.07h4.72v-.34a3.11,3.11,0,0,0-.57-2A2.07,2.07,0,0,0,1209.78,231.55Z" fill="#fff"/>
      <path d="M1218,240.8l1.85-.39v-8.85l-2-.4v-2.32h5.63l.17,2.09a4.51,4.51,0,0,1,1.3-1.73,2.87,2.87,0,0,1,1.83-.62,5,5,0,0,1,.64,0,3.26,3.26,0,0,1,.56.11l-.41,3.5-1.58,0a2.69,2.69,0,0,0-1.4.32,2.13,2.13,0,0,0-.84.94v6.94l1.84.39v2.31H1218Z" fill="#fff"/>
      <path d="M1244.75,243.11a6.46,6.46,0,0,1-.28-.73,5.23,5.23,0,0,1-.18-.76,5.43,5.43,0,0,1-1.67,1.28,5.09,5.09,0,0,1-2.25.48,4.71,4.71,0,0,1-3.33-1.14,4,4,0,0,1-1.23-3.1,3.51,3.51,0,0,1,1.61-3.1,8.38,8.38,0,0,1,4.72-1.09h2v-1.4a2.13,2.13,0,0,0-.59-1.6,2.5,2.5,0,0,0-1.76-.56,4.15,4.15,0,0,0-1.17.15,3.08,3.08,0,0,0-.83.36l-.25,1.53h-2.9v-3.16a10.31,10.31,0,0,1,2.42-1.2,8.65,8.65,0,0,1,3-.49,6.75,6.75,0,0,1,4.31,1.3,4.43,4.43,0,0,1,1.65,3.7v5.89c0,.22,0,.43,0,.62a3.21,3.21,0,0,0,0,.55l1.17.16v2.31Zm-3.34-2.57a3.32,3.32,0,0,0,1.58-.38,3,3,0,0,0,1.11-.94V237h-2a2.64,2.64,0,0,0-1.86.58,1.8,1.8,0,0,0-.64,1.37,1.43,1.43,0,0,0,.47,1.14A1.93,1.93,0,0,0,1241.41,240.54Z" fill="#fff"/>
      <path d="M1255.12,225.35v3.49h2.51v2.71h-2.51v7.26a1.74,1.74,0,0,0,.34,1.19,1.26,1.26,0,0,0,.93.35q.39,0,.69,0c.2,0,.42-.06.67-.11l.33,2.78a10.7,10.7,0,0,1-1.28.3,9.75,9.75,0,0,1-1.37.09,4.11,4.11,0,0,1-3.07-1.09,4.78,4.78,0,0,1-1.07-3.47v-7.27h-2.1v-2.71h2.1v-3.49Z" fill="#fff"/>
      <path d="M945.63,274.16l-1.35.25,1.89,6.38.25,1.35h.08l.27-1.35,1.86-6.36-1.37-.27v-2.32h6.48v2.32l-1.24.2-4.21,11.75h-3.68l-4.22-11.75-1.24-.2v-2.32h6.48Z" fill="#fff"/>
      <path d="M970.91,286.38a7.94,7.94,0,0,1-3-.53,5.76,5.76,0,0,1-2.21-1.54,6,6,0,0,1-2.13,1.49,7.87,7.87,0,0,1-3.17.58,5.77,5.77,0,0,1-3.91-1.19,4.07,4.07,0,0,1-1.38-3.26,3.67,3.67,0,0,1,1.68-3.23,8.65,8.65,0,0,1,4.88-1.14H964v-.77a2.35,2.35,0,0,0-.54-1.64,1.94,1.94,0,0,0-1.52-.6,2.58,2.58,0,0,0-1.67.49,1.54,1.54,0,0,0-.61,1.23L956,276l0-.08a3.53,3.53,0,0,1,1.6-3.14,7.33,7.33,0,0,1,4.47-1.24,7.94,7.94,0,0,1,2.46.36,5.22,5.22,0,0,1,1.88,1.05,5.57,5.57,0,0,1,1.88-1.05,7.48,7.48,0,0,1,2.38-.36,5.66,5.66,0,0,1,4.39,1.74,6.73,6.73,0,0,1,1.6,4.72v2.08H968l0,.08a3.53,3.53,0,0,0,.87,2.35,3.18,3.18,0,0,0,2.45.88,6.86,6.86,0,0,0,2-.26,12.45,12.45,0,0,0,1.85-.81l1,2.43A7.64,7.64,0,0,1,974,285.9,9.56,9.56,0,0,1,970.91,286.38Zm-9.79-2.71a3.59,3.59,0,0,0,1.59-.4,4,4,0,0,0,1.32-1V280h-2.36a3.1,3.1,0,0,0-2,.58,1.76,1.76,0,0,0-.72,1.41,1.49,1.49,0,0,0,.55,1.23A2.46,2.46,0,0,0,961.12,283.67Zm9.49-9.12a2.21,2.21,0,0,0-1.87.81,4,4,0,0,0-.71,2.19l0,.07h4.78v-.37a3.12,3.12,0,0,0-.57-2A1.93,1.93,0,0,0,970.61,274.55Z" fill="#fff"/>
      <path d="M978.77,283.8l1.85-.39v-8.85l-2-.4v-2.32h5.63l.17,2.09a4.51,4.51,0,0,1,1.3-1.73,2.87,2.87,0,0,1,1.83-.62c.2,0,.41,0,.64,0a4.44,4.44,0,0,1,.56.12l-.41,3.5-1.58,0a2.59,2.59,0,0,0-1.4.33,2.05,2.05,0,0,0-.84.93v6.94l1.84.39v2.31h-7.54Z" fill="#fff"/>
      <path d="M996.42,286.38a6.42,6.42,0,0,1-4.93-2,7.09,7.09,0,0,1-1.84-5v-.52a7.83,7.83,0,0,1,1.74-5.24,6.52,6.52,0,0,1,9.17-.3,6.67,6.67,0,0,1,1.6,4.71v2.09h-8.52l0,.08a3.69,3.69,0,0,0,.94,2.32,2.92,2.92,0,0,0,2.27.91,7.2,7.2,0,0,0,2.13-.26,9.69,9.69,0,0,0,1.84-.81l1,2.38a7.78,7.78,0,0,1-2.29,1.17A9.61,9.61,0,0,1,996.42,286.38Zm-.34-11.83a2,2,0,0,0-1.69.81,4.23,4.23,0,0,0-.76,2.15l0,.07h4.72v-.34a3,3,0,0,0-.58-2A2.05,2.05,0,0,0,996.08,274.55Z" fill="#fff"/>
      <path d="M1010.48,283.8l1.86-.39v-8.85l-2.06-.4v-2.32h5.91v11.57l1.84.39v2.31h-7.55Zm5.71-15.37h-3.85v-2.89h3.85Z" fill="#fff"/>
      <path d="M1025.71,283.8l1.84-.39v-8.85l-2-.4v-2.32h5.63l.17,2.05a5.16,5.16,0,0,1,1.75-1.7,4.51,4.51,0,0,1,2.34-.61,4.27,4.27,0,0,1,3.37,1.36,6.25,6.25,0,0,1,1.21,4.26v6.21l1.85.39v2.31h-7.36V283.8l1.65-.39v-6.2a2.88,2.88,0,0,0-.58-2,2.33,2.33,0,0,0-1.75-.6,3,3,0,0,0-1.37.31,2.79,2.79,0,0,0-1,.88v7.65l1.56.39v2.31h-7.25Z" fill="#fff"/>
      <path d="M1059,286.38a8,8,0,0,1-3-.53,2.31,2.31,0,0,0-4.34-.05,7.84,7.84,0,0,1-3.17.58,5.79,5.79,0,0,1-3.91-1.19,4.1,4.1,0,0,1-1.37-3.26,3.68,3.68,0,0,1,1.67-3.23,8.67,8.67,0,0,1,4.88-1.14h2.38v-.77a2.3,2.3,0,0,0-.54-1.64,1.92,1.92,0,0,0-1.51-.6,2.61,2.61,0,0,0-1.68.49,1.53,1.53,0,0,0-.6,1.23l-3.73-.23,0-.08a3.55,3.55,0,0,1,1.6-3.14,7.37,7.37,0,0,1,4.48-1.24,7.92,7.92,0,0,1,2.45.36,5.26,5.26,0,0,1,1.89,1.05,5.53,5.53,0,0,1,1.87-1.05,7.48,7.48,0,0,1,2.38-.36,5.64,5.64,0,0,1,4.39,1.74,6.68,6.68,0,0,1,1.6,4.72v2.08h-8.57l0,.08a3.53,3.53,0,0,0,.87,2.35,3.2,3.2,0,0,0,2.46.88,7,7,0,0,0,2-.26,12.39,12.39,0,0,0,1.84-.81l1,2.43a7.84,7.84,0,0,1-2.23,1.11A9.46,9.46,0,0,1,1059,286.38Zm-9.8-2.71a3.67,3.67,0,0,0,1.6-.4,4.09,4.09,0,0,0,1.31-1V280h-2.35a3.12,3.12,0,0,0-2,.58A1.78,1.78,0,0,0,1047,282a1.52,1.52,0,0,0,.54,1.23A2.48,2.48,0,0,0,1049.21,283.67Zm9.49-9.12a2.22,2.22,0,0,0-1.87.81,4,4,0,0,0-.71,2.19l0,.07h4.77v-.37a3.18,3.18,0,0,0-.56-2A2,2,0,0,0,1058.7,274.55Z" fill="#fff"/>
      <path d="M1066.87,283.8l1.84-.39v-8.85l-2-.4v-2.32h5.63l.17,2.09a4.4,4.4,0,0,1,1.29-1.73,2.91,2.91,0,0,1,1.83-.62c.2,0,.42,0,.64,0a4.08,4.08,0,0,1,.56.12l-.41,3.5-1.58,0a2.62,2.62,0,0,0-1.4.33,2.11,2.11,0,0,0-.84.93v6.94l1.85.39v2.31h-7.54Z" fill="#fff"/>
      <path d="M1077.07,283.8l1.86-.39V268.26l-2.06-.4v-2.32h5.89v8.12a4.81,4.81,0,0,1,1.65-1.53,4.29,4.29,0,0,1,2.16-.55,4.39,4.39,0,0,1,3.52,1.48,6.92,6.92,0,0,1,1.27,4.58v5.77l1.85.39v2.31h-7.36V283.8l1.66-.39v-5.79a3.7,3.7,0,0,0-.59-2.36,2.15,2.15,0,0,0-1.74-.69,3.25,3.25,0,0,0-1.41.29,3,3,0,0,0-1,.82v7.73l1.67.39v2.31h-7.36Z" fill="#fff"/>
      <path d="M1101.14,286.38a6.42,6.42,0,0,1-4.93-2,7.09,7.09,0,0,1-1.84-5v-.52a7.83,7.83,0,0,1,1.74-5.24,6.52,6.52,0,0,1,9.17-.3,6.72,6.72,0,0,1,1.6,4.71v2.09h-8.52l0,.08a3.7,3.7,0,0,0,1,2.32,2.9,2.9,0,0,0,2.27.91,7.09,7.09,0,0,0,2.12-.26,9.49,9.49,0,0,0,1.85-.81l1,2.38a7.78,7.78,0,0,1-2.29,1.17A9.61,9.61,0,0,1,1101.14,286.38Zm-.34-11.83a2,2,0,0,0-1.69.81,4.23,4.23,0,0,0-.76,2.15l0,.07h4.72v-.34a3,3,0,0,0-.58-2A2.05,2.05,0,0,0,1100.8,274.55Z" fill="#fff"/>
      <path d="M1118,284.37a4.71,4.71,0,0,1-1.59,1.5,4.23,4.23,0,0,1-2.09.51,4.83,4.83,0,0,1-4.09-1.92,8.16,8.16,0,0,1-1.46-5.09v-.28a9.26,9.26,0,0,1,1.46-5.44,4.76,4.76,0,0,1,4.12-2.07,4,4,0,0,1,1.92.47,4.68,4.68,0,0,1,1.5,1.32v-5.11l-2-.4v-2.32h5.9v17.87l1.85.39v2.31h-5.18Zm-5.38-5a6,6,0,0,0,.62,2.95,2.21,2.21,0,0,0,2,1.07,3,3,0,0,0,1.47-.34,2.74,2.74,0,0,0,1-1V276a2.87,2.87,0,0,0-1-1.06,2.69,2.69,0,0,0-1.44-.38,2.17,2.17,0,0,0-2.06,1.25,7.18,7.18,0,0,0-.64,3.27Z" fill="#fff"/>
      <path d="M1131.5,286.38a6.42,6.42,0,0,1-4.93-2,7.09,7.09,0,0,1-1.84-5v-.52a7.83,7.83,0,0,1,1.74-5.24,6.52,6.52,0,0,1,9.17-.3,6.67,6.67,0,0,1,1.6,4.71v2.09h-8.52l0,.08a3.69,3.69,0,0,0,.94,2.32,2.92,2.92,0,0,0,2.27.91,7.2,7.2,0,0,0,2.13-.26,9.69,9.69,0,0,0,1.84-.81l1,2.38a7.78,7.78,0,0,1-2.29,1.17A9.61,9.61,0,0,1,1131.5,286.38Zm-.34-11.83a2,2,0,0,0-1.69.81,4.23,4.23,0,0,0-.76,2.15l0,.07h4.72v-.34a3,3,0,0,0-.58-2A2.05,2.05,0,0,0,1131.16,274.55Z" fill="#fff"/>
      <path d="M1138.85,283.8l1.84-.39v-8.85l-2-.4v-2.32h5.63l.17,2.05a5.16,5.16,0,0,1,1.75-1.7,4.51,4.51,0,0,1,2.34-.61,4.27,4.27,0,0,1,3.37,1.36,6.25,6.25,0,0,1,1.21,4.26v6.21l1.85.39v2.31h-7.36V283.8l1.65-.39v-6.2a2.88,2.88,0,0,0-.58-2,2.33,2.33,0,0,0-1.75-.6,3,3,0,0,0-1.37.31,2.79,2.79,0,0,0-1,.88v7.65l1.56.39v2.31h-7.25Z" fill="#fff"/>
      <path d="M1171.9,286.11a6.46,6.46,0,0,1-.28-.73,5.56,5.56,0,0,1-.18-.76,5.43,5.43,0,0,1-1.67,1.28,5.09,5.09,0,0,1-2.25.48,4.71,4.71,0,0,1-3.33-1.14,4,4,0,0,1-1.23-3.1,3.51,3.51,0,0,1,1.61-3.1,8.38,8.38,0,0,1,4.72-1.09h2v-1.4a2.09,2.09,0,0,0-.59-1.59,2.45,2.45,0,0,0-1.76-.57,4.15,4.15,0,0,0-1.17.15,3.08,3.08,0,0,0-.83.36l-.25,1.53h-2.9v-3.16a10.31,10.31,0,0,1,2.42-1.2,8.65,8.65,0,0,1,3-.49,6.75,6.75,0,0,1,4.31,1.3,4.43,4.43,0,0,1,1.65,3.7v5.89c0,.22,0,.43,0,.62a3.21,3.21,0,0,0,.05.55l1.17.16v2.31Zm-3.34-2.57a3.32,3.32,0,0,0,1.58-.38,3,3,0,0,0,1.11-.94V280h-2a2.64,2.64,0,0,0-1.86.58,1.8,1.8,0,0,0-.64,1.37,1.43,1.43,0,0,0,.47,1.14A1.93,1.93,0,0,0,1168.56,283.54Z" fill="#fff"/>
      <path d="M1177.86,283.8l1.85-.39v-8.86h-2.12v-2.71h2.12v-1.58a4.85,4.85,0,0,1,1.39-3.7,5.49,5.49,0,0,1,3.89-1.3,6.71,6.71,0,0,1,1,.08c.34.05.71.11,1.12.2l-.33,2.86-.61-.09a4.81,4.81,0,0,0-.7,0,1.81,1.81,0,0,0-1.41.52,2,2,0,0,0-.49,1.47v1.58h2.84v2.71h-2.84v8.86l1.86.39v2.31h-7.56Z" fill="#fff"/>
      <path d="M1203.59,284.37a4.71,4.71,0,0,1-1.59,1.5,4.23,4.23,0,0,1-2.09.51,4.83,4.83,0,0,1-4.09-1.92,8.22,8.22,0,0,1-1.46-5.09v-.28a9.19,9.19,0,0,1,1.47-5.44,4.73,4.73,0,0,1,4.11-2.07,4,4,0,0,1,1.92.47,4.71,4.71,0,0,1,1.51,1.32v-5.11l-2.06-.4v-2.32h5.91v17.87l1.84.39v2.31h-5.18Zm-5.38-5a5.85,5.85,0,0,0,.63,2.95,2.19,2.19,0,0,0,2.05,1.07,3,3,0,0,0,1.46-.34,2.84,2.84,0,0,0,1-1V276a3,3,0,0,0-1-1.06,2.72,2.72,0,0,0-1.45-.38,2.16,2.16,0,0,0-2.05,1.25,7.18,7.18,0,0,0-.65,3.27Z" fill="#fff"/>
      <path d="M1210.17,283.8l1.86-.39v-8.85l-2.06-.4v-2.32h5.91v11.57l1.84.39v2.31h-7.55Zm5.71-15.37H1212v-2.89h3.85Z" fill="#fff"/>
      <path d="M1224.67,268.35v3.49h2.51v2.71h-2.51v7.26A1.74,1.74,0,0,0,1225,283a1.26,1.26,0,0,0,.93.35q.39,0,.69,0a6.47,6.47,0,0,0,.66-.11l.33,2.78a10.13,10.13,0,0,1-1.27.3,9.89,9.89,0,0,1-1.38.09,4.09,4.09,0,0,1-3.06-1.09,4.78,4.78,0,0,1-1.08-3.47v-7.27h-2.09v-2.71h2.09v-3.49Z" fill="#fff"/>
      <path d="M1235.27,267.86v-2.32h5.89v11.92h.86l2.21-3.13-1.25-.17v-2.32h7v2.32l-1.69.39-2.57,3.53,3.6,5.42,1.46.3v2.31h-6.59V283.8l.79-.13-2.19-3.53h-1.65v3.27l1.66.39v2.31h-7.35V283.8l1.86-.39V268.26Z" fill="#fff"/>
      <path d="M1252.32,278.84a7.62,7.62,0,0,1,1.78-5.22,6.22,6.22,0,0,1,4.94-2,7.15,7.15,0,0,1,1.15.09,8.12,8.12,0,0,1,1.09.23l.88-1.81h2.14l-1.29,2.65a6.14,6.14,0,0,1,2,2.54,8.55,8.55,0,0,1,.72,3.56v.28a7.62,7.62,0,0,1-1.79,5.24,6.22,6.22,0,0,1-4.92,2,8.28,8.28,0,0,1-1.34-.1,7.14,7.14,0,0,1-1.19-.3l-1,2h-2.14l1.43-2.92a6,6,0,0,1-1.89-2.48,8.87,8.87,0,0,1-.64-3.45Zm3.85.28a9.14,9.14,0,0,0,.08,1.33,3.94,3.94,0,0,0,.27,1h.07l3.33-6.8a3,3,0,0,0-.43-.09,2.28,2.28,0,0,0-.45,0,2.34,2.34,0,0,0-2.19,1.2,6.12,6.12,0,0,0-.68,3.09Zm5.77-.28a8.12,8.12,0,0,0-.13-1.52,4.55,4.55,0,0,0-.38-1.18h-.08l-3.46,7.05a2.14,2.14,0,0,0,.54.18,3.16,3.16,0,0,0,.64.06,2.34,2.34,0,0,0,2.18-1.18,6.23,6.23,0,0,0,.69-3.13Z" fill="#fff"/>
      <path d="M1277,284.37a4.71,4.71,0,0,1-1.59,1.5,4.23,4.23,0,0,1-2.09.51,4.86,4.86,0,0,1-4.1-1.92,8.22,8.22,0,0,1-1.45-5.09v-.28a9.19,9.19,0,0,1,1.46-5.44,4.75,4.75,0,0,1,4.11-2.07,4,4,0,0,1,1.93.47,4.68,4.68,0,0,1,1.5,1.32v-5.11l-2.06-.4v-2.32h5.91v17.87l1.85.39v2.31h-5.18Zm-5.38-5a6,6,0,0,0,.62,2.95,2.2,2.2,0,0,0,2,1.07,3,3,0,0,0,1.47-.34,2.74,2.74,0,0,0,1-1V276a2.87,2.87,0,0,0-1-1.06,2.71,2.71,0,0,0-1.44-.38,2.17,2.17,0,0,0-2.06,1.25,7.18,7.18,0,0,0-.64,3.27Z" fill="#fff"/>
      <path d="M1288.1,285.59a6.41,6.41,0,0,1-.76,2.85,8.33,8.33,0,0,1-1.85,2.47l-1.9-1a9.28,9.28,0,0,0,.79-1.91,8.21,8.21,0,0,0,.27-2.19V282.9h3.46Z" fill="#fff"/>
      <path d="M939.13,317.16v-2.32h5.63l.16,1.89a4.67,4.67,0,0,1,1.72-1.59,5,5,0,0,1,2.39-.56,4.35,4.35,0,0,1,2.35.61,3.67,3.67,0,0,1,1.47,1.83,4.85,4.85,0,0,1,1.72-1.79,4.53,4.53,0,0,1,2.47-.65,4.11,4.11,0,0,1,3.33,1.46,6.75,6.75,0,0,1,1.22,4.43v5.94l1.86.39v2.31h-7.37V326.8l1.66-.39v-6a3.61,3.61,0,0,0-.52-2.25,1.92,1.92,0,0,0-1.57-.64,2.62,2.62,0,0,0-2.38,1.37c0,.17,0,.31,0,.43s0,.24,0,.36v6.68l1.56.39v2.31h-7V326.8l1.55-.39v-6a3.65,3.65,0,0,0-.52-2.24,2,2,0,0,0-1.59-.65,2.93,2.93,0,0,0-1.36.3,2.7,2.7,0,0,0-1,.84v7.7l1.66.39v2.31h-7.35V326.8l1.85-.39v-8.85Z" fill="#fff"/>
      <path d="M971.39,329.38a6.4,6.4,0,0,1-4.93-2,7.1,7.1,0,0,1-1.85-5v-.52a7.79,7.79,0,0,1,1.75-5.24,6.52,6.52,0,0,1,9.17-.3,6.71,6.71,0,0,1,1.59,4.71v2.09h-8.51l0,.08a3.69,3.69,0,0,0,.94,2.32,2.94,2.94,0,0,0,2.28.91,7.09,7.09,0,0,0,2.12-.26,9.43,9.43,0,0,0,1.84-.81l1,2.38a7.91,7.91,0,0,1-2.29,1.17A9.66,9.66,0,0,1,971.39,329.38ZM971,317.55a2,2,0,0,0-1.68.81,4.24,4.24,0,0,0-.77,2.15l0,.07h4.72v-.34a3.11,3.11,0,0,0-.57-2A2.06,2.06,0,0,0,971,317.55Z" fill="#fff"/>
      <path d="M978.73,326.8l1.85-.39v-8.85l-2.05-.4v-2.32h5.63l.17,2.05a5.19,5.19,0,0,1,1.76-1.7,4.48,4.48,0,0,1,2.33-.61,4.26,4.26,0,0,1,3.37,1.36A6.25,6.25,0,0,1,993,320.2v6.21l1.84.39v2.31H987.5V326.8l1.65-.39v-6.2a2.92,2.92,0,0,0-.58-2,2.36,2.36,0,0,0-1.76-.6,3,3,0,0,0-1.37.31,3,3,0,0,0-1,.88v7.65l1.56.39v2.31h-7.25Z" fill="#fff"/>
      <path d="M1007.72,319.75h-2.58l-.41-1.78a3.49,3.49,0,0,0-1-.53,4,4,0,0,0-1.32-.21,2.59,2.59,0,0,0-1.61.45,1.39,1.39,0,0,0-.59,1.14,1.29,1.29,0,0,0,.56,1.08,6,6,0,0,0,2.27.76,9.2,9.2,0,0,1,3.93,1.55,3.41,3.41,0,0,1,1.28,2.81,3.75,3.75,0,0,1-1.66,3.15,7.16,7.16,0,0,1-4.35,1.21,9.17,9.17,0,0,1-3-.48,7.94,7.94,0,0,1-2.45-1.37l0-3.21h2.69l.52,1.86a2.11,2.11,0,0,0,.94.43,5.54,5.54,0,0,0,1.24.14,3.12,3.12,0,0,0,1.78-.42,1.35,1.35,0,0,0,.62-1.15,1.37,1.37,0,0,0-.62-1.1,6.46,6.46,0,0,0-2.28-.81,9.18,9.18,0,0,1-3.81-1.53,3.3,3.3,0,0,1-1.28-2.74,4,4,0,0,1,1.47-3.1,6.22,6.22,0,0,1,4.21-1.29,11,11,0,0,1,3.14.44,6.75,6.75,0,0,1,2.33,1.15Z" fill="#fff"/>
      <path d="M1025.87,327.37a4.59,4.59,0,0,1-1.58,1.5,4.26,4.26,0,0,1-2.09.51,4.85,4.85,0,0,1-4.1-1.92,8.22,8.22,0,0,1-1.45-5.09v-.28a9.19,9.19,0,0,1,1.46-5.44,4.74,4.74,0,0,1,4.11-2.07,4,4,0,0,1,1.93.47,4.68,4.68,0,0,1,1.5,1.32v-5.11l-2.06-.4v-2.32h5.91v17.87l1.85.39v2.31h-5.18Zm-5.37-5a5.86,5.86,0,0,0,.62,2.95,2.2,2.2,0,0,0,2,1.07,3,3,0,0,0,1.47-.34,2.74,2.74,0,0,0,1-1V319a2.87,2.87,0,0,0-1-1.06,2.71,2.71,0,0,0-1.44-.38,2.17,2.17,0,0,0-2.06,1.25,7.18,7.18,0,0,0-.64,3.27Z" fill="#fff"/>
      <path d="M1039.4,329.38a6.4,6.4,0,0,1-4.93-2,7.1,7.1,0,0,1-1.85-5v-.52a7.84,7.84,0,0,1,1.75-5.24,6.52,6.52,0,0,1,9.17-.3,6.72,6.72,0,0,1,1.6,4.71v2.09h-8.52l0,.08a3.7,3.7,0,0,0,1,2.32,2.9,2.9,0,0,0,2.27.91,7.09,7.09,0,0,0,2.12-.26,9.76,9.76,0,0,0,1.85-.81l1,2.38a7.78,7.78,0,0,1-2.29,1.17A9.61,9.61,0,0,1,1039.4,329.38Zm-.34-11.83a2,2,0,0,0-1.69.81,4.23,4.23,0,0,0-.76,2.15l0,.07h4.72v-.34a3.11,3.11,0,0,0-.58-2A2.05,2.05,0,0,0,1039.06,317.55Z" fill="#fff"/>
      <path d="M1052.64,311.35v3.49h2.5v2.71h-2.5v7.26A1.69,1.69,0,0,0,1053,326a1.25,1.25,0,0,0,.92.35,6.73,6.73,0,0,0,.69,0c.2,0,.42-.06.67-.11l.33,2.78a10.27,10.27,0,0,1-1.28.3,9.75,9.75,0,0,1-1.37.09,4.07,4.07,0,0,1-3.06-1.09,4.78,4.78,0,0,1-1.08-3.47v-7.27h-2.1v-2.71h2.1v-3.49Z" fill="#fff"/>
      <path d="M1077.44,322.37a8.32,8.32,0,0,1-1.43,5.1,4.8,4.8,0,0,1-4.11,1.91,4.14,4.14,0,0,1-3.73-2l-.28,1.76h-3.32V311.26l-2-.4v-2.32h5.88v7.82a4.45,4.45,0,0,1,1.49-1.32,4.08,4.08,0,0,1,2-.46,4.72,4.72,0,0,1,4.14,2.05,9.41,9.41,0,0,1,1.43,5.46Zm-3.84-.28a7.59,7.59,0,0,0-.61-3.3,2.16,2.16,0,0,0-2.09-1.22,2.88,2.88,0,0,0-1.52.38,2.68,2.68,0,0,0-1,1.07v6a2.45,2.45,0,0,0,1,1,3.12,3.12,0,0,0,1.53.34,2.2,2.2,0,0,0,2.09-1.05,6.17,6.17,0,0,0,.59-3Z" fill="#fff"/>
      <path d="M1078.54,310.86v-2.32h5.91v17.87l1.86.39v2.31h-7.57V326.8l1.86-.39V311.26Z" fill="#fff"/>
      <path d="M1087.44,326.8l1.86-.39v-8.85l-2.06-.4v-2.32h5.91v11.57l1.85.39v2.31h-7.56Zm5.71-15.37h-3.85v-2.89h3.85Z" fill="#fff"/>
      <path d="M1102.31,317.16l-1.34.25,1.88,6.38.25,1.35h.08l.28-1.35,1.86-6.36-1.37-.27v-2.32h6.47v2.32l-1.24.2-4.2,11.75h-3.68l-4.22-11.75-1.24-.2v-2.32h6.47Z" fill="#fff"/>
      <path d="M1118.3,329.38a6.42,6.42,0,0,1-4.93-2,7.09,7.09,0,0,1-1.84-5v-.52a7.83,7.83,0,0,1,1.74-5.24,6.52,6.52,0,0,1,9.17-.3A6.67,6.67,0,0,1,1124,321v2.09h-8.52l0,.08a3.69,3.69,0,0,0,.94,2.32,2.92,2.92,0,0,0,2.27.91,7.16,7.16,0,0,0,2.13-.26,9.69,9.69,0,0,0,1.84-.81l1,2.38a7.84,7.84,0,0,1-2.28,1.17A9.68,9.68,0,0,1,1118.3,329.38Zm-.34-11.83a2,2,0,0,0-1.69.81,4.33,4.33,0,0,0-.76,2.15l0,.07h4.72v-.34a3.11,3.11,0,0,0-.57-2A2.09,2.09,0,0,0,1118,317.55Z" fill="#fff"/>
      <path d="M1126.15,326.8l1.84-.39v-8.85l-2-.4v-2.32h5.63l.17,2.09a4.49,4.49,0,0,1,1.29-1.73,2.92,2.92,0,0,1,1.84-.62c.2,0,.41,0,.63,0a4.27,4.27,0,0,1,.57.12l-.41,3.5-1.59,0a2.58,2.58,0,0,0-1.39.33,2.13,2.13,0,0,0-.85.93v6.94l1.85.39v2.31h-7.54Z" fill="#fff"/>
      <path d="M1149.52,311.35v3.49H1152v2.71h-2.51v7.26a1.69,1.69,0,0,0,.35,1.19,1.22,1.22,0,0,0,.92.35q.39,0,.69,0c.2,0,.42-.06.67-.11l.33,2.78a10.7,10.7,0,0,1-1.28.3,9.75,9.75,0,0,1-1.37.09,4.11,4.11,0,0,1-3.07-1.09,4.78,4.78,0,0,1-1.07-3.47v-7.27h-2.1v-2.71h2.1v-3.49Z" fill="#fff"/>
      <path d="M1153.79,326.8l1.86-.39v-8.85l-2.05-.4v-2.32h5.9v11.57l1.85.39v2.31h-7.56Zm5.71-15.37h-3.85v-2.89h3.85Z" fill="#fff"/>
      <path d="M1162.21,310.86v-2.32h5.9v17.87l1.86.39v2.31h-7.57V326.8l1.86-.39V311.26Z" fill="#fff"/>
      <path d="M1185,322.37a8.32,8.32,0,0,1-1.42,5.1,4.8,4.8,0,0,1-4.11,1.91,4.14,4.14,0,0,1-3.73-2l-.28,1.76h-3.32V311.26l-2.05-.4v-2.32H1176v7.82a4.45,4.45,0,0,1,1.49-1.32,4.08,4.08,0,0,1,2-.46,4.72,4.72,0,0,1,4.14,2.05,9.41,9.41,0,0,1,1.42,5.46Zm-3.83-.28a7.44,7.44,0,0,0-.62-3.3,2.14,2.14,0,0,0-2.09-1.22,2.87,2.87,0,0,0-1.51.38,2.61,2.61,0,0,0-1,1.07v6a2.48,2.48,0,0,0,1,1,3.16,3.16,0,0,0,1.54.34,2.18,2.18,0,0,0,2.08-1.05,6,6,0,0,0,.6-3Z" fill="#fff"/>
      <path d="M1193.62,329.38a6.42,6.42,0,0,1-4.93-2,7.09,7.09,0,0,1-1.84-5v-.52a7.83,7.83,0,0,1,1.74-5.24,6.52,6.52,0,0,1,9.17-.3,6.67,6.67,0,0,1,1.6,4.71v2.09h-8.52l0,.08a3.7,3.7,0,0,0,1,2.32,2.92,2.92,0,0,0,2.27.91,7.09,7.09,0,0,0,2.12-.26,9.49,9.49,0,0,0,1.85-.81l1,2.38a7.78,7.78,0,0,1-2.29,1.17A9.61,9.61,0,0,1,1193.62,329.38Zm-.34-11.83a2,2,0,0,0-1.69.81,4.23,4.23,0,0,0-.76,2.15l0,.07h4.72v-.34a3,3,0,0,0-.58-2A2.05,2.05,0,0,0,1193.28,317.55Z" fill="#fff"/>
      <path d="M1201.47,326.8l1.84-.39v-8.85l-2-.4v-2.32h5.63l.17,2.09a4.4,4.4,0,0,1,1.29-1.73,2.91,2.91,0,0,1,1.83-.62c.21,0,.42,0,.64,0a4.08,4.08,0,0,1,.56.12l-.41,3.5-1.58,0a2.58,2.58,0,0,0-1.39.33,2.08,2.08,0,0,0-.85.93v6.94l1.85.39v2.31h-7.54Z" fill="#fff"/>
      <path d="M1219.12,329.38a6.4,6.4,0,0,1-4.93-2,7.1,7.1,0,0,1-1.85-5v-.52a7.79,7.79,0,0,1,1.75-5.24,6.52,6.52,0,0,1,9.17-.3,6.71,6.71,0,0,1,1.59,4.71v2.09h-8.51l0,.08a3.75,3.75,0,0,0,.94,2.32,2.94,2.94,0,0,0,2.28.91,7.09,7.09,0,0,0,2.12-.26,9.76,9.76,0,0,0,1.85-.81l1,2.38a7.78,7.78,0,0,1-2.29,1.17A9.66,9.66,0,0,1,1219.12,329.38Zm-.34-11.83a2,2,0,0,0-1.69.81,4.24,4.24,0,0,0-.77,2.15l0,.07h4.72v-.34a3.11,3.11,0,0,0-.57-2A2.05,2.05,0,0,0,1218.78,317.55Z" fill="#fff"/>
      <path d="M1236,327.37a4.59,4.59,0,0,1-1.58,1.5,4.26,4.26,0,0,1-2.09.51,4.85,4.85,0,0,1-4.1-1.92,8.22,8.22,0,0,1-1.45-5.09v-.28a9.19,9.19,0,0,1,1.46-5.44,4.75,4.75,0,0,1,4.11-2.07,4,4,0,0,1,1.93.47,4.68,4.68,0,0,1,1.5,1.32v-5.11l-2.06-.4v-2.32h5.91v17.87l1.85.39v2.31h-5.18Zm-5.37-5a5.86,5.86,0,0,0,.62,2.95,2.2,2.2,0,0,0,2,1.07,3,3,0,0,0,1.47-.34,2.74,2.74,0,0,0,1-1V319a2.87,2.87,0,0,0-1-1.06,2.71,2.71,0,0,0-1.44-.38,2.17,2.17,0,0,0-2.06,1.25,7.18,7.18,0,0,0-.64,3.27Z" fill="#fff"/>
      <path d="M1247.49,311.35v3.49H1250v2.71h-2.51v7.26a1.69,1.69,0,0,0,.34,1.19,1.26,1.26,0,0,0,.93.35q.39,0,.69,0a6.47,6.47,0,0,0,.66-.11l.33,2.78a10.13,10.13,0,0,1-1.27.3,9.89,9.89,0,0,1-1.38.09,4.09,4.09,0,0,1-3.06-1.09,4.78,4.78,0,0,1-1.08-3.47v-7.27h-2.09v-2.71h2.09v-3.49Z" fill="#fff"/>
      <path d="M1255.35,323.65a5.41,5.41,0,0,1,.54-2.7,9.31,9.31,0,0,1,2.13-2.09,6.92,6.92,0,0,0,1.5-1.64,3.65,3.65,0,0,0,.56-2,2.67,2.67,0,0,0-.64-1.9,2.36,2.36,0,0,0-1.82-.69,2.49,2.49,0,0,0-1.66.58,2.18,2.18,0,0,0-.69,1.71h-3.75l0-.08a4.54,4.54,0,0,1,1.67-3.88,6.94,6.94,0,0,1,4.45-1.34,6.71,6.71,0,0,1,4.63,1.49,5.19,5.19,0,0,1,1.68,4.07,5.38,5.38,0,0,1-1,3.1,8.85,8.85,0,0,1-2.46,2.38,3.19,3.19,0,0,0-1.06,1.25,4.93,4.93,0,0,0-.25,1.72Zm3.86,5.46h-3.88v-3.3h3.88Z" fill="#fff"/>
    </g>
  </g>
</svg>
