<svg id="Layer_1" data-name="Layer 1" xmlns="http://www.w3.org/2000/svg" viewBox="0 0 500 403">
  <title>mobil_infografik2</title>
  <path d="M117.12,254.81a12.3,12.3,0,0,0-2.94-2c-2-1-6.37-.49-6.37-.49s-9.81,1-15.21-2.45S86.22,247,86.22,247a85.54,85.54,0,0,0-28.44.49,7.5,7.5,0,0,0-4.42-.49c-2.45.49-4.41.49-5.39,0s-4.91.49-6.38,0a2.46,2.46,0,0,0-2.45.49l-3,.49s-6.37,2-3.92,16.68-1,24-1,24-.49,8.34,1,13.24-1.47,7.85,2.45,8.83,21.58,4.42,25,3.44" fill="none" stroke="#fff" stroke-linecap="round" stroke-miterlimit="10" stroke-width="1.96"/>
  <path d="M117.12,254.81s15.21,7.35,7.36,24.52c0,0-3.92,6.87-9.32,10.79" fill="none" stroke="#fff" stroke-linecap="round" stroke-miterlimit="10" stroke-width="1.96"/>
  <path d="M119.58,295.52s10.3,13.73-3,23.05c0,0-5.39,3.43-16.18,1.47" fill="none" stroke="#fff" stroke-linecap="round" stroke-miterlimit="10" stroke-width="1.96"/>
  <path d="M40.12,244s.49-5.89,10.3-9.32S84.26,221,89.17,218s14.71-9.32,21.09-10.79" fill="none" stroke="#fff" stroke-linecap="round" stroke-miterlimit="10" stroke-width="1.96"/>
  <path d="M115.16,206.25s35.32-23.54,64.26,2" fill="none" stroke="#fff" stroke-linecap="round" stroke-miterlimit="10" stroke-width="1.96"/>
  <path d="M183.34,212.63a6,6,0,0,0,4.41,5.39c4.42,1.47,16.68,18.64,13.25,31.88" fill="none" stroke="#fff" stroke-linecap="round" stroke-miterlimit="10" stroke-width="1.96"/>
  <path d="M123.5,315.63s10.6-3.54,28.5-16.6c3.19-2.33,6.61-5,10.25-7.93" fill="none" stroke="#fff" stroke-linecap="round" stroke-miterlimit="10" stroke-width="1.96"/>
  <path d="M197.56,256.77s1.48,6.37-8.33,11.77-20.11,14.22-20.11,14.22" fill="none" stroke="#fff" stroke-linecap="round" stroke-miterlimit="10" stroke-width="1.96"/>
  <path d="M119.58,253.34s13.24,4.41,9.81,18.14-1,11.77-13.74,21.58" fill="none" stroke="#fff" stroke-linecap="round" stroke-miterlimit="10" stroke-width="0.98"/>
  <path d="M107.81,258.73s-5.4,6.38,2.45,6.38" fill="none" stroke="#fff" stroke-linecap="round" stroke-miterlimit="10" stroke-width="0.98"/>
  <path d="M102.9,256.77s0,5.39-4.9,4.41" fill="none" stroke="#fff" stroke-linecap="round" stroke-miterlimit="10" stroke-width="0.98"/>
  <path d="M34.23,257.26s0-8.83,7.36-7.85" fill="none" stroke="#fff" stroke-linecap="round" stroke-miterlimit="10" stroke-width="0.98"/>
  <path d="M53.36,299.44s-8.83,8.34,2,14.22" fill="none" stroke="#fff" stroke-linecap="round" stroke-miterlimit="10" stroke-width="0.98"/>
  <path d="M36.19,296s3.44,6.37,11.29,2.94" fill="none" stroke="#fff" stroke-linecap="round" stroke-miterlimit="10" stroke-width="0.98"/>
  <path d="M109.77,301.89s-8.83,1.47-5.89,11.28" fill="none" stroke="#fff" stroke-linecap="round" stroke-miterlimit="10" stroke-width="0.98"/>
  <path d="M44,243.53s10.3.49,12.76,0" fill="none" stroke="#fff" stroke-linecap="round" stroke-miterlimit="10" stroke-width="0.98"/>
  <path d="M44.53,240.58s9.81,1.47,12.27,1.47" fill="none" stroke="#fff" stroke-linecap="round" stroke-miterlimit="10" stroke-width="0.98"/>
  <line x1="47.48" y1="238.13" x2="59.74" y2="239.11" fill="none" stroke="#fff" stroke-linecap="round" stroke-miterlimit="10" stroke-width="0.98"/>
  <path d="M52.38,235.68s3.43,1,4.91,0" fill="none" stroke="#fff" stroke-linecap="round" stroke-miterlimit="10" stroke-width="0.98"/>
  <path d="M17.8,335c2,2.45,7.85,2,17.17-2.45s13.24,0,13.24,0c13.74,7.36,8.83,4.9,21.58,4.9s16.19-2,23.55-9.81-3-15.69-22.08-12.26a85.61,85.61,0,0,1-33.84-.49S31,311,23.2,318.81c0,0-2.95,4.91-7.36,5.89s-3.43,8.34-.49,9.81" fill="none" stroke="#fff" stroke-linecap="round" stroke-miterlimit="10" stroke-width="1.47"/>
  <path d="M100.69,325.68s-3.43,21.09-30.41,19.62-27.95-6.87-27.95-6.87-2.46-2.45-7.85,2.46-19.13,5.39-18.64-3.44c0,0-4.71-.4-2.6-4.37" fill="none" stroke="#fff" stroke-linecap="round" stroke-miterlimit="10" stroke-width="1.47"/>
  <path d="M44.78,332.55s0,5.39,2.45,7.36" fill="none" stroke="#fff" stroke-linecap="round" stroke-miterlimit="10" stroke-width="0.49"/>
  <path d="M46.74,334s1,5.89,2.45,6.87" fill="none" stroke="#fff" stroke-linecap="round" stroke-miterlimit="10" stroke-width="0.49"/>
  <path d="M49.19,335s1,5.4,2.45,6.87" fill="none" stroke="#fff" stroke-linecap="round" stroke-miterlimit="10" stroke-width="0.49"/>
  <path d="M51.15,337s1.48,4.91,2.46,5.4" fill="none" stroke="#fff" stroke-linecap="round" stroke-miterlimit="10" stroke-width="0.49"/>
  <path d="M53.61,339.42a16.11,16.11,0,0,0,1.47,2.94" fill="none" stroke="#fff" stroke-linecap="round" stroke-miterlimit="10" stroke-width="0.49"/>
  <path d="M87,341.87s.49-3.93-1.47-4.91" fill="none" stroke="#fff" stroke-linecap="round" stroke-miterlimit="10" stroke-width="0.49"/>
  <path d="M89.41,340.89s.49-5.89-.49-5.89" fill="none" stroke="#fff" stroke-linecap="round" stroke-miterlimit="10" stroke-width="0.49"/>
  <path d="M91.86,339.42s0-4.91-1.47-6.38" fill="none" stroke="#fff" stroke-linecap="round" stroke-miterlimit="10" stroke-width="0.49"/>
  <path d="M93.83,337.45s-.49-4.41-1.47-5.39" fill="none" stroke="#fff" stroke-linecap="round" stroke-miterlimit="10" stroke-width="0.49"/>
  <path d="M95.3,335s0-4.9-1-5.89" fill="none" stroke="#fff" stroke-linecap="round" stroke-miterlimit="10" stroke-width="0.49"/>
  <path d="M96.77,333s0-5.89-1-5.89" fill="none" stroke="#fff" stroke-linecap="round" stroke-miterlimit="10" stroke-width="0.49"/>
  <path d="M98.24,331.08c-.49-4.42-1.47-4.91-1.47-4.91" fill="none" stroke="#fff" stroke-linecap="round" stroke-miterlimit="10" stroke-width="0.49"/>
  <path d="M99.22,329.11s-.49-3.92-1.47-4.41" fill="none" stroke="#fff" stroke-linecap="round" stroke-miterlimit="10" stroke-width="0.49"/>
  <path d="M51.64,326.17a6,6,0,0,1,2.46-7.36" fill="none" stroke="#fff" stroke-linecap="round" stroke-miterlimit="10" stroke-width="0.49"/>
  <path d="M126.2,252.11a21,21,0,0,0,13.24-9.81s2.45-4.91,5.89-3.92,8.83-1.48,8.83-1.48,6.37-2,10.3-5.39,5.88-3.93,5.88-3.93" fill="none" stroke="#fff" stroke-linecap="round" stroke-miterlimit="10" stroke-width="0.49"/>
  <path d="M172.79,212.38s5.4,3.43,5.4,9.32" fill="none" stroke="#fff" stroke-linecap="round" stroke-miterlimit="10" stroke-width="0.98"/>
  <path d="M175.74,209.44s4.41,5.39,4.41,9.32" fill="none" stroke="#fff" stroke-linecap="round" stroke-miterlimit="10" stroke-width="0.98"/>
  <path d="M180.15,209.93s2.45,5.88,2.45,7.35" fill="none" stroke="#fff" stroke-linecap="round" stroke-miterlimit="10" stroke-width="0.98"/>
  <path d="M179.66,224.15a10.16,10.16,0,0,1,4.42,9.32" fill="none" stroke="#fff" stroke-linecap="round" stroke-miterlimit="10" stroke-width="0.98"/>
  <path d="M183.09,222.68s6.38,3.92,4.91,10.79" fill="none" stroke="#fff" stroke-linecap="round" stroke-miterlimit="10" stroke-width="0.98"/>
  <path d="M186,220.23s9.32,5.88,8.34,16.18" fill="none" stroke="#fff" stroke-linecap="round" stroke-miterlimit="10" stroke-width="0.98"/>
  <path d="M128.41,206.25s-2.46-2.45-4.91-2.45" fill="none" stroke="#fff" stroke-linecap="round" stroke-miterlimit="10" stroke-width="0.98"/>
  <path d="M128.9,204.29s-2-2-3.44-2" fill="none" stroke="#fff" stroke-linecap="round" stroke-miterlimit="10" stroke-width="0.98"/>
  <path d="M133.8,205.76s-4.9-4.91-6.38-4.91" fill="none" stroke="#fff" stroke-linecap="round" stroke-miterlimit="10" stroke-width="0.98"/>
  <path d="M136.74,205.76s-4.41-5.4-7.35-5.89" fill="none" stroke="#fff" stroke-linecap="round" stroke-miterlimit="10" stroke-width="0.98"/>
  <path d="M141.16,206.25s-7.36-7.36-9.32-7.36" fill="none" stroke="#fff" stroke-linecap="round" stroke-miterlimit="10" stroke-width="0.98"/>
  <path d="M147,207.72s-9.32-9.32-12.26-9.32" fill="none" stroke="#fff" stroke-linecap="round" stroke-miterlimit="10" stroke-width="0.98"/>
  <path d="M152.44,208.7s-8.83-9.81-12.75-9.81" fill="none" stroke="#fff" stroke-linecap="round" stroke-miterlimit="10" stroke-width="0.98"/>
  <path d="M160.29,208.7S151,197.91,144.1,197.42" fill="none" stroke="#fff" stroke-linecap="round" stroke-miterlimit="10" stroke-width="0.98"/>
  <path d="M165.68,206.74s-10.79-9.81-14.22-9.81" fill="none" stroke="#fff" stroke-linecap="round" stroke-miterlimit="10" stroke-width="0.98"/>
  <path d="M170.59,206.74s-10.3-8.83-13.25-9.32" fill="none" stroke="#fff" stroke-linecap="round" stroke-miterlimit="10" stroke-width="0.98"/>
  <path d="M87.7,317.59s10.3,3.43,1,10.79" fill="none" stroke="#fff" stroke-linecap="round" stroke-miterlimit="10" stroke-width="0.98"/>
  <path d="M67.1,288.65s3.43-6.38,6.37-10.79,1-8.83-1-8.83" fill="none" stroke="#fff" stroke-linecap="round" stroke-miterlimit="10" stroke-width="0.49"/>
  <path d="M110.6,224.19,128,209.07a11.68,11.68,0,0,0,.92-.94c.46-.5,1.74-1.15,4.69,1.8,0,0,2.45,2.45.49,4.41s0,2.94,0,2.94l9.32,10.3L139.93,231s-8.34-10.79-16.18-6.87l-7.25,6a3.93,3.93,0,0,1-3,.88,4.22,4.22,0,0,1-4-4A3.34,3.34,0,0,1,110.6,224.19Z" fill="none" stroke="#fff" stroke-linecap="round" stroke-linejoin="round" stroke-width="1.96"/>
  <line x1="126.44" y1="220.96" x2="130.86" y2="216.55" fill="none" stroke="#fff" stroke-linecap="round" stroke-linejoin="round" stroke-width="1.47"/>
  <line x1="109.33" y1="227.86" x2="97.75" y2="239.85" fill="none" stroke="#fff" stroke-linecap="round" stroke-linejoin="round" stroke-width="1.47"/>
  <line x1="112.09" y1="231.03" x2="101.67" y2="241.81" fill="none" stroke="#fff" stroke-linecap="round" stroke-linejoin="round" stroke-width="1.47"/>
  <path d="M96.77,237.89s-1.47,5.39,7.85,4.41" fill="none" stroke="#fff" stroke-linecap="round" stroke-linejoin="round" stroke-width="1.47"/>
  <polygon points="134.75 225.62 138.32 222.04 141.18 225 137.71 228.47 134.75 225.62" fill="#fff" stroke="#fff" stroke-linecap="round" stroke-linejoin="round" stroke-width="1.47"/>
  <path d="M141.74,229.26s13.13,16.44,15.85,34.13c7.85,51,33.86,46.65,52,58.37" fill="none" stroke="#fff" stroke-linecap="round" stroke-linejoin="round" stroke-width="1.47"/>
  <path d="M220.13,342.6s-25.83-10.42-4.91-25c21.09-14.72,31.88-15.7,61.31-12.75,0,0,21.58,4.41,18.64,18.14s-34.82,19.13-34.82,19.13S235.33,348,220.13,342.6Z" fill="none" stroke="#fff" stroke-linecap="round" stroke-miterlimit="10" stroke-width="1.96"/>
  <path d="M295.17,323c0,7.36-6.87,26-6.87,26s-1.47,8.34-29.92,13.24-38.25-7.35-38.25-7.35-1.48-1-4.91-7.36-7.85-16.19-7.85-16.19" fill="none" stroke="#fff" stroke-linecap="round" stroke-miterlimit="10" stroke-width="1.96"/>
  <path d="M211.85,341.19s11.71,11.22,41.63,6.32,39.12-13.68,41-19.38" fill="none" stroke="#fff" stroke-linecap="round" stroke-miterlimit="10" stroke-width="1.47"/>
  <ellipse cx="218.16" cy="330.59" rx="5.64" ry="2.45" transform="translate(-90.06 81.83) rotate(-17.67)" fill="none" stroke="#fff" stroke-linecap="round" stroke-miterlimit="10" stroke-width="0.98"/>
  <ellipse cx="283.89" cy="318.32" rx="5.64" ry="2.45" transform="translate(-83.23 101.2) rotate(-17.67)" fill="none" stroke="#fff" stroke-linecap="round" stroke-miterlimit="10" stroke-width="0.98"/>
  <ellipse cx="252.06" cy="325.74" rx="2.07" ry="1.68" transform="translate(-67.08 65.38) rotate(-13.06)" fill="none" stroke="#fff" stroke-linecap="round" stroke-miterlimit="10" stroke-width="0.83"/>
  <polyline points="243.21 328.41 247.07 325.47 244.35 323.62 245.44 330.2 247.29 327.48 242.63 325.36" fill="none" stroke="#fff" stroke-linecap="round" stroke-linejoin="round" stroke-width="0.49"/>
  <g>
    <path d="M245,309.23a6.8,6.8,0,0,0-7.06.8c-3.26,2.64-.31,4.49,0,4.62s2.37,1.33,5.82-.27c0,0,1.83-.71,3.71-3.93l.05-.07,1.11-1.55s.14-.42,1.9-.8a12.31,12.31,0,0,1,3.87-.52,1.67,1.67,0,0,1,1.18,2.3c-.47,1.25-1.6,1.48-5.47,2.17l.45,2.26" fill="none" stroke="#fff" stroke-linecap="round" stroke-miterlimit="10" stroke-width="1.19"/>
    <ellipse cx="235.11" cy="309.39" rx="0.87" ry="0.75" transform="translate(-56.3 52.33) rotate(-11.35)" fill="none" stroke="#fff" stroke-linecap="round" stroke-miterlimit="10" stroke-width="0.56"/>
  </g>
  <g>
    <path d="M239.46,320a.77.77,0,0,1,0,.3,1.42,1.42,0,0,1-.15.34,1.16,1.16,0,0,1-.32.3,1.15,1.15,0,0,1-.48.18,1.5,1.5,0,0,1-.41,0,1,1,0,0,1-.35-.07,1.09,1.09,0,0,1-.31-.18,1.48,1.48,0,0,1-.24-.26,2,2,0,0,1-.18-.32,2.22,2.22,0,0,1-.1-.39,1.57,1.57,0,0,1,0-.61,1.17,1.17,0,0,1,.2-.5,1.06,1.06,0,0,1,.37-.36,1.27,1.27,0,0,1,.5-.19,1.29,1.29,0,0,1,.62,0,1.13,1.13,0,0,1,.46.26.66.66,0,0,1,.21.35.24.24,0,0,1,0,.18.27.27,0,0,1-.15.11.23.23,0,0,1-.17,0,.69.69,0,0,1-.15-.15.81.81,0,0,0-.31-.26.63.63,0,0,0-.39,0,.67.67,0,0,0-.5.36,1.16,1.16,0,0,0-.07.78,1.5,1.5,0,0,0,.18.52.71.71,0,0,0,.32.28.7.7,0,0,0,.41,0,.66.66,0,0,0,.38-.19.72.72,0,0,0,.19-.4.53.53,0,0,1,.06-.19.19.19,0,0,1,.16-.1.24.24,0,0,1,.18,0A.21.21,0,0,1,239.46,320Z" stroke="#fff" stroke-width="0.49"/>
    <path d="M241.83,319.47a1.25,1.25,0,0,1,0,.43.93.93,0,0,1-.15.37,1.07,1.07,0,0,1-.28.28,1.3,1.3,0,0,1-.42.15,1.55,1.55,0,0,1-.43,0,1.17,1.17,0,0,1-.36-.16,1,1,0,0,1-.27-.3,1,1,0,0,1-.14-.41,1.31,1.31,0,0,1,0-.44.93.93,0,0,1,.15-.37.91.91,0,0,1,.28-.27,1.34,1.34,0,0,1,.41-.15,1.09,1.09,0,0,1,.44,0,.9.9,0,0,1,.36.16.84.84,0,0,1,.27.29A1.1,1.1,0,0,1,241.83,319.47Zm-.51.09a.78.78,0,0,0-.23-.47.48.48,0,0,0-.4-.11.43.43,0,0,0-.25.13.44.44,0,0,0-.14.26,1.14,1.14,0,0,0,0,.37,1,1,0,0,0,.13.34.57.57,0,0,0,.21.2.47.47,0,0,0,.29,0,.43.43,0,0,0,.34-.24A.76.76,0,0,0,241.32,319.56Z" stroke="#fff" stroke-width="0.49"/>
    <path d="M244.17,319.05a1.09,1.09,0,0,1,0,.44.85.85,0,0,1-.15.37.9.9,0,0,1-.28.27,1.34,1.34,0,0,1-.41.15,1.09,1.09,0,0,1-.44,0,1,1,0,0,1-.36-.16.94.94,0,0,1-.27-.29,1.43,1.43,0,0,1-.15-.85,1,1,0,0,1,.15-.37.84.84,0,0,1,.29-.27.88.88,0,0,1,.4-.15,1.08,1.08,0,0,1,.44,0,.93.93,0,0,1,.37.15,1.08,1.08,0,0,1,.26.3A1.25,1.25,0,0,1,244.17,319.05Zm-.52.09a.8.8,0,0,0-.22-.46.47.47,0,0,0-.41-.11.45.45,0,0,0-.25.12.6.6,0,0,0-.14.26,1.15,1.15,0,0,0,0,.37,1.11,1.11,0,0,0,.13.35.5.5,0,0,0,.22.19.44.44,0,0,0,.28,0,.46.46,0,0,0,.34-.25A.76.76,0,0,0,243.65,319.14Z" stroke="#fff" stroke-width="0.49"/>
    <path d="M246,319.56l-.59-.67-.23.32.07.41a.31.31,0,0,1,0,.24.27.27,0,0,1-.17.11.23.23,0,0,1-.2,0,.41.41,0,0,1-.11-.23l-.39-2.19a.38.38,0,0,1,0-.27.23.23,0,0,1,.17-.13.23.23,0,0,1,.2.05.36.36,0,0,1,.12.23l.22,1.25.47-.72a1.94,1.94,0,0,1,.14-.18.18.18,0,0,1,.13-.06.17.17,0,0,1,.17,0,.19.19,0,0,1,.09.14.52.52,0,0,1-.16.34l-.22.3.67.73.11.13a.18.18,0,0,1,0,.09.22.22,0,0,1,0,.2.21.21,0,0,1-.16.1.17.17,0,0,1-.16,0Z" stroke="#fff" stroke-width="0.49"/>
    <path d="M247.88,318.31l-.51.09.14.78a.39.39,0,0,1,0,.27.26.26,0,0,1-.19.12.25.25,0,0,1-.22-.05.37.37,0,0,1-.12-.24l-.38-2.13a.36.36,0,0,1,0-.28.39.39,0,0,1,.25-.12l.72-.13a1.94,1.94,0,0,1,.5,0,.8.8,0,0,1,.32.1.69.69,0,0,1,.24.24,1.15,1.15,0,0,1,.13.34.81.81,0,0,1-.15.69A1.18,1.18,0,0,1,247.88,318.31Zm-.36-1.25-.38.07.15.85.38-.07a1.87,1.87,0,0,0,.33-.1.4.4,0,0,0,.17-.17.38.38,0,0,0,0-.26.41.41,0,0,0-.16-.28A.74.74,0,0,0,247.52,317.06Z" stroke="#fff" stroke-width="0.49"/>
    <path d="M250.68,318l-1,.18a.59.59,0,0,0,.13.29.4.4,0,0,0,.22.17.46.46,0,0,0,.26,0,.38.38,0,0,0,.16-.06.42.42,0,0,0,.14-.09l.11-.12.14-.17a.14.14,0,0,1,.1-.06.21.21,0,0,1,.14,0,.16.16,0,0,1,.07.12.29.29,0,0,1,0,.17.6.6,0,0,1-.13.21,1,1,0,0,1-.25.19,1.35,1.35,0,0,1-.37.13,1.08,1.08,0,0,1-.83-.15,1.13,1.13,0,0,1-.41-.72,1.25,1.25,0,0,1,0-.43,1,1,0,0,1,.14-.37.9.9,0,0,1,.28-.27,1.13,1.13,0,0,1,.41-.16,1.07,1.07,0,0,1,.54,0,.91.91,0,0,1,.39.27,1,1,0,0,1,.18.39.28.28,0,0,1-.07.28A.7.7,0,0,1,250.68,318Zm-1.06-.11.93-.17a.58.58,0,0,0-.21-.37.43.43,0,0,0-.35-.07.37.37,0,0,0-.29.19A.66.66,0,0,0,249.62,317.91Z" stroke="#fff" stroke-width="0.49"/>
    <path d="M252.08,318l.08.43a.38.38,0,0,1,0,.25.23.23,0,0,1-.17.11.24.24,0,0,1-.2-.05.35.35,0,0,1-.11-.22l-.26-1.43c0-.23,0-.36.19-.39a.19.19,0,0,1,.2.05.45.45,0,0,1,.11.22,1.13,1.13,0,0,1,.14-.27.4.4,0,0,1,.25-.13.62.62,0,0,1,.33,0,.25.25,0,0,1,.19.19.18.18,0,0,1,0,.16.2.2,0,0,1-.13.09h-.34a.26.26,0,0,0-.17.09.4.4,0,0,0-.08.2,1.33,1.33,0,0,0,0,.29C252,317.66,252.05,317.8,252.08,318Z" stroke="#fff" stroke-width="0.49"/>
    <path d="M253,316.44l.13,0,0-.15a1.1,1.1,0,0,1,0-.4.41.41,0,0,1,.17-.24,1,1,0,0,1,.39-.14c.3-.05.47,0,.49.14a.19.19,0,0,1,0,.13s-.06.07-.1.07h-.24a.2.2,0,0,0-.16.11.52.52,0,0,0,0,.25l0,.12.13,0c.2,0,.3,0,.32.12a.16.16,0,0,1,0,.18.56.56,0,0,1-.21.07l-.12,0,.24,1.36a.33.33,0,0,1,0,.25.25.25,0,0,1-.17.11.23.23,0,0,1-.2,0,.36.36,0,0,1-.11-.22l-.25-1.37-.14,0a.33.33,0,0,1-.18,0,.18.18,0,0,1-.09-.13C252.74,316.55,252.81,316.47,253,316.44Z" stroke="#fff" stroke-width="0.49"/>
    <path d="M255.9,317.09l-1,.18a.86.86,0,0,0,.13.29.47.47,0,0,0,.48.19.48.48,0,0,0,.17-.05.51.51,0,0,0,.13-.09l.12-.12c0-.05.08-.1.13-.17a.17.17,0,0,1,.11-.06.19.19,0,0,1,.13,0,.15.15,0,0,1,.07.12.37.37,0,0,1,0,.17.64.64,0,0,1-.14.21.86.86,0,0,1-.25.19,1,1,0,0,1-.37.12,1.05,1.05,0,0,1-.82-.14,1.1,1.1,0,0,1-.42-.72,1.3,1.3,0,0,1,0-.44,1,1,0,0,1,.13-.37,1.08,1.08,0,0,1,.29-.27,1.25,1.25,0,0,1,.41-.15,1.07,1.07,0,0,1,.54,0,.88.88,0,0,1,.38.27,1,1,0,0,1,.18.39c0,.13,0,.22-.07.27A.71.71,0,0,1,255.9,317.09Zm-1.06-.12.93-.16a.58.58,0,0,0-.21-.37.42.42,0,0,0-.35-.08.46.46,0,0,0-.29.19A.69.69,0,0,0,254.84,317Z" stroke="#fff" stroke-width="0.49"/>
    <path d="M258.66,316.89a.41.41,0,0,1,0,.21.71.71,0,0,1-.13.24,1,1,0,0,1-.27.21,1.18,1.18,0,0,1-.4.14,1,1,0,0,1-.79-.15,1.07,1.07,0,0,1-.4-.7,1.25,1.25,0,0,1,0-.58.88.88,0,0,1,.29-.44,1.17,1.17,0,0,1,.53-.23,1.22,1.22,0,0,1,.38,0,.94.94,0,0,1,.31.1.74.74,0,0,1,.21.17.54.54,0,0,1,.1.18.25.25,0,0,1,0,.17.34.34,0,0,1-.16.1.2.2,0,0,1-.11,0,.41.41,0,0,1-.12-.09,1.12,1.12,0,0,0-.23-.18.51.51,0,0,0-.28,0,.43.43,0,0,0-.33.24.77.77,0,0,0-.06.51.88.88,0,0,0,.09.26.55.55,0,0,0,.14.19.35.35,0,0,0,.19.1.51.51,0,0,0,.47-.11.66.66,0,0,0,.15-.25.6.6,0,0,1,.08-.16.21.21,0,0,1,.3,0A.22.22,0,0,1,258.66,316.89Z" stroke="#fff" stroke-width="0.49"/>
    <path d="M258.88,315.39h.06l-.06-.31c0-.08,0-.15,0-.2a.23.23,0,0,1,0-.12.26.26,0,0,1,.07-.11.33.33,0,0,1,.12-.05.26.26,0,0,1,.19,0,.24.24,0,0,1,.09.11.72.72,0,0,1,.05.2l.06.35.19,0a.27.27,0,0,1,.18,0,.17.17,0,0,1,.08.12.16.16,0,0,1-.06.16.51.51,0,0,1-.22.08l-.1,0,.17.95a1.27,1.27,0,0,0,0,.18.17.17,0,0,0,.06.1.18.18,0,0,0,.13,0l.12,0,.12,0a.18.18,0,0,1,.12,0,.19.19,0,0,1,.07.12.2.2,0,0,1-.1.21.92.92,0,0,1-.38.14.66.66,0,0,1-.38,0,.37.37,0,0,1-.2-.19,2,2,0,0,1-.11-.38l-.18-1h-.06a.21.21,0,0,1-.18,0,.18.18,0,0,1-.09-.12.26.26,0,0,1,0-.15A.27.27,0,0,1,258.88,315.39Z" stroke="#fff" stroke-width="0.49"/>
  </g>
  <path d="M348.14,210.17l65.73,115.76s5.88,11.77,21.58,10.3S484,331.81,484,331.81s10.3-1.47,5.39-9.32-72.59-121.15-72.59-121.15-3.92-8.33-25-6.37-40.22,3.92-40.22,3.92S341.28,198.4,348.14,210.17Z" fill="none" stroke="#fff" stroke-linecap="round" stroke-linejoin="round" stroke-width="1.96"/>
  <path d="M491,327c1.86,4.2-.35,7.11-2.84,8.9a13.85,13.85,0,0,1-7,2.53c-8,.69-34.2,3-48.63,4.2-17.17,1.47-22.08-10.3-22.08-10.3l-43.65-77.49L343.39,214.1a12.55,12.55,0,0,1-1.73-7,8.94,8.94,0,0,1,6-7.26" fill="none" stroke="#fff" stroke-linecap="round" stroke-linejoin="round" stroke-width="1.96"/>
  <line x1="375.61" y1="203.31" x2="386.89" y2="202.33" fill="none" stroke="#fff" stroke-linecap="round" stroke-linejoin="round" stroke-width="1.96"/>
  <ellipse cx="452.92" cy="325.6" rx="4.96" ry="6.31" transform="matrix(0.65, -0.76, 0.76, 0.65, -89.77, 454.62)" stroke-width="1.34" stroke="#fff" stroke-linecap="round" stroke-linejoin="round" fill="none"/>
  <path d="M366,252.11s2.95.49-1.47-6.87l-8.83-14.71s-1-2.45-2.94-1" fill="none" stroke="#fff" stroke-linecap="round" stroke-linejoin="round" stroke-width="1.34"/>
  <path d="M358.27,240.41s2.42-.87.93-4.15" fill="none" stroke="#fff" stroke-linecap="round" stroke-linejoin="round" stroke-width="1.23"/>
  <path d="M359.67,241.32a4.38,4.38,0,0,1,3.92,2.45" fill="none" stroke="#fff" stroke-linecap="round" stroke-linejoin="round" stroke-width="1.23"/>
  <path d="M349.37,223.66c2-.49,1-2.45,1-2.45l-2.16-3.46a1.2,1.2,0,0,0-1.19-.57c-.45.08-.92.42-1,1.46" fill="none" stroke="#fff" stroke-linecap="round" stroke-linejoin="round" stroke-width="1.23"/>
  <polygon points="353.54 213.61 418.28 208.7 481.55 314.15 413.87 320.53 353.54 213.61" fill="none" stroke="#fff" stroke-linecap="round" stroke-linejoin="round" stroke-width="0.98"/>
  <ellipse cx="414.67" cy="258.71" rx="21.35" ry="27.18" transform="translate(-52.41 402.63) rotate(-49.09)" stroke-width="0.98" stroke="#fff" stroke-linecap="round" stroke-linejoin="round" fill="none"/>
  <path d="M403.81,262.9s12.26,4.9,17.17,9.32c0,0-5.4-19.13-.49-28.45" fill="none" stroke="#fff" stroke-linecap="round" stroke-linejoin="round" stroke-width="1.47"/>
  <path d="M278.59,300.82s3.12-7.2,8.54-8.59" fill="none" stroke="#fff" stroke-linecap="round" stroke-linejoin="round" stroke-width="1.47"/>
  <path d="M292.93,289.94s6.53-5.19,13.47-2.72" fill="none" stroke="#fff" stroke-linecap="round" stroke-linejoin="round" stroke-width="1.47"/>
  <path d="M312.58,287.77s7.46,3.76,12,3.07" fill="none" stroke="#fff" stroke-linecap="round" stroke-linejoin="round" stroke-width="1.47"/>
  <path d="M330.23,289a16.89,16.89,0,0,0,8-6.15" fill="none" stroke="#fff" stroke-linecap="round" stroke-linejoin="round" stroke-width="1.47"/>
  <g>
    <path d="M171.47,54l-2,.36,4.54,15.34.32,1.41h.1l.3-1.37,4.55-15.38L177.39,54V50.94h9.35V54l-2.14.29-7.54,22.21h-5.28l-7.56-22.21L162.11,54V50.94h9.36Z" fill="#fff"/>
    <path d="M188.27,73.46l2.48-.53V61.14L188,60.61V57.52h7.87V72.93l2.46.53v3.07H188.27ZM195.88,53h-5.13V49.11h5.13Z" fill="#fff"/>
    <path d="M212.41,74.21a6.41,6.41,0,0,1-2.12,2,5.6,5.6,0,0,1-2.79.68A6.46,6.46,0,0,1,202,74.34a11,11,0,0,1-1.94-6.79v-.37a12.32,12.32,0,0,1,2-7.26,6.33,6.33,0,0,1,5.49-2.76,5.19,5.19,0,0,1,2.56.63,6.3,6.3,0,0,1,2,1.76V52.73l-2.75-.52v-3.1h7.88V72.93l2.46.53v3.07h-6.91Zm-7.18-6.66a7.75,7.75,0,0,0,.84,3.93,2.9,2.9,0,0,0,2.73,1.43,4,4,0,0,0,1.95-.45,3.81,3.81,0,0,0,1.36-1.32V63.07a4,4,0,0,0-1.35-1.42,3.61,3.61,0,0,0-1.92-.5,2.89,2.89,0,0,0-2.75,1.67,9.61,9.61,0,0,0-.86,4.36Z" fill="#fff"/>
    <path d="M236.86,64.05h-3.45l-.54-2.37a4.76,4.76,0,0,0-1.33-.7,5.22,5.22,0,0,0-1.77-.28,3.46,3.46,0,0,0-2.14.6,1.84,1.84,0,0,0-.79,1.52,1.74,1.74,0,0,0,.75,1.44,8.27,8.27,0,0,0,3,1,12.26,12.26,0,0,1,5.23,2.06,4.54,4.54,0,0,1,1.71,3.76,5,5,0,0,1-2.21,4.19,9.57,9.57,0,0,1-5.81,1.62,12.08,12.08,0,0,1-4-.64,10.53,10.53,0,0,1-3.26-1.83l-.05-4.28h3.58l.71,2.48a2.86,2.86,0,0,0,1.24.57,6.92,6.92,0,0,0,1.66.19,4.25,4.25,0,0,0,2.38-.56,1.78,1.78,0,0,0,0-3,8.35,8.35,0,0,0-3-1.09,12.29,12.29,0,0,1-5.07-2,4.4,4.4,0,0,1-1.72-3.67,5.32,5.32,0,0,1,2-4.12,8.24,8.24,0,0,1,5.61-1.73,14.34,14.34,0,0,1,4.19.6,8.54,8.54,0,0,1,3.1,1.53Z" fill="#fff"/>
    <path d="M247.44,52.86v4.66h3.34v3.6h-3.34V70.8a2.24,2.24,0,0,0,.46,1.59,1.63,1.63,0,0,0,1.23.47,8.31,8.31,0,0,0,.92,0c.26,0,.56-.08.89-.15l.44,3.71a14,14,0,0,1-1.71.39,11.58,11.58,0,0,1-1.83.13,5.42,5.42,0,0,1-4.08-1.46,6.36,6.36,0,0,1-1.44-4.62v-9.7h-2.79v-3.6h2.79V52.86Z" fill="#fff"/>
    <path d="M262.4,76.9a8.6,8.6,0,0,1-6.58-2.63,9.44,9.44,0,0,1-2.46-6.7v-.7a10.42,10.42,0,0,1,2.33-7,8.68,8.68,0,0,1,12.23-.41A9,9,0,0,1,270,65.76v2.79H258.69l0,.11a5,5,0,0,0,1.26,3.09,3.92,3.92,0,0,0,3,1.22,9.78,9.78,0,0,0,2.83-.35,12.58,12.58,0,0,0,2.46-1.08l1.39,3.17a10,10,0,0,1-3.05,1.56A13,13,0,0,1,262.4,76.9Zm-.46-15.78a2.66,2.66,0,0,0-2.25,1.09,5.7,5.7,0,0,0-1,2.86l.05.09H265V64.7a4.12,4.12,0,0,0-.77-2.61A2.75,2.75,0,0,0,261.94,61.12Z" fill="#fff"/>
    <path d="M293.67,74.21a6.32,6.32,0,0,1-2.12,2,5.55,5.55,0,0,1-2.79.68,6.43,6.43,0,0,1-5.45-2.56,11,11,0,0,1-1.95-6.79v-.37a12.25,12.25,0,0,1,2-7.26,6.32,6.32,0,0,1,5.48-2.76,5.26,5.26,0,0,1,2.57.63,6.16,6.16,0,0,1,2,1.76V52.73l-2.74-.52v-3.1h7.87V72.93l2.46.53v3.07h-6.9Zm-7.17-6.66a7.87,7.87,0,0,0,.83,3.93,2.92,2.92,0,0,0,2.74,1.43,4,4,0,0,0,1.95-.45,3.71,3.71,0,0,0,1.35-1.32V63.07A4,4,0,0,0,292,61.65a3.67,3.67,0,0,0-1.93-.5,2.88,2.88,0,0,0-2.74,1.67,9.48,9.48,0,0,0-.86,4.36Z" fill="#fff"/>
    <path d="M315.91,74.13a6.19,6.19,0,0,1-5.33,2.77A6,6,0,0,1,305.87,75q-1.71-1.92-1.71-6V61.14l-2.09-.53V57.52h7.23V69a5,5,0,0,0,.69,3,2.44,2.44,0,0,0,2.07.9,5.25,5.25,0,0,0,2.1-.39,3.71,3.71,0,0,0,1.45-1.14V61.14l-2.25-.53V57.52h7.38V72.93l2.3.53v3.07h-6.8Z" fill="#fff"/>
    <path d="M331.34,76.53h-5.12V72h5.12Z" fill="#fff"/>
    <path d="M340.51,76.53H335.4V72h5.11Z" fill="#fff"/>
    <path d="M349.69,76.53h-5.11V72h5.11Z" fill="#fff"/>
    <path d="M106.21,103.53A5.37,5.37,0,0,1,106,103c-.06-.2-.11-.4-.15-.59a4,4,0,0,1-1.29,1,3.92,3.92,0,0,1-1.75.38,3.67,3.67,0,0,1-2.59-.89,3.11,3.11,0,0,1-1-2.41A2.76,2.76,0,0,1,100.51,98a6.53,6.53,0,0,1,3.67-.85h1.53V96.1a1.62,1.62,0,0,0-.46-1.24,1.92,1.92,0,0,0-1.36-.44,3.21,3.21,0,0,0-.92.12,2.4,2.4,0,0,0-.64.28l-.2,1.19H99.88V93.55a8.46,8.46,0,0,1,1.88-.94,6.91,6.91,0,0,1,2.31-.38,5.28,5.28,0,0,1,3.35,1,3.46,3.46,0,0,1,1.29,2.88v5.07a3,3,0,0,0,0,.43l.91.12v1.79Zm-2.59-2a2.54,2.54,0,0,0,1.23-.3,2.31,2.31,0,0,0,.86-.73V98.82h-1.53a2.12,2.12,0,0,0-1.44.44,1.4,1.4,0,0,0-.49,1.08,1.12,1.12,0,0,0,.36.88A1.49,1.49,0,0,0,103.62,101.54Z" fill="#fff"/>
    <path d="M114.28,89.72v2.72h2v2.1h-2v5.65a1.28,1.28,0,0,0,.27.92.94.94,0,0,0,.72.28l.54,0,.51-.09.26,2.16a7.42,7.42,0,0,1-1,.23,7.16,7.16,0,0,1-1.07.08,3.16,3.16,0,0,1-2.38-.85,3.73,3.73,0,0,1-.84-2.7V94.54h-1.63v-2.1h1.63V89.72Z" fill="#fff"/>
    <path d="M130.07,102.18a3.81,3.81,0,0,1-1.24,1.17,3.26,3.26,0,0,1-1.63.4,3.77,3.77,0,0,1-3.18-1.5,6.35,6.35,0,0,1-1.13-4v-.21A7.21,7.21,0,0,1,124,93.84a3.68,3.68,0,0,1,3.19-1.61,3.09,3.09,0,0,1,1.5.37,3.57,3.57,0,0,1,1.17,1v-4l-1.6-.31v-1.8h4.59v13.89l1.44.31v1.79h-4Zm-4.19-3.89a4.52,4.52,0,0,0,.49,2.3,1.7,1.7,0,0,0,1.59.83,2.4,2.4,0,0,0,1.14-.26,2.16,2.16,0,0,0,.79-.77V95.68a2.31,2.31,0,0,0-.78-.83,2.18,2.18,0,0,0-1.13-.29,1.69,1.69,0,0,0-1.6,1,5.6,5.6,0,0,0-.5,2.54Z" fill="#fff"/>
    <path d="M143,102.13a3.77,3.77,0,0,1-1.32,1.2,3.73,3.73,0,0,1-1.79.42,3.47,3.47,0,0,1-2.75-1.12,5.19,5.19,0,0,1-1-3.49V94.55L135,94.24v-1.8h4.21v6.72a2.87,2.87,0,0,0,.41,1.73,1.4,1.4,0,0,0,1.2.53,2.94,2.94,0,0,0,1.23-.23,2.1,2.1,0,0,0,.84-.66v-6l-1.31-.31v-1.8h4.31v9l1.34.31v1.79h-4Z" fill="#fff"/>
    <path d="M162.58,96.25h-2l-.32-1.38a2.65,2.65,0,0,0-.77-.41,3.09,3.09,0,0,0-1-.16,2,2,0,0,0-1.25.35,1.07,1.07,0,0,0-.46.89,1,1,0,0,0,.44.83,4.7,4.7,0,0,0,1.76.59A7.34,7.34,0,0,1,162,98.17a2.65,2.65,0,0,1,1,2.19,2.91,2.91,0,0,1-1.29,2.44,5.56,5.56,0,0,1-3.39,1,7.37,7.37,0,0,1-2.35-.37,5.94,5.94,0,0,1-1.9-1.08l0-2.49h2.09l.41,1.45a1.71,1.71,0,0,0,.73.33,4.35,4.35,0,0,0,1,.11,2.44,2.44,0,0,0,1.39-.33,1,1,0,0,0,0-1.74,5,5,0,0,0-1.78-.64,7.13,7.13,0,0,1-3-1.18,2.61,2.61,0,0,1-1-2.14,3.11,3.11,0,0,1,1.15-2.4,4.78,4.78,0,0,1,3.27-1,8.48,8.48,0,0,1,2.45.34,5.18,5.18,0,0,1,1.81.9Z" fill="#fff"/>
    <path d="M164,89.34v-1.8h4.59v13.89l1.44.31v1.79h-5.88v-1.79l1.45-.31V89.65Z" fill="#fff"/>
    <path d="M176.34,103.75a5,5,0,0,1-3.83-1.54,5.48,5.48,0,0,1-1.44-3.9V97.9a6.07,6.07,0,0,1,1.36-4.08,5.05,5.05,0,0,1,7.13-.23,5.19,5.19,0,0,1,1.24,3.66v1.63h-6.62l0,.06a2.93,2.93,0,0,0,.73,1.81,2.28,2.28,0,0,0,1.77.7,5.55,5.55,0,0,0,1.65-.2,7.12,7.12,0,0,0,1.43-.63l.81,1.85a6,6,0,0,1-1.77.91A7.49,7.49,0,0,1,176.34,103.75Zm-.27-9.21a1.55,1.55,0,0,0-1.31.64,3.26,3.26,0,0,0-.59,1.67l0,.05h3.67v-.27a2.39,2.39,0,0,0-.45-1.52A1.62,1.62,0,0,0,176.07,94.54Z" fill="#fff"/>
    <path d="M186.64,89.72v2.72h1.94v2.1h-1.94v5.65a1.28,1.28,0,0,0,.26.92.94.94,0,0,0,.72.28l.54,0,.52-.09.25,2.16a7.08,7.08,0,0,1-1,.23,7.16,7.16,0,0,1-1.07.08,3.16,3.16,0,0,1-2.38-.85,3.73,3.73,0,0,1-.84-2.7V94.54H182v-2.1h1.63V89.72Z" fill="#fff"/>
    <path d="M195.11,101.74l1.44-.31V94.55l-1.6-.31v-1.8h4.6v9l1.43.31v1.79h-5.87Zm4.44-12h-3V87.54h3Z" fill="#fff"/>
    <path d="M201.65,89.34v-1.8h4.58v9.27h.67l1.72-2.43-1-.14v-1.8h5.45v1.8l-1.31.3-2,2.75,2.8,4.21,1.14.24v1.79H208.6v-1.79l.61-.1-1.7-2.75h-1.28v2.54l1.29.31v1.79H201.8v-1.79l1.45-.31V89.65Z" fill="#fff"/>
    <path d="M214.46,89.34v-1.8H219v9.27h.67l1.72-2.43-1-.14v-1.8h5.46v1.8l-1.31.3-2,2.75,2.8,4.21,1.13.24v1.79h-5.12v-1.79l.61-.1-1.7-2.75H219v2.54l1.29.31v1.79h-5.72v-1.79l1.44-.31V89.65Z" fill="#fff"/>
    <path d="M232.69,103.75a5,5,0,0,1-3.84-1.54,5.47,5.47,0,0,1-1.43-3.9V97.9a6.12,6.12,0,0,1,1.35-4.08,4.56,4.56,0,0,1,3.65-1.59,4.51,4.51,0,0,1,3.49,1.36,5.23,5.23,0,0,1,1.24,3.66v1.63h-6.63l0,.06a2.94,2.94,0,0,0,.74,1.81,2.27,2.27,0,0,0,1.76.7,5.46,5.46,0,0,0,1.65-.2,7.18,7.18,0,0,0,1.44-.63l.81,1.85a6,6,0,0,1-1.78.91A7.47,7.47,0,0,1,232.69,103.75Zm-.27-9.21a1.55,1.55,0,0,0-1.31.64,3.35,3.35,0,0,0-.6,1.67l0,.05h3.67v-.27a2.39,2.39,0,0,0-.44-1.52A1.62,1.62,0,0,0,232.42,94.54Z" fill="#fff"/>
    <path d="M254.43,98.29a6.47,6.47,0,0,1-1.1,4,3.76,3.76,0,0,1-3.2,1.49,3.49,3.49,0,0,1-1.69-.4,3.41,3.41,0,0,1-1.21-1.18l-.22,1.36h-2.58V89.65l-1.59-.31v-1.8h4.57v6.08a3.4,3.4,0,0,1,1.15-1,3.25,3.25,0,0,1,1.55-.36,3.69,3.69,0,0,1,3.22,1.6,7.3,7.3,0,0,1,1.1,4.25Zm-3-.21a5.74,5.74,0,0,0-.48-2.57,1.67,1.67,0,0,0-1.62-1,2.27,2.27,0,0,0-1.18.29,2.14,2.14,0,0,0-.76.84v4.69a2,2,0,0,0,.76.78,2.59,2.59,0,0,0,1.2.26,1.71,1.71,0,0,0,1.62-.81,4.77,4.77,0,0,0,.46-2.32Z" fill="#fff"/>
    <path d="M261.13,103.75a5,5,0,0,1-3.83-1.54,5.48,5.48,0,0,1-1.44-3.9V97.9a6.07,6.07,0,0,1,1.36-4.08,5.05,5.05,0,0,1,7.13-.23,5.19,5.19,0,0,1,1.24,3.66v1.63H259l0,.06a2.93,2.93,0,0,0,.73,1.81,2.28,2.28,0,0,0,1.77.7,5.55,5.55,0,0,0,1.65-.2,7.18,7.18,0,0,0,1.44-.63l.81,1.85a6.17,6.17,0,0,1-1.78.91A7.49,7.49,0,0,1,261.13,103.75Zm-.26-9.21a1.55,1.55,0,0,0-1.32.64,3.26,3.26,0,0,0-.59,1.67l0,.05h3.67v-.27a2.39,2.39,0,0,0-.45-1.52A1.58,1.58,0,0,0,260.87,94.54Z" fill="#fff"/>
    <path d="M266.84,101.74l1.45-.31V89.65l-1.6-.31v-1.8h4.58v6.31a3.81,3.81,0,0,1,1.28-1.19,3.45,3.45,0,0,1,1.69-.43A3.41,3.41,0,0,1,277,93.39,5.38,5.38,0,0,1,278,97v4.48l1.43.31v1.79h-5.72v-1.79l1.29-.31v-4.5a2.89,2.89,0,0,0-.45-1.83,1.69,1.69,0,0,0-1.36-.54,2.47,2.47,0,0,0-1.09.23,2.21,2.21,0,0,0-.79.63v6l1.29.31v1.79h-5.72Z" fill="#fff"/>
    <path d="M280.49,97.88a5.92,5.92,0,0,1,1.39-4.06,4.84,4.84,0,0,1,3.84-1.59,6.3,6.3,0,0,1,.89.07c.29,0,.57.11.85.18l.69-1.4h1.66l-1,2.06a4.77,4.77,0,0,1,1.59,2,6.72,6.72,0,0,1,.56,2.77v.22a5.92,5.92,0,0,1-1.39,4.08,4.84,4.84,0,0,1-3.83,1.57,6.72,6.72,0,0,1-1-.08,6.8,6.8,0,0,1-.94-.24L283,105h-1.66l1.11-2.27a4.68,4.68,0,0,1-1.47-1.93,6.92,6.92,0,0,1-.5-2.68Zm3,.22a8.33,8.33,0,0,0,.06,1,3.6,3.6,0,0,0,.21.79h.05l2.6-5.3-.34-.07a2.07,2.07,0,0,0-.35,0,1.8,1.8,0,0,0-1.7.94,4.74,4.74,0,0,0-.53,2.4Zm4.49-.22a6.31,6.31,0,0,0-.11-1.18,3,3,0,0,0-.29-.92h-.07l-2.68,5.49a1.65,1.65,0,0,0,.41.14,2.67,2.67,0,0,0,.5,0,1.82,1.82,0,0,0,1.7-.92A4.78,4.78,0,0,0,288,98.1Z" fill="#fff"/>
    <path d="M297.14,94.24l-1,.2,1.46,5,.2,1h.06l.22-1,1.44-5-1.06-.21v-1.8h5v1.8l-1,.16-3.28,9.13h-2.86l-3.28-9.13-1-.16v-1.8h5Z" fill="#fff"/>
    <path d="M309.58,103.75a5,5,0,0,1-3.83-1.54,5.48,5.48,0,0,1-1.44-3.9V97.9a6.07,6.07,0,0,1,1.36-4.08,4.56,4.56,0,0,1,3.65-1.59,4.5,4.5,0,0,1,3.48,1.36A5.19,5.19,0,0,1,314,97.25v1.63h-6.62l0,.06a2.93,2.93,0,0,0,.73,1.81,2.31,2.31,0,0,0,1.77.7,5.55,5.55,0,0,0,1.65-.2,7.18,7.18,0,0,0,1.44-.63l.81,1.85a6,6,0,0,1-1.78.91A7.49,7.49,0,0,1,309.58,103.75Zm-.26-9.21a1.55,1.55,0,0,0-1.32.64,3.26,3.26,0,0,0-.59,1.67l0,.05h3.67v-.27a2.39,2.39,0,0,0-.45-1.52A1.58,1.58,0,0,0,309.32,94.54Z" fill="#fff"/>
    <path d="M315.68,101.74l1.44-.31V94.55l-1.59-.31v-1.8h4.38l.13,1.62a3.52,3.52,0,0,1,1-1.34,2.25,2.25,0,0,1,1.42-.49,4.57,4.57,0,0,1,.5,0,2.26,2.26,0,0,1,.44.09l-.32,2.73-1.23,0a2.12,2.12,0,0,0-1.09.26,1.62,1.62,0,0,0-.66.73v5.39l1.44.31v1.79h-5.87Z" fill="#fff"/>
    <path d="M336.51,103.53c-.08-.18-.15-.37-.22-.56a4.56,4.56,0,0,1-.14-.59,4.12,4.12,0,0,1-1.3,1,3.9,3.9,0,0,1-1.74.38,3.67,3.67,0,0,1-2.59-.89,3.11,3.11,0,0,1-1-2.41A2.73,2.73,0,0,1,330.81,98a6.51,6.51,0,0,1,3.67-.85H336V96.1a1.66,1.66,0,0,0-.46-1.24,1.94,1.94,0,0,0-1.37-.44,3.18,3.18,0,0,0-.91.12,2.48,2.48,0,0,0-.65.28L332.43,96h-2.26V93.55a8.92,8.92,0,0,1,1.88-.94,6.93,6.93,0,0,1,2.32-.38,5.25,5.25,0,0,1,3.34,1A3.46,3.46,0,0,1,339,96.12v4.58c0,.18,0,.34,0,.49a3,3,0,0,0,0,.43l.91.12v1.79Zm-2.59-2a2.54,2.54,0,0,0,1.23-.3,2.39,2.39,0,0,0,.86-.73V98.82h-1.53a2.13,2.13,0,0,0-1.45.44,1.44,1.44,0,0,0-.49,1.08,1.09,1.09,0,0,0,.37.88A1.47,1.47,0,0,0,333.92,101.54Z" fill="#fff"/>
    <path d="M344.58,89.72v2.72h1.95v2.1h-1.95v5.65a1.28,1.28,0,0,0,.27.92.91.91,0,0,0,.71.28l.54,0,.52-.09.26,2.16a7.56,7.56,0,0,1-1,.23,7.06,7.06,0,0,1-1.07.08,3.18,3.18,0,0,1-2.38-.85,3.73,3.73,0,0,1-.83-2.7V94.54H340v-2.1h1.64V89.72Z" fill="#fff"/>
    <path d="M357.85,94.24l-1.05.2,1.47,5,.19,1h.06l.22-1,1.44-5-1.06-.21v-1.8h5v1.8l-1,.16-3.27,9.13h-2.86l-3.28-9.13-1-.16v-1.8h5Z" fill="#fff"/>
    <path d="M377.51,103.75a6.19,6.19,0,0,1-2.35-.42,4.4,4.4,0,0,1-1.72-1.19,4.67,4.67,0,0,1-1.65,1.15,6,6,0,0,1-2.47.46,4.51,4.51,0,0,1-3-.93,3.19,3.19,0,0,1-1.07-2.54,2.86,2.86,0,0,1,1.3-2.51,6.76,6.76,0,0,1,3.8-.88h1.85v-.6a1.85,1.85,0,0,0-.42-1.28,1.51,1.51,0,0,0-1.18-.47,2,2,0,0,0-1.3.39,1.18,1.18,0,0,0-.47,1l-2.9-.19,0-.06a2.73,2.73,0,0,1,1.24-2.44,5.74,5.74,0,0,1,3.48-1,6,6,0,0,1,1.91.29,4.36,4.36,0,0,1,1.47.81,4.41,4.41,0,0,1,1.46-.81,5.65,5.65,0,0,1,1.85-.29,4.39,4.39,0,0,1,3.41,1.36,5.2,5.2,0,0,1,1.24,3.67v1.62h-6.66l0,.06a2.74,2.74,0,0,0,.67,1.83,2.48,2.48,0,0,0,1.91.68,5.43,5.43,0,0,0,1.58-.2,10.22,10.22,0,0,0,1.44-.63l.79,1.89a6.12,6.12,0,0,1-1.74.87A7.58,7.58,0,0,1,377.51,103.75Zm-7.61-2.11a2.86,2.86,0,0,0,1.24-.32,3,3,0,0,0,1-.74v-1.8h-1.83a2.45,2.45,0,0,0-1.57.45,1.36,1.36,0,0,0-.56,1.1,1.17,1.17,0,0,0,.43,1A1.91,1.91,0,0,0,369.9,101.64Zm7.38-7.1a1.72,1.72,0,0,0-1.46.63,3.13,3.13,0,0,0-.55,1.71l0,.05H379v-.29a2.46,2.46,0,0,0-.43-1.53A1.53,1.53,0,0,0,377.28,94.54Z" fill="#fff"/>
    <path d="M383.62,101.74l1.44-.31V94.55l-1.59-.31v-1.8h4.38l.13,1.62a3.52,3.52,0,0,1,1-1.34,2.25,2.25,0,0,1,1.42-.49,4.38,4.38,0,0,1,.5,0,2.26,2.26,0,0,1,.44.09L391,95.09l-1.23,0a2.12,2.12,0,0,0-1.09.26,1.67,1.67,0,0,0-.66.73v5.39l1.44.31v1.79h-5.87Z" fill="#fff"/>
    <path d="M397.35,103.75a5,5,0,0,1-3.83-1.54,5.48,5.48,0,0,1-1.44-3.9V97.9a6.13,6.13,0,0,1,1.36-4.08,5.07,5.07,0,0,1,7.14-.23,5.23,5.23,0,0,1,1.24,3.66v1.63h-6.63l0,.06a3,3,0,0,0,.73,1.81,2.31,2.31,0,0,0,1.77.7,5.46,5.46,0,0,0,1.65-.2,7.18,7.18,0,0,0,1.44-.63l.81,1.85a6,6,0,0,1-1.78.91A7.49,7.49,0,0,1,397.35,103.75Zm-.26-9.21a1.53,1.53,0,0,0-1.31.64,3.26,3.26,0,0,0-.6,1.67l0,.05h3.67v-.27a2.45,2.45,0,0,0-.44-1.52A1.62,1.62,0,0,0,397.09,94.54Z" fill="#fff"/>
    <path d="M408.29,101.74l1.44-.31V94.55l-1.6-.31v-1.8h4.6v9l1.43.31v1.79h-5.87Zm4.44-12h-3V87.54h3Z" fill="#fff"/>
    <path d="M105.92,128.74l1.44-.31v-6.88l-1.59-.31v-1.8h4.38l.13,1.59a4,4,0,0,1,1.36-1.32,3.51,3.51,0,0,1,1.82-.48,3.35,3.35,0,0,1,2.62,1.06,4.88,4.88,0,0,1,1,3.31v4.83l1.43.31v1.79h-5.72v-1.79l1.28-.31v-4.82a2.24,2.24,0,0,0-.45-1.58,1.81,1.81,0,0,0-1.36-.47,2.34,2.34,0,0,0-1.07.24,2.17,2.17,0,0,0-.79.69v5.94l1.21.31v1.79h-5.64Z" fill="#fff"/>
    <path d="M131.82,130.75a6.19,6.19,0,0,1-2.35-.42,4.4,4.4,0,0,1-1.72-1.19,4.67,4.67,0,0,1-1.65,1.15,6,6,0,0,1-2.47.46,4.49,4.49,0,0,1-3-.93,3.19,3.19,0,0,1-1.07-2.54,2.86,2.86,0,0,1,1.3-2.51,6.74,6.74,0,0,1,3.79-.88h1.86v-.6a1.85,1.85,0,0,0-.42-1.28,1.51,1.51,0,0,0-1.18-.47,2,2,0,0,0-1.3.39,1.16,1.16,0,0,0-.47,1l-2.9-.19,0-.06a2.76,2.76,0,0,1,1.25-2.44,5.74,5.74,0,0,1,3.48-1,6.07,6.07,0,0,1,1.91.29,4.36,4.36,0,0,1,1.47.81,4.41,4.41,0,0,1,1.46-.81,5.65,5.65,0,0,1,1.85-.29,4.41,4.41,0,0,1,3.41,1.36,5.2,5.2,0,0,1,1.24,3.67v1.62h-6.66l0,.06a2.69,2.69,0,0,0,.67,1.83,2.48,2.48,0,0,0,1.91.68,5.43,5.43,0,0,0,1.58-.2,10.22,10.22,0,0,0,1.44-.63l.79,1.89a6.12,6.12,0,0,1-1.74.87A7.63,7.63,0,0,1,131.82,130.75Zm-7.62-2.11a2.9,2.9,0,0,0,1.25-.32,3,3,0,0,0,1-.74v-1.8h-1.84a2.42,2.42,0,0,0-1.56.45,1.36,1.36,0,0,0-.56,1.1,1.15,1.15,0,0,0,.43,1A1.89,1.89,0,0,0,124.2,128.64Zm7.39-7.1a1.72,1.72,0,0,0-1.46.63,3,3,0,0,0-.55,1.71l0,.05h3.71v-.29a2.46,2.46,0,0,0-.44-1.53A1.51,1.51,0,0,0,131.59,121.54Z" fill="#fff"/>
    <path d="M137.93,128.74l1.44-.31v-6.88l-1.59-.31v-1.8h4.38l.13,1.62a3.52,3.52,0,0,1,1-1.34,2.25,2.25,0,0,1,1.42-.49,4.57,4.57,0,0,1,.5,0,2.26,2.26,0,0,1,.44.09l-.32,2.73-1.23,0a2.12,2.12,0,0,0-1.09.26,1.62,1.62,0,0,0-.66.73v5.39l1.44.31v1.79h-5.87Z" fill="#fff"/>
    <path d="M145.87,128.74l1.45-.31V116.65l-1.6-.31v-1.8h4.58v6.31a3.81,3.81,0,0,1,1.28-1.19,3.7,3.7,0,0,1,4.42.73,5.38,5.38,0,0,1,1,3.56v4.48l1.43.31v1.79H152.7v-1.79l1.29-.31v-4.5a2.89,2.89,0,0,0-.45-1.83,1.69,1.69,0,0,0-1.36-.54,2.54,2.54,0,0,0-1.1.23,2.17,2.17,0,0,0-.78.63v6l1.29.31v1.79h-5.72Z" fill="#fff"/>
    <path d="M164.59,130.75a5,5,0,0,1-3.83-1.54,5.48,5.48,0,0,1-1.44-3.9v-.41a6.13,6.13,0,0,1,1.36-4.08,4.56,4.56,0,0,1,3.65-1.59,4.49,4.49,0,0,1,3.48,1.36,5.19,5.19,0,0,1,1.24,3.66v1.63h-6.62l0,.06a2.93,2.93,0,0,0,.73,1.81,2.31,2.31,0,0,0,1.77.7,5.51,5.51,0,0,0,1.65-.2,7.18,7.18,0,0,0,1.44-.63l.81,1.85a6,6,0,0,1-1.78.91A7.49,7.49,0,0,1,164.59,130.75Zm-.26-9.21a1.53,1.53,0,0,0-1.31.64,3.26,3.26,0,0,0-.6,1.67l0,.05h3.67v-.27a2.45,2.45,0,0,0-.44-1.52A1.62,1.62,0,0,0,164.33,121.54Z" fill="#fff"/>
    <path d="M177.69,129.18a3.72,3.72,0,0,1-1.24,1.17,3.19,3.19,0,0,1-1.62.4,3.77,3.77,0,0,1-3.19-1.5,6.42,6.42,0,0,1-1.13-4v-.21a7.21,7.21,0,0,1,1.14-4.24,3.7,3.7,0,0,1,3.2-1.61,3.14,3.14,0,0,1,1.5.37,3.64,3.64,0,0,1,1.16,1v-4l-1.59-.31v-1.8h4.59v13.89l1.43.31v1.79h-4Zm-4.18-3.89a4.63,4.63,0,0,0,.48,2.3,1.72,1.72,0,0,0,1.6.83,2.39,2.39,0,0,0,1.13-.26,2.08,2.08,0,0,0,.79-.77v-4.71a2.23,2.23,0,0,0-.78-.83,2.15,2.15,0,0,0-1.12-.29,1.68,1.68,0,0,0-1.6,1,5.47,5.47,0,0,0-.5,2.54Z" fill="#fff"/>
    <path d="M188.21,130.75a5,5,0,0,1-3.83-1.54,5.48,5.48,0,0,1-1.44-3.9v-.41a6.07,6.07,0,0,1,1.36-4.08,5.05,5.05,0,0,1,7.13-.23,5.19,5.19,0,0,1,1.24,3.66v1.63h-6.62l0,.06a2.87,2.87,0,0,0,.73,1.81,2.28,2.28,0,0,0,1.77.7,5.55,5.55,0,0,0,1.65-.2,7.12,7.12,0,0,0,1.43-.63l.81,1.85a5.92,5.92,0,0,1-1.78.91A7.42,7.42,0,0,1,188.21,130.75Zm-.27-9.21a1.55,1.55,0,0,0-1.31.64,3.26,3.26,0,0,0-.59,1.67l0,.05h3.67v-.27a2.39,2.39,0,0,0-.45-1.52A1.62,1.62,0,0,0,187.94,121.54Z" fill="#fff"/>
    <path d="M193.92,128.74l1.44-.31v-6.88l-1.59-.31v-1.8h4.38l.13,1.59a4,4,0,0,1,1.36-1.32,3.51,3.51,0,0,1,1.82-.48,3.35,3.35,0,0,1,2.62,1.06,4.88,4.88,0,0,1,.95,3.31v4.83l1.43.31v1.79h-5.72v-1.79l1.28-.31v-4.82a2.24,2.24,0,0,0-.45-1.58,1.81,1.81,0,0,0-1.36-.47,2.34,2.34,0,0,0-1.07.24,2.17,2.17,0,0,0-.79.69v5.94l1.21.31v1.79h-5.64Z" fill="#fff"/>
    <path d="M219.63,130.53a5.42,5.42,0,0,1-.22-.56,4.56,4.56,0,0,1-.14-.59,4.12,4.12,0,0,1-1.3,1,3.92,3.92,0,0,1-1.75.38,3.69,3.69,0,0,1-2.59-.89,3.14,3.14,0,0,1-.95-2.41,2.73,2.73,0,0,1,1.25-2.41,6.49,6.49,0,0,1,3.67-.85h1.53V123.1a1.63,1.63,0,0,0-.47-1.24,1.9,1.9,0,0,0-1.36-.44,3.14,3.14,0,0,0-.91.12,2.48,2.48,0,0,0-.65.28l-.19,1.19h-2.26v-2.46a8.92,8.92,0,0,1,1.88-.94,6.93,6.93,0,0,1,2.32-.38,5.25,5.25,0,0,1,3.34,1,3.46,3.46,0,0,1,1.29,2.88v5.07c0,.15,0,.29,0,.43l.91.12v1.79Zm-2.6-2a2.49,2.49,0,0,0,1.23-.3,2.43,2.43,0,0,0,.87-.73v-1.69H217.6a2.13,2.13,0,0,0-1.45.44,1.4,1.4,0,0,0-.49,1.08,1.12,1.12,0,0,0,.36.88A1.51,1.51,0,0,0,217,128.54Z" fill="#fff"/>
    <path d="M224.26,128.74l1.45-.31v-6.89h-1.65v-2.1h1.65v-1.23a3.77,3.77,0,0,1,1.08-2.88,4.24,4.24,0,0,1,3-1,5.09,5.09,0,0,1,.77.06c.27,0,.56.09.87.16l-.25,2.22-.48-.07a4.39,4.39,0,0,0-.54,0,1.41,1.41,0,0,0-1.1.4,1.63,1.63,0,0,0-.38,1.15v1.23h2.21v2.1H228.7v6.89l1.45.31v1.79h-5.89Z" fill="#fff"/>
    <path d="M244.28,129.18a3.72,3.72,0,0,1-1.24,1.17,3.19,3.19,0,0,1-1.62.4,3.77,3.77,0,0,1-3.19-1.5,6.42,6.42,0,0,1-1.13-4v-.21a7.21,7.21,0,0,1,1.14-4.24,3.7,3.7,0,0,1,3.2-1.61,3.14,3.14,0,0,1,1.5.37,3.64,3.64,0,0,1,1.16,1v-4l-1.6-.31v-1.8h4.6v13.89l1.43.31v1.79h-4Zm-4.18-3.89a4.63,4.63,0,0,0,.48,2.3,1.72,1.72,0,0,0,1.6.83,2.39,2.39,0,0,0,1.13-.26,2.08,2.08,0,0,0,.79-.77v-4.71a2.23,2.23,0,0,0-.78-.83,2.15,2.15,0,0,0-1.12-.29,1.68,1.68,0,0,0-1.6,1,5.47,5.47,0,0,0-.5,2.54Z" fill="#fff"/>
    <path d="M249.4,128.74l1.44-.31v-6.88l-1.6-.31v-1.8h4.6v9l1.43.31v1.79H249.4Zm4.44-12h-3v-2.24h3Z" fill="#fff"/>
    <path d="M260.67,116.72v2.72h1.95v2.1h-1.95v5.65a1.28,1.28,0,0,0,.27.92.94.94,0,0,0,.72.28l.54,0,.51-.09.26,2.16a7.42,7.42,0,0,1-1,.23,7.16,7.16,0,0,1-1.07.08,3.16,3.16,0,0,1-2.38-.85,3.73,3.73,0,0,1-.84-2.7v-5.66h-1.63v-2.1h1.63v-2.72Z" fill="#fff"/>
    <path d="M268.92,116.34v-1.8h4.58v9.27h.67l1.72-2.43-1-.14v-1.8h5.45v1.8l-1.31.3-2,2.75,2.8,4.21,1.14.24v1.79h-5.13v-1.79l.62-.1-1.71-2.75H273.5v2.54l1.29.31v1.79h-5.72v-1.79l1.45-.31V116.65Z" fill="#fff"/>
    <path d="M282.18,124.88a5.92,5.92,0,0,1,1.39-4.06,4.81,4.81,0,0,1,3.84-1.59,6.54,6.54,0,0,1,.89.07c.29,0,.57.11.85.18l.69-1.4h1.66l-1,2.06a4.79,4.79,0,0,1,1.6,2,6.72,6.72,0,0,1,.56,2.77v.22a6,6,0,0,1-1.39,4.08,4.85,4.85,0,0,1-3.83,1.57,7,7,0,0,1-1-.08,6.32,6.32,0,0,1-.93-.24L284.7,132H283l1.11-2.27a4.52,4.52,0,0,1-1.47-1.93,6.74,6.74,0,0,1-.5-2.68Zm3,.22a6.72,6.72,0,0,0,.07,1,2.75,2.75,0,0,0,.21.79h.05l2.59-5.3-.33-.07-.35,0a1.8,1.8,0,0,0-1.7.94,4.74,4.74,0,0,0-.54,2.4Zm4.49-.22a6.33,6.33,0,0,0-.1-1.18,3.31,3.31,0,0,0-.3-.92h-.06l-2.68,5.49a1.65,1.65,0,0,0,.41.14,2.6,2.6,0,0,0,.5,0,1.79,1.79,0,0,0,1.69-.92,4.78,4.78,0,0,0,.54-2.43Z" fill="#fff"/>
    <path d="M301.34,129.18a3.79,3.79,0,0,1-1.23,1.17,3.26,3.26,0,0,1-1.63.4,3.74,3.74,0,0,1-3.18-1.5,6.35,6.35,0,0,1-1.13-4v-.21a7.21,7.21,0,0,1,1.13-4.24,3.71,3.71,0,0,1,3.2-1.61,3.11,3.11,0,0,1,1.5.37,3.78,3.78,0,0,1,1.17,1v-4l-1.6-.31v-1.8h4.59v13.89l1.44.31v1.79h-4Zm-4.18-3.89a4.52,4.52,0,0,0,.49,2.3,1.7,1.7,0,0,0,1.59.83,2.4,2.4,0,0,0,1.14-.26,2.24,2.24,0,0,0,.79-.77v-4.71a2.34,2.34,0,0,0-.79-.83,2.12,2.12,0,0,0-1.12-.29,1.69,1.69,0,0,0-1.6,1,5.6,5.6,0,0,0-.5,2.54Z" fill="#fff"/>
    <path d="M310,130.13a5,5,0,0,1-.59,2.22,6.53,6.53,0,0,1-1.44,1.92l-1.48-.8a7.27,7.27,0,0,0,.62-1.48,6.46,6.46,0,0,0,.21-1.71V128H310Z" fill="#fff"/>
    <path d="M316.51,121.24v-1.8h4.38l.12,1.47a3.61,3.61,0,0,1,1.34-1.24,3.82,3.82,0,0,1,1.86-.44,3.31,3.31,0,0,1,1.82.48,2.88,2.88,0,0,1,1.15,1.42,3.86,3.86,0,0,1,1.33-1.39,3.59,3.59,0,0,1,1.93-.51,3.18,3.18,0,0,1,2.59,1.14,5.28,5.28,0,0,1,1,3.45v4.61l1.45.31v1.79h-5.74v-1.79l1.3-.31v-4.62a2.86,2.86,0,0,0-.41-1.76,1.53,1.53,0,0,0-1.22-.49,2.18,2.18,0,0,0-1.11.28,2,2,0,0,0-.74.79,3.22,3.22,0,0,0,0,.33,2.62,2.62,0,0,1,0,.28v5.19l1.21.31v1.79h-5.4v-1.79l1.21-.31v-4.62a2.85,2.85,0,0,0-.41-1.74,1.5,1.5,0,0,0-1.23-.51,2.41,2.41,0,0,0-1.07.23,2.13,2.13,0,0,0-.75.65v6l1.29.31v1.79h-5.72v-1.79l1.45-.31v-6.88Z" fill="#fff"/>
    <path d="M341.6,130.75a5,5,0,0,1-3.84-1.54,5.52,5.52,0,0,1-1.43-3.9v-.41a6.07,6.07,0,0,1,1.36-4.08,5.05,5.05,0,0,1,7.13-.23,5.19,5.19,0,0,1,1.24,3.66v1.63h-6.62l0,.06a2.87,2.87,0,0,0,.73,1.81,2.28,2.28,0,0,0,1.77.7,5.55,5.55,0,0,0,1.65-.2,7.37,7.37,0,0,0,1.43-.63l.81,1.85a5.92,5.92,0,0,1-1.78.91A7.42,7.42,0,0,1,341.6,130.75Zm-.27-9.21a1.55,1.55,0,0,0-1.31.64,3.35,3.35,0,0,0-.6,1.67l0,.05h3.67v-.27a2.39,2.39,0,0,0-.45-1.52A1.62,1.62,0,0,0,341.33,121.54Z" fill="#fff"/>
    <path d="M347.31,128.74l1.44-.31v-6.88l-1.59-.31v-1.8h4.38l.13,1.59a4,4,0,0,1,1.36-1.32,3.51,3.51,0,0,1,1.82-.48,3.35,3.35,0,0,1,2.62,1.06,4.88,4.88,0,0,1,.95,3.31v4.83l1.43.31v1.79h-5.72v-1.79l1.28-.31v-4.82A2.24,2.24,0,0,0,355,122a1.81,1.81,0,0,0-1.36-.47,2.31,2.31,0,0,0-1.07.24,2.17,2.17,0,0,0-.79.69v5.94l1.21.31v1.79h-5.64Z" fill="#fff"/>
    <path d="M369.86,123.25h-2l-.32-1.38a2.65,2.65,0,0,0-.77-.41,3.09,3.09,0,0,0-1-.16,2,2,0,0,0-1.25.35,1.08,1.08,0,0,0-.47.89,1,1,0,0,0,.45.83,4.7,4.7,0,0,0,1.76.59,7.24,7.24,0,0,1,3,1.21,2.63,2.63,0,0,1,1,2.19A2.91,2.91,0,0,1,369,129.8a5.58,5.58,0,0,1-3.39.95,7.37,7.37,0,0,1-2.35-.37,5.94,5.94,0,0,1-1.9-1.08l0-2.49h2.09l.41,1.45a1.71,1.71,0,0,0,.73.33,4.28,4.28,0,0,0,1,.11,2.44,2.44,0,0,0,1.39-.33,1,1,0,0,0,0-1.74,5.12,5.12,0,0,0-1.78-.64,7.13,7.13,0,0,1-3-1.18,2.61,2.61,0,0,1-1-2.14,3.11,3.11,0,0,1,1.15-2.4,4.78,4.78,0,0,1,3.27-1,8.53,8.53,0,0,1,2.45.34,5.18,5.18,0,0,1,1.81.9Z" fill="#fff"/>
    <path d="M384,129.18a3.72,3.72,0,0,1-1.24,1.17,3.19,3.19,0,0,1-1.62.4,3.77,3.77,0,0,1-3.19-1.5,6.42,6.42,0,0,1-1.13-4v-.21a7.21,7.21,0,0,1,1.14-4.24,3.7,3.7,0,0,1,3.2-1.61,3.14,3.14,0,0,1,1.5.37,3.64,3.64,0,0,1,1.16,1v-4l-1.59-.31v-1.8h4.59v13.89l1.43.31v1.79h-4Zm-4.18-3.89a4.63,4.63,0,0,0,.48,2.3,1.72,1.72,0,0,0,1.6.83,2.39,2.39,0,0,0,1.13-.26,2.08,2.08,0,0,0,.79-.77v-4.71a2.23,2.23,0,0,0-.78-.83,2.15,2.15,0,0,0-1.12-.29,1.68,1.68,0,0,0-1.6,1,5.47,5.47,0,0,0-.5,2.54Z" fill="#fff"/>
    <path d="M394.5,130.75a5,5,0,0,1-3.83-1.54,5.48,5.48,0,0,1-1.44-3.9v-.41a6.07,6.07,0,0,1,1.36-4.08,5.05,5.05,0,0,1,7.13-.23,5.19,5.19,0,0,1,1.24,3.66v1.63h-6.62l0,.06a2.87,2.87,0,0,0,.73,1.81,2.28,2.28,0,0,0,1.77.7,5.55,5.55,0,0,0,1.65-.2,7.12,7.12,0,0,0,1.43-.63l.81,1.85a5.92,5.92,0,0,1-1.78.91A7.42,7.42,0,0,1,394.5,130.75Zm-.27-9.21a1.55,1.55,0,0,0-1.31.64,3.26,3.26,0,0,0-.59,1.67l0,.05H396v-.27a2.39,2.39,0,0,0-.45-1.52A1.62,1.62,0,0,0,394.23,121.54Z" fill="#fff"/>
    <path d="M404.79,116.72v2.72h1.95v2.1h-1.95v5.65a1.28,1.28,0,0,0,.27.92.94.94,0,0,0,.72.28l.54,0,.51-.09.26,2.16a7.42,7.42,0,0,1-1,.23,7.16,7.16,0,0,1-1.07.08,3.16,3.16,0,0,1-2.38-.85,3.73,3.73,0,0,1-.84-2.7v-5.66h-1.63v-2.1h1.63v-2.72Z" fill="#fff"/>
    <path d="M189.62,152.29a6.47,6.47,0,0,1-1.11,4,3.75,3.75,0,0,1-3.2,1.49,3.21,3.21,0,0,1-2.9-1.58l-.22,1.36h-2.58V143.65l-1.59-.31v-1.8h4.57v6.08a3.43,3.43,0,0,1,1.16-1,3.21,3.21,0,0,1,1.54-.36,3.69,3.69,0,0,1,3.22,1.6,7.3,7.3,0,0,1,1.11,4.25Zm-3-.21a5.76,5.76,0,0,0-.47-2.57,1.68,1.68,0,0,0-1.63-.95,2.29,2.29,0,0,0-1.18.29,2.14,2.14,0,0,0-.76.84v4.69a1.93,1.93,0,0,0,.77.78,2.52,2.52,0,0,0,1.19.26,1.69,1.69,0,0,0,1.62-.81,4.77,4.77,0,0,0,.46-2.32Z" fill="#fff"/>
    <path d="M190.48,143.34v-1.8h4.59v13.89l1.45.31v1.79h-5.89v-1.79l1.45-.31V143.65Z" fill="#fff"/>
    <path d="M197.4,155.74l1.45-.31v-6.88l-1.6-.31v-1.8h4.59v9l1.44.31v1.79H197.4Zm4.44-12h-3v-2.24h3Z" fill="#fff"/>
    <path d="M209,148.24l-1.05.2,1.47,5,.19,1h.06l.22-1,1.45-5-1.07-.21v-1.8h5v1.8l-1,.16L211,157.53h-2.86l-3.28-9.13-1-.16v-1.8h5Z" fill="#fff"/>
    <path d="M221.41,157.75a5,5,0,0,1-3.84-1.54,5.47,5.47,0,0,1-1.43-3.9v-.41a6.07,6.07,0,0,1,1.36-4.08,5.05,5.05,0,0,1,7.13-.23,5.23,5.23,0,0,1,1.24,3.66v1.63h-6.63l0,.06a2.94,2.94,0,0,0,.74,1.81,2.27,2.27,0,0,0,1.76.7,5.58,5.58,0,0,0,1.66-.2,7.37,7.37,0,0,0,1.43-.63l.81,1.85a6,6,0,0,1-1.78.91A7.47,7.47,0,0,1,221.41,157.75Zm-.27-9.21a1.55,1.55,0,0,0-1.31.64,3.35,3.35,0,0,0-.6,1.67l0,.05h3.67v-.27a2.39,2.39,0,0,0-.44-1.52A1.62,1.62,0,0,0,221.14,148.54Z" fill="#fff"/>
    <path d="M227.51,155.74l1.43-.31v-6.88l-1.59-.31v-1.8h4.38l.14,1.62a3.5,3.5,0,0,1,1-1.34,2.27,2.27,0,0,1,1.43-.49,4.4,4.4,0,0,1,.49,0,2.11,2.11,0,0,1,.44.09l-.32,2.73-1.23,0a2.12,2.12,0,0,0-1.09.26,1.65,1.65,0,0,0-.65.73v5.39l1.43.31v1.79h-5.86Z" fill="#fff"/>
    <path d="M245.69,143.72v2.72h1.95v2.1h-1.95v5.65a1.28,1.28,0,0,0,.27.92.91.91,0,0,0,.71.28l.54,0,.52-.09.26,2.16a7.56,7.56,0,0,1-1,.23,7.06,7.06,0,0,1-1.07.08,3.18,3.18,0,0,1-2.38-.85,3.73,3.73,0,0,1-.83-2.7v-5.66h-1.64v-2.1h1.64v-2.72Z" fill="#fff"/>
    <path d="M249,155.74l1.45-.31v-6.88l-1.6-.31v-1.8h4.59v9l1.44.31v1.79H249Zm4.44-12h-3v-2.24h3Z" fill="#fff"/>
    <path d="M255.55,143.34v-1.8h4.6v13.89l1.44.31v1.79h-5.88v-1.79l1.44-.31V143.65Z" fill="#fff"/>
    <path d="M273.29,152.29a6.47,6.47,0,0,1-1.11,4,3.74,3.74,0,0,1-3.2,1.49,3.21,3.21,0,0,1-2.9-1.58l-.21,1.36h-2.59V143.65l-1.59-.31v-1.8h4.58v6.08a3.31,3.31,0,0,1,1.15-1,3.21,3.21,0,0,1,1.54-.36,3.67,3.67,0,0,1,3.22,1.6,7.3,7.3,0,0,1,1.11,4.25Zm-3-.21a5.74,5.74,0,0,0-.48-2.57,1.68,1.68,0,0,0-1.62-.95,2.27,2.27,0,0,0-1.18.29,2.06,2.06,0,0,0-.76.84v4.69a1.9,1.9,0,0,0,.76.78,2.57,2.57,0,0,0,1.2.26,1.71,1.71,0,0,0,1.62-.81,4.89,4.89,0,0,0,.46-2.32Z" fill="#fff"/>
    <path d="M280,157.75a5,5,0,0,1-3.84-1.54,5.47,5.47,0,0,1-1.43-3.9v-.41a6.07,6.07,0,0,1,1.36-4.08,5.05,5.05,0,0,1,7.13-.23,5.23,5.23,0,0,1,1.24,3.66v1.63h-6.63l0,.06a2.94,2.94,0,0,0,.74,1.81,2.27,2.27,0,0,0,1.76.7,5.58,5.58,0,0,0,1.66-.2,7.37,7.37,0,0,0,1.43-.63l.81,1.85a6,6,0,0,1-1.78.91A7.47,7.47,0,0,1,280,157.75Zm-.27-9.21a1.55,1.55,0,0,0-1.31.64,3.35,3.35,0,0,0-.6,1.67l0,.05h3.67v-.27a2.39,2.39,0,0,0-.44-1.52A1.62,1.62,0,0,0,279.72,148.54Z" fill="#fff"/>
    <path d="M286.09,155.74l1.43-.31v-6.88l-1.59-.31v-1.8h4.38l.14,1.62a3.5,3.5,0,0,1,1-1.34,2.27,2.27,0,0,1,1.43-.49,4.4,4.4,0,0,1,.49,0,2.11,2.11,0,0,1,.44.09l-.32,2.73-1.23,0a2.12,2.12,0,0,0-1.09.26,1.65,1.65,0,0,0-.65.73v5.39l1.43.31v1.79h-5.86Z" fill="#fff"/>
    <path d="M299.82,157.75a5,5,0,0,1-3.84-1.54,5.52,5.52,0,0,1-1.43-3.9v-.41a6.07,6.07,0,0,1,1.36-4.08,5.05,5.05,0,0,1,7.13-.23,5.23,5.23,0,0,1,1.24,3.66v1.63h-6.63l0,.06a2.94,2.94,0,0,0,.74,1.81,2.28,2.28,0,0,0,1.77.7,5.55,5.55,0,0,0,1.65-.2,7.37,7.37,0,0,0,1.43-.63l.81,1.85a6,6,0,0,1-1.78.91A7.42,7.42,0,0,1,299.82,157.75Zm-.27-9.21a1.55,1.55,0,0,0-1.31.64,3.35,3.35,0,0,0-.6,1.67l0,.05h3.68v-.27a2.39,2.39,0,0,0-.45-1.52A1.62,1.62,0,0,0,299.55,148.54Z" fill="#fff"/>
    <path d="M312.91,156.18a3.79,3.79,0,0,1-1.23,1.17,3.26,3.26,0,0,1-1.63.4,3.74,3.74,0,0,1-3.18-1.5,6.36,6.36,0,0,1-1.14-4v-.21a7.21,7.21,0,0,1,1.14-4.24,3.71,3.71,0,0,1,3.2-1.61,3.14,3.14,0,0,1,1.5.37,3.78,3.78,0,0,1,1.17,1v-4l-1.6-.31v-1.8h4.59v13.89l1.44.31v1.79h-4Zm-4.18-3.89a4.63,4.63,0,0,0,.48,2.3,1.72,1.72,0,0,0,1.6.83,2.4,2.4,0,0,0,1.14-.26,2.24,2.24,0,0,0,.79-.77v-4.71a2.34,2.34,0,0,0-.79-.83,2.15,2.15,0,0,0-1.12-.29,1.69,1.69,0,0,0-1.6,1,5.6,5.6,0,0,0-.5,2.54Z" fill="#fff"/>
    <path d="M321.88,143.72v2.72h1.95v2.1h-1.95v5.65a1.28,1.28,0,0,0,.27.92.94.94,0,0,0,.72.28l.54,0,.51-.09.26,2.16a7.42,7.42,0,0,1-1,.23,7.16,7.16,0,0,1-1.07.08,3.16,3.16,0,0,1-2.38-.85,3.73,3.73,0,0,1-.84-2.7v-5.66h-1.63v-2.1h1.63v-2.72Z" fill="#fff"/>
    <path d="M328,153.29a4,4,0,0,1,.42-2.1,6.88,6.88,0,0,1,1.66-1.62,5.73,5.73,0,0,0,1.16-1.28,2.85,2.85,0,0,0,.44-1.54,2.1,2.1,0,0,0-.5-1.48,1.87,1.87,0,0,0-1.42-.53,1.91,1.91,0,0,0-1.29.45,1.68,1.68,0,0,0-.54,1.32H325l0-.06a3.51,3.51,0,0,1,1.3-3,5.41,5.41,0,0,1,3.46-1.05,5.24,5.24,0,0,1,3.6,1.16,4,4,0,0,1,1.31,3.17,4.17,4.17,0,0,1-.76,2.41A6.91,6.91,0,0,1,332,151a2.53,2.53,0,0,0-.82,1,3.74,3.74,0,0,0-.19,1.34Zm3,4.24h-3V155h3Z" fill="#fff"/>
  </g>
  <path d="M341,279.58s.49-8.34,10.3-9.81" fill="none" stroke="#fff" stroke-linecap="round" stroke-linejoin="round" stroke-width="1.47"/>
  <path d="M357.22,269.28s6.86,3.43,12.26-1.48" fill="none" stroke="#fff" stroke-linecap="round" stroke-linejoin="round" stroke-width="1.47"/>
</svg>
