<svg xmlns="http://www.w3.org/2000/svg" width="304.92" height="265.09" viewBox="0 0 304.92 265.09"><defs><style>.cls-1,.cls-11,.cls-2,.cls-3,.cls-7{fill:none;}.cls-1,.cls-11,.cls-2,.cls-3,.cls-6,.cls-7{stroke:#fff;stroke-miterlimit:10;}.cls-1,.cls-2,.cls-3,.cls-7{stroke-linecap:round;}.cls-1{stroke-width:6.24px;}.cls-2{stroke-width:3.12px;}.cls-3{stroke-width:4.68px;}.cls-4,.cls-5,.cls-6,.cls-8{fill:#fff;}.cls-5{font-size:21.84px;}.cls-5,.cls-8{font-family:Quicksand-Bold, Quicksand;font-weight:700;}.cls-6{stroke-width:1.56px;}.cls-7{stroke-width:2.34px;}.cls-8{font-size:4.68px;}.cls-9{letter-spacing:-0.01em;}.cls-10{letter-spacing:0em;}.cls-11{stroke-width:1.17px;}</style></defs><title>step4</title><g id="Step_4" data-name="Step 4"><path class="cls-1" d="M108.42,78.87s43.1-41.56,101.59,0"/><path class="cls-1" d="M132.28,98.12s28.47-19.25,56.18,0"/><path class="cls-1" d="M132.28,156.61s33.09,23.86,56.18,0"/><path class="cls-1" d="M113,175.85s54.64,41.56,100.05,0"/><ellipse class="cls-1" cx="161.51" cy="128.54" rx="13.18" ry="11.51"/><ellipse class="cls-1" cx="83.11" cy="125.32" rx="41.37" ry="37.31"/><ellipse class="cls-2" cx="236.32" cy="126.05" rx="12.44" ry="17.64"/><path class="cls-3" d="M127.38,213.16s-23.12-8.32-37.42-19.3"/><polygon class="cls-4" points="80.81 184.29 99.33 192.15 90.81 194.37 88.52 202.87 80.81 184.29"/><path class="cls-3" d="M200.59,214.72s23.12-8.32,37.42-19.3"/><polygon class="cls-4" points="247.16 185.85 239.45 204.43 237.16 195.93 228.64 193.72 247.16 185.85"/><text class="cls-5" transform="translate(139 224.79)">120m</text><circle class="cls-6" cx="84.24" cy="130.18" r="2.57"/><line class="cls-2" x1="53.22" y1="130.18" x2="64.85" y2="130.18"/><line class="cls-2" x1="101.07" y1="130.18" x2="112.5" y2="130.18"/><path class="cls-7" d="M81.66,106.47s-6.71-2-7.53,3.23c-.54,3.51,3.26,4.86,6.47,4.53,1.62-.17,2.72-2,3.61-3.37,1.51-2.31,2.6-5,6.73-4.84,6.31.27,4.11,7.32-2.41,6.75V117"/><text class="cls-8" transform="translate(70.24 123.01)">Cook<tspan class="cls-9" x="11.34" y="0">P</tspan><tspan class="cls-10" x="14.12" y="0">erfect</tspan></text><path class="cls-3" d="M218.12,85.27h33.07a12,12,0,0,1,12,12v62.5a8.44,8.44,0,0,1-8.44,8.44H222a12,12,0,0,1-12-12V93.38A8.11,8.11,0,0,1,218.12,85.27Z"/><line class="cls-3" x1="210.01" y1="155.05" x2="263.19" y2="155.05"/><line class="cls-3" x1="210.01" y1="97.92" x2="263.19" y2="97.92"/><polyline class="cls-7" points="229.91 132.07 242.38 120.66 237.49 116.23 236.6 137.2 242.35 131.25 228.51 119.89"/><line class="cls-7" x1="231.69" y1="161.01" x2="245.25" y2="161.01"/><circle class="cls-6" cx="252.63" cy="91.97" r="1.56"/><circle class="cls-11" cx="71.74" cy="105.03" r="1.62"/></g></svg>
