<svg id="Step_1" data-name="Step 1" xmlns="http://www.w3.org/2000/svg" width="303.25" height="266.11" viewBox="0 0 303.25 266.11"><defs><style>.cls-1,.cls-2,.cls-3,.cls-4,.cls-6{fill:none;stroke:#fff;stroke-linecap:round;stroke-miterlimit:10;}.cls-1{stroke-width:3px;}.cls-2{stroke-width:7px;}.cls-3{stroke-width:2px;}.cls-4{stroke-width:5px;}.cls-5{font-size:8px;fill:#fff;font-family:Quicksand-Bold, Quicksand;font-weight:700;}.cls-6{stroke-width:0.75px;}</style></defs><title>step1</title><path class="cls-1" d="M32.23,78.24s49.65,9.93,82.89-9.5C125.71,62.55,149.7,49,157.05,55.67a7.32,7.32,0,0,1,2.33,4.43c.59,5.76-7.55,11-12.89,13-2.35.9-9.44,3.62-14.24.06a7.27,7.27,0,0,1-2.58-3.12c-2.67-6.83,7.55-20.31,20.18-23.31a25.36,25.36,0,0,1,10.25-.22"/><path class="cls-2" d="M160.1,46.55a29,29,0,0,1,28.43,14.34V44.19"/><line class="cls-1" x1="193.32" y1="200.78" x2="188.53" y2="91.86"/><circle class="cls-3" cx="189.83" cy="126.18" r="4.97"/><circle class="cls-3" cx="190.93" cy="148.39" r="4.97"/><circle class="cls-3" cx="191.93" cy="170.6" r="4.97"/><circle class="cls-3" cx="192.75" cy="192.82" r="4.97"/><path class="cls-4" d="M163.31,96.8c-.85,0-5.67.28-5.67.28-9.37,1-51.52,9-34.18,68.55,0,0,1.6,7.06,12,14.66a45.4,45.4,0,0,0,20.43,8.15c8.6,1.25,23.16,5.13,31.12,17.16,11.77,17.81,30,6.48,30,6.48s17.4-7.45,9.31-36.5c-7-25-8.21-29.8-21.75-50.88a65.3,65.3,0,0,0-27.83-24.29C167.67,96.32,165.4,96.93,163.31,96.8Z"/><path class="cls-4" d="M174.5,143.66c-.07,6.28-5.05,12-11.49,12.29-6.86.28-12.57-5.76-12.53-12.53,0-6.56,5.47-12.52,12.29-12.37S174.58,137.24,174.5,143.66Z"/><text class="cls-5" transform="translate(195.9 138.79)">90</text><path class="cls-6" d="M195.65,133a1,1,0,0,1-.75.9,1,1,0,1,1,.75-.9Z"/><text class="cls-5" transform="translate(195.89 161.19)">85</text><path class="cls-6" d="M195.64,155.38a1,1,0,0,1-.75.9,1,1,0,0,1-1.16-.82,1,1,0,0,1,.87-1.11A1,1,0,0,1,195.64,155.38Z"/><text class="cls-5" transform="translate(198.81 205.54)">90</text><path class="cls-6" d="M198.56,199.73a1,1,0,0,1-.75.9,1,1,0,0,1-1.16-.82,1,1,0,0,1,.87-1.11A1,1,0,0,1,198.56,199.73Z"/><text class="cls-5" transform="translate(196.99 184.12)">80</text><path class="cls-6" d="M196.74,178.31a1,1,0,1,1-1-1A1,1,0,0,1,196.74,178.31Z"/></svg>
