<svg xmlns="http://www.w3.org/2000/svg" width="304.69" height="265.65" viewBox="0 0 304.69 265.65"><defs><style>.cls-1,.cls-2,.cls-5{fill:none;}.cls-1,.cls-2,.cls-4,.cls-5{stroke:#fff;stroke-linecap:round;stroke-miterlimit:10;}.cls-1{stroke-width:4.8px;}.cls-2{stroke-width:12px;}.cls-3,.cls-4{fill:#fff;}.cls-4{stroke-width:3.6px;}.cls-5{stroke-width:2.4px;}</style></defs><title>step3</title><g id="Step_3" data-name="Step 3"><path class="cls-1" d="M32.55,152.73s14.63,1.42,54.53-21.89c12.71-7.43,34.06-13.67,49.31-10.12,13.26,7.83-6.83,20.86-6.83,20.86s-30.21,17.33-39.37,6.95,10.37-31.31,25.25-36.65a68.36,68.36,0,0,1,30.34-3.46"/><path class="cls-2" d="M143.77,108.2c3.27-.37,21.35,1.29,28.88,4.49,10,4.24,17.51,12.59,19.11,15.34L193,175.81c0-15.94-1.56-46.65-1.56-66.06"/><line class="cls-1" x1="194.05" y1="225.39" x2="193.02" y2="174.7"/><circle class="cls-3" cx="189.9" cy="90.78" r="3.64"/><line class="cls-4" x1="189.9" y1="62.75" x2="189.9" y2="90.78"/><path class="cls-5" d="M185,85.77l-.25-21.55a6.82,6.82,0,0,1,1.79-4.83c1.17-1.22,9.31-3.42,8.7,7.54l-.18,19.32s2.76,4.33.48,8.27a6.25,6.25,0,0,1-6.91,2.83h-.06C179.39,95,185.26,85.9,185,85.77Z"/><circle class="cls-5" cx="201.34" cy="58.26" r="3.75"/><path class="cls-5" d="M209.87,58s12.28,4.49,31.22,0S270,58,270,58"/><path class="cls-5" d="M209.87,69.79s12.28,4.49,31.22,0,28.93,0,28.93,0"/><path class="cls-5" d="M209.87,82.53s12.28,4.49,31.22,0,28.93,0,28.93,0"/><path class="cls-5" d="M104.35,59.05s12.27,4.49,31.21,0,28.93,0,28.93,0"/><path class="cls-5" d="M104.35,70.88s12.27,4.49,31.21,0,28.93,0,28.93,0"/><path class="cls-5" d="M104.35,83.62s12.27,4.49,31.21,0,28.93,0,28.93,0"/><line class="cls-5" x1="173.41" y1="81.62" x2="179.62" y2="81.62"/><line class="cls-5" x1="173.51" y1="77.06" x2="179.72" y2="77.06"/><line class="cls-5" x1="173.41" y1="72.29" x2="179.62" y2="72.29"/><line class="cls-5" x1="173.18" y1="67.52" x2="179.39" y2="67.52"/><line class="cls-5" x1="173" y1="62.75" x2="179.21" y2="62.75"/></g></svg>
