<svg xmlns="http://www.w3.org/2000/svg" width="305.26" height="265.53" viewBox="0 0 305.26 265.53"><defs><style>.cls-1,.cls-2{fill:none;}.cls-1,.cls-2,.cls-3{stroke:#fff;stroke-linecap:round;stroke-miterlimit:10;}.cls-1{stroke-width:4.8px;}.cls-2{stroke-width:3.6px;}.cls-3{fill:#fff;stroke-width:0.6px;}</style></defs><title>step2</title><g id="Step_2" data-name="Step 2"><path class="cls-1" d="M83,138.54,165.52,88s-18-22.61-55.13-11.6l-6.84-6s-3.28-3-14,7.44c0,0-3,6.84,3.86,9.81h0S72.61,103.74,83,138.54Z"/><path class="cls-1" d="M163.76,238.46l-8.41-33.31h0l-7.48-26.32s20.2-7.66,25.61-17.8h0a29.7,29.7,0,0,0,4.73-14.11h-92a40.82,40.82,0,0,0,7.88,17.26,42.36,42.36,0,0,0,24.46,14.91l-3.65,26.48h0l-1.69,14.35s-10,2.54-8.09,11.51c.72,3.35,4.47,5.22,7.87,5.66,4.45.56,8.53-3.64,9.14-7.1.87-4.93-3.39-8.47-8.92-10.07"/><path class="cls-2" d="M145.05,135.54c4.27-8.44,9.11-11.75,12.85-13.19,4.23-1.63,7-.83,9.85-3.7,0,0,1.57-1.55,4.93-11.08h0"/><path class="cls-2" d="M160,135.54a20,20,0,0,1,10.08-7.24c4.29-1.21,6.71,0,9.61-1.6,2.31-1.27,5.05-4.37,5.82-13"/><path class="cls-2" d="M200.17,47.9l11,17.56c.69,1.22,1.18.67,1.13-.72l-1-32.66s-13,.71-18.82,6.16"/><circle class="cls-3" cx="181.31" cy="50.54" r="2.64"/><circle class="cls-3" cx="177.39" cy="67.38" r="2.64"/><circle class="cls-3" cx="183.87" cy="84.8" r="2.64"/><circle class="cls-3" cx="196.43" cy="97.29" r="2.64"/><circle class="cls-3" cx="213.32" cy="101.64" r="2.64"/><circle class="cls-3" cx="230.74" cy="97.29" r="2.64"/><circle class="cls-3" cx="242.49" cy="84.03" r="2.64"/><circle class="cls-3" cx="246.4" cy="67.38" r="2.64"/><circle class="cls-3" cx="241.11" cy="49.5" r="2.64"/><circle class="cls-3" cx="228.09" cy="36.66" r="2.64"/><line class="cls-1" x1="118.39" y1="179.69" x2="137.44" y2="180.46"/><line class="cls-1" x1="173.48" y1="161.03" x2="187.49" y2="161.61"/><line class="cls-1" x1="114.91" y1="205.57" x2="125.37" y2="205.57"/><line class="cls-1" x1="155.35" y1="205.15" x2="134.8" y2="205.15"/><line class="cls-1" x1="93.43" y1="87.67" x2="99.38" y2="83.07"/></g></svg>
