<svg id="Layer_1" data-name="Layer 1" xmlns="http://www.w3.org/2000/svg" viewBox="0 0 445.96 220.63">
  <title>tekst1</title>
  <g>
    <path d="M38.64,10.28v3l-2.7.52V27a4.82,4.82,0,0,0,1.35,3.73A5.21,5.21,0,0,0,41,32a5.32,5.32,0,0,0,3.72-1.23A4.82,4.82,0,0,0,46,27V13.84l-2.68-.52v-3H53.78v3l-2.7.52V27a8,8,0,0,1-2.79,6.54A11.18,11.18,0,0,1,41,35.83a11.07,11.07,0,0,1-7.29-2.3A8,8,0,0,1,30.89,27V13.84l-2.68-.52v-3H38.64Z" transform="translate(-28.21 -1.89)" fill="#561018"/>
    <path d="M81,10.28v3l-2.7.52V35.47h-5l-10.18-17-.1,0V31.92l2.7.52v3H55.27v-3L58,31.92V13.84l-2.68-.52v-3H63l10.17,17h.11V13.84l-2.7-.52v-3H81Z" transform="translate(-28.21 -1.89)" fill="#561018"/>
    <path d="M94,10.28a10.38,10.38,0,0,1,7.61,3,10.19,10.19,0,0,1,3,7.57V25a10.16,10.16,0,0,1-3,7.57A10.45,10.45,0,0,1,94,35.47H82.64v-3l2.68-.52V13.84l-2.68-.52v-3H94Zm-3.6,3.89V31.59h3.34A5.24,5.24,0,0,0,98,29.76,7.18,7.18,0,0,0,99.5,25V20.76A7.1,7.1,0,0,0,98,16a5.22,5.22,0,0,0-4.25-1.84Z" transform="translate(-28.21 -1.89)" fill="#561018"/>
    <path d="M127.92,32.67a11.17,11.17,0,0,1-3.58,2.18,15.45,15.45,0,0,1-6,1,10.84,10.84,0,0,1-8.3-3.42,12.46,12.46,0,0,1-3.2-8.88v-.86a13.33,13.33,0,0,1,3.16-9.21,10.51,10.51,0,0,1,8.24-3.54,14.86,14.86,0,0,1,5.4.94,11.72,11.72,0,0,1,4.08,2.55v5.07H124l-.71-3.37a5.28,5.28,0,0,0-1.82-.95,9,9,0,0,0-2.61-.35,6,6,0,0,0-5.13,2.44,10.28,10.28,0,0,0-1.84,6.38v.9a9.64,9.64,0,0,0,1.8,6.13,6.21,6.21,0,0,0,5.19,2.3,9.71,9.71,0,0,0,2.47-.26,5.69,5.69,0,0,0,1.48-.61V26.82l-3.6-.28V23h8.66Z" transform="translate(-28.21 -1.89)" fill="#561018"/>
    <path d="M130.19,32.44l1.8-.26,7.66-21.9h5.18l7.61,21.9,1.8.26v3h-8.58v-3l1.74-.31-1.1-3.46h-8.17L137,32.13l1.75.31v3h-8.58Zm8.27-27.16a3.13,3.13,0,0,1,1.06-2.41,3.75,3.75,0,0,1,2.62-1,3.61,3.61,0,0,1,2.57,1,3.15,3.15,0,0,1,1,2.41,3.05,3.05,0,0,1-1,2.39,3.71,3.71,0,0,1-2.57.93,3.82,3.82,0,0,1-2.62-.93A3,3,0,0,1,138.46,5.28ZM139.32,25h5.78l-2.83-8.87h-.11Zm1.13-19.67a1.64,1.64,0,0,0,.48,1.22,1.67,1.67,0,0,0,1.21.48,1.51,1.51,0,0,0,1.16-.48,1.7,1.7,0,0,0,.45-1.22A1.73,1.73,0,0,0,143.3,4a1.48,1.48,0,0,0-1.16-.49,1.68,1.68,0,0,0-1.21.49A1.72,1.72,0,0,0,140.45,5.28Z" transform="translate(-28.21 -1.89)" fill="#561018"/>
  </g>
  <g>
    <path d="M174.33,10.28A12.07,12.07,0,0,1,181.27,12a5.88,5.88,0,0,1,2.49,5.17,5.46,5.46,0,0,1-.93,3.13,5.56,5.56,0,0,1-2.69,2.06,5.37,5.37,0,0,1,3.4,2.08,6.16,6.16,0,0,1,1.14,3.68,6.53,6.53,0,0,1-2.39,5.48,10.8,10.8,0,0,1-6.77,1.86H163.14v-3l2.68-.52V13.84l-2.68-.52v-3h11.19Zm-3.46,10.55h3.63a5,5,0,0,0,3.12-.83,2.87,2.87,0,0,0,1.09-2.42,3,3,0,0,0-1.1-2.58,5.43,5.43,0,0,0-3.28-.83h-3.46Zm0,3.5v7.26h4.65a4.74,4.74,0,0,0,3.07-.87,3.17,3.17,0,0,0,1-2.59,4.06,4.06,0,0,0-.9-2.83,3.67,3.67,0,0,0-2.83-1Z" transform="translate(-28.21 -1.89)" fill="#a32026"/>
    <path d="M202.82,24.4h-8.53v7.19h8.13l.23-3h3.84v6.89H186.56v-3l2.68-.52V13.84l-2.68-.52v-3h19.9v6.9h-3.88l-.22-3h-8.07V20.5h8.53Z" transform="translate(-28.21 -1.89)" fill="#a32026"/>
    <path d="M209.19,32.44l2.68-.52V13.84l-2.68-.52v-3h10.29v3l-2.56.52v6.73h2.2l4.84-7-1.49-.21v-3h10v3l-2.74.47-6.19,8.27,6.95,10,2.53.43v3H223v-3l1.56-.21L219.74,25h-2.82v7l2.56.52v3H209.19Z" transform="translate(-28.21 -1.89)" fill="#a32026"/>
    <path d="M243.7,13.32l-2.06.3,3.91,8.27h.11l3.91-8.27-2-.3v-3h9.54v3l-2.15.35-6.85,12.94v5.31l2.7.52v3H240.33v-3l2.7-.52V26.35L236.3,13.67l-2.13-.35v-3h9.53Z" transform="translate(-28.21 -1.89)" fill="#a32026"/>
    <path d="M283,16.84l-.1,0-6.75,18.65h-3.39l-6.71-18.58-.1,0L266.43,28v4l2.7.52v3H258.7v-3l2.68-.52V13.84l-2.68-.52v-3H268l6.42,18.56h.1L281,10.28h9.31v3l-2.7.52V31.92l2.7.52v3H279.84v-3l2.68-.52V28Z" transform="translate(-28.21 -1.89)" fill="#a32026"/>
    <path d="M303.38,10.28a10.49,10.49,0,0,1,6.73,2,6.58,6.58,0,0,1,2.44,5.43,5.44,5.44,0,0,1-1,3.3,7.14,7.14,0,0,1-3,2.27,5.44,5.44,0,0,1,3.21,2.19,6.91,6.91,0,0,1,1,3.79V30.5a2.16,2.16,0,0,0,.33,1.29,1.48,1.48,0,0,0,1.09.55l.63.08v3h-2.62a4.09,4.09,0,0,1-3.47-1.33,5.58,5.58,0,0,1-1-3.45V29.26a4.07,4.07,0,0,0-1-2.88,3.75,3.75,0,0,0-2.76-1.1H299.8v6.64l2.7.52v3H292.07v-3l2.68-.52V13.84l-2.68-.52v-3h11.31ZM299.8,21.39h3.5a4.77,4.77,0,0,0,3.16-.9,3.22,3.22,0,0,0,1.06-2.6,3.6,3.6,0,0,0-1-2.71,4.31,4.31,0,0,0-3.09-1H299.8Z" transform="translate(-28.21 -1.89)" fill="#a32026"/>
    <path d="M316.41,13.32v-3h10.43v3l-2.7.52V31.92l2.7.52v3H316.41v-3l2.7-.52V13.84Z" transform="translate(-28.21 -1.89)" fill="#a32026"/>
    <path d="M354.5,10.28v3l-2.7.52V35.47h-5l-10.17-17-.11,0V31.92l2.7.52v3H328.76v-3l2.68-.52V13.84l-2.68-.52v-3h7.73l10.18,17h.1V13.84l-2.7-.52v-3H354.5Z" transform="translate(-28.21 -1.89)" fill="#a32026"/>
    <path d="M377,32.67a11.29,11.29,0,0,1-3.58,2.18,15.45,15.45,0,0,1-5.95,1,10.87,10.87,0,0,1-8.31-3.42,12.46,12.46,0,0,1-3.2-8.88v-.86a13.33,13.33,0,0,1,3.16-9.21,10.51,10.51,0,0,1,8.24-3.54,14.88,14.88,0,0,1,5.41.94,11.67,11.67,0,0,1,4.07,2.55v5.07h-3.73l-.71-3.37a5.25,5.25,0,0,0-1.83-.95,8.89,8.89,0,0,0-2.6-.35,6.05,6.05,0,0,0-5.14,2.44A10.34,10.34,0,0,0,361,22.63v.9a9.64,9.64,0,0,0,1.8,6.13A6.19,6.19,0,0,0,368,32a9.68,9.68,0,0,0,2.46-.26,5.69,5.69,0,0,0,1.48-.61V26.82l-3.6-.28V23H377Z" transform="translate(-28.21 -1.89)" fill="#a32026"/>
    <path d="M395.8,24.4h-8.53v7.19h8.13l.22-3h3.84v6.89H379.53v-3l2.69-.52V13.84l-2.69-.52v-3h19.9v6.9h-3.88l-.22-3h-8.06V20.5h8.53Z" transform="translate(-28.21 -1.89)" fill="#a32026"/>
    <path d="M413.47,10.28a10.47,10.47,0,0,1,6.73,2,6.58,6.58,0,0,1,2.44,5.43,5.44,5.44,0,0,1-1,3.3,7.14,7.14,0,0,1-3,2.27,5.44,5.44,0,0,1,3.21,2.19,6.91,6.91,0,0,1,1,3.79V30.5a2.16,2.16,0,0,0,.33,1.29,1.44,1.44,0,0,0,1.09.55l.62.08v3h-2.61a4.12,4.12,0,0,1-3.48-1.33,5.58,5.58,0,0,1-1-3.45V29.26a4.07,4.07,0,0,0-1-2.88,3.72,3.72,0,0,0-2.76-1.1h-4.14v6.64l2.7.52v3H402.16v-3l2.68-.52V13.84l-2.68-.52v-3h11.31Zm-3.58,11.11h3.5a4.75,4.75,0,0,0,3.16-.9,3.22,3.22,0,0,0,1.06-2.6,3.6,3.6,0,0,0-1.05-2.71,4.27,4.27,0,0,0-3.09-1h-3.58Z" transform="translate(-28.21 -1.89)" fill="#a32026"/>
    <path d="M452.26,10.28v3l-2.7.52V35.47h-5l-10.17-17-.11,0V31.92l2.7.52v3H426.52v-3l2.68-.52V13.84l-2.68-.52v-3h7.73l10.17,17h.11V13.84l-2.7-.52v-3h10.43Z" transform="translate(-28.21 -1.89)" fill="#a32026"/>
    <path d="M470.15,24.4h-8.53v7.19h8.13l.22-3h3.84v6.89H453.89v-3l2.68-.52V13.84l-2.68-.52v-3h19.89v6.9h-3.87l-.23-3h-8.06V20.5h8.53Z" transform="translate(-28.21 -1.89)" fill="#a32026"/>
  </g>
  <g>
    <path d="M150.82,148.49h-2.54l-.35-2.27a3.49,3.49,0,0,0-1.27-.8,5,5,0,0,0-1.81-.29,4,4,0,0,0-3.43,1.61,6.92,6.92,0,0,0-1.2,4.22v.6a7,7,0,0,0,1.19,4.23,3.94,3.94,0,0,0,3.38,1.63,5.68,5.68,0,0,0,1.84-.29,3.24,3.24,0,0,0,1.3-.8l.35-2.27h2.54v3.37a7.16,7.16,0,0,1-2.63,1.9,8.6,8.6,0,0,1-3.58.71,7.28,7.28,0,0,1-5.62-2.38,8.65,8.65,0,0,1-2.19-6.1V151a8.72,8.72,0,0,1,2.17-6.11,7.31,7.31,0,0,1,5.64-2.39,8.64,8.64,0,0,1,3.58.72,7.58,7.58,0,0,1,2.63,1.9Z" transform="translate(-28.21 -1.89)"/>
    <path d="M152.47,153.34a6.8,6.8,0,0,1,1.59-4.65,6.24,6.24,0,0,1,8.79,0,6.76,6.76,0,0,1,1.59,4.65v.25a6.75,6.75,0,0,1-1.59,4.65,6.27,6.27,0,0,1-8.79,0,6.75,6.75,0,0,1-1.59-4.65Zm3.43.25a5.48,5.48,0,0,0,.61,2.78,2.09,2.09,0,0,0,2,1,2.07,2.07,0,0,0,1.94-1.06,5.44,5.44,0,0,0,.62-2.77v-.25a5.46,5.46,0,0,0-.62-2.75,2.12,2.12,0,0,0-2-1.07,2.07,2.07,0,0,0-1.94,1.07,5.46,5.46,0,0,0-.61,2.75Z" transform="translate(-28.21 -1.89)"/>
    <path d="M165.93,153.34a6.8,6.8,0,0,1,1.59-4.65,6.23,6.23,0,0,1,8.78,0,6.76,6.76,0,0,1,1.59,4.65v.25a6.75,6.75,0,0,1-1.59,4.65,5.51,5.51,0,0,1-4.37,1.8,5.56,5.56,0,0,1-4.41-1.8,6.75,6.75,0,0,1-1.59-4.65Zm3.42.25a5.48,5.48,0,0,0,.61,2.78,2.11,2.11,0,0,0,2,1,2.08,2.08,0,0,0,1.94-1.06,5.44,5.44,0,0,0,.61-2.77v-.25a5.36,5.36,0,0,0-.62-2.75,2.31,2.31,0,0,0-3.9,0,5.46,5.46,0,0,0-.61,2.75Z" transform="translate(-28.21 -1.89)"/>
    <path d="M179,143.58v-2.06h5.24v10.59H185l2-2.78-1.12-.15v-2.06h6.24v2.06l-1.5.34-2.29,3.14,3.2,4.82,1.3.27v2.05H187v-2.05l.71-.12-1.95-3.14h-1.46v2.91l1.47.35v2.05h-6.54v-2.05l1.66-.35V143.93Z" transform="translate(-28.21 -1.89)"/>
    <path d="M202.06,142.74a6.72,6.72,0,0,1,4.62,1.5,5.44,5.44,0,0,1,0,7.88,6.77,6.77,0,0,1-4.62,1.49h-2.89v3.79l1.83.35v2.05h-7.06v-2.05l1.81-.35V145.15l-1.81-.35v-2.06h8.12ZM199.17,151h2.89a2.83,2.83,0,0,0,2.16-.78,2.77,2.77,0,0,0,.73-2,2.92,2.92,0,0,0-.73-2,2.8,2.8,0,0,0-2.16-.8h-2.89Z" transform="translate(-28.21 -1.89)"/>
    <path d="M215.62,160a5.73,5.73,0,0,1-4.39-1.75,6.32,6.32,0,0,1-1.64-4.47v-.47a7,7,0,0,1,1.55-4.65,5.79,5.79,0,0,1,8.16-.27,6,6,0,0,1,1.41,4.18v1.87h-7.57l0,.07a3.28,3.28,0,0,0,.84,2.06,2.6,2.6,0,0,0,2,.81,6.68,6.68,0,0,0,1.89-.23,8.56,8.56,0,0,0,1.64-.72l.92,2.11a6.76,6.76,0,0,1-2,1A8.68,8.68,0,0,1,215.62,160Zm-.31-10.52a1.78,1.78,0,0,0-1.5.73,3.78,3.78,0,0,0-.68,1.91l0,.06h4.19v-.31a2.73,2.73,0,0,0-.51-1.74A1.84,1.84,0,0,0,215.31,149.52Z" transform="translate(-28.21 -1.89)"/>
    <path d="M222.59,157.75l1.64-.35v-7.87l-1.82-.35v-2.06h5l.15,1.85a4,4,0,0,1,1.15-1.54,2.61,2.61,0,0,1,1.63-.55,5.46,5.46,0,0,1,.56,0c.2,0,.37.07.5.1l-.36,3.12-1.41,0a2.35,2.35,0,0,0-1.24.29,1.84,1.84,0,0,0-.75.83v6.17l1.64.35v2.05h-6.7Z" transform="translate(-28.21 -1.89)"/>
    <path d="M232.62,157.75l1.65-.35v-7.88h-1.88v-2.4h1.88v-1.41a4.3,4.3,0,0,1,1.23-3.29,4.9,4.9,0,0,1,3.46-1.15,6.62,6.62,0,0,1,.88.06c.3,0,.63.11,1,.19l-.29,2.54L240,144a3.79,3.79,0,0,0-.62,0,1.64,1.64,0,0,0-1.26.46,1.86,1.86,0,0,0-.43,1.31v1.41h2.52v2.4h-2.52v7.88l1.66.35v2.05h-6.73Z" transform="translate(-28.21 -1.89)"/>
    <path d="M247.43,160a5.7,5.7,0,0,1-4.38-1.75,6.32,6.32,0,0,1-1.64-4.47v-.47A7,7,0,0,1,243,148.7a5.19,5.19,0,0,1,4.17-1.82,5.12,5.12,0,0,1,4,1.55,5.93,5.93,0,0,1,1.42,4.18v1.87H245l0,.07a3.33,3.33,0,0,0,.83,2.06,2.62,2.62,0,0,0,2,.81,6.65,6.65,0,0,0,1.88-.23,8.3,8.3,0,0,0,1.64-.72l.93,2.11a6.88,6.88,0,0,1-2,1A8.74,8.74,0,0,1,247.43,160Zm-.3-10.52a1.75,1.75,0,0,0-1.5.73,3.69,3.69,0,0,0-.68,1.91l0,.06h4.2v-.31a2.73,2.73,0,0,0-.51-1.74A1.86,1.86,0,0,0,247.13,149.52Z" transform="translate(-28.21 -1.89)"/>
    <path d="M260.1,157.42a2,2,0,0,0,1.46-.53,1.9,1.9,0,0,0,.56-1.43h3.09l0,.07a3.91,3.91,0,0,1-1.44,3.22,6.1,6.1,0,0,1-8.07-.5,6.84,6.84,0,0,1-1.54-4.6v-.36a6.75,6.75,0,0,1,1.58-4.6,5.66,5.66,0,0,1,4.49-1.81,7.91,7.91,0,0,1,2.76.46,5.48,5.48,0,0,1,2,1.29l0,3.39h-2.78l-.56-2a1.94,1.94,0,0,0-.63-.37,2.31,2.31,0,0,0-.86-.15,2.17,2.17,0,0,0-2.05,1,5.48,5.48,0,0,0-.59,2.72v.36a5.78,5.78,0,0,0,.55,2.73A2,2,0,0,0,260.1,157.42Z" transform="translate(-28.21 -1.89)"/>
    <path d="M271.84,144v3.11h2.23v2.4h-2.23V156a1.45,1.45,0,0,0,.31,1.05,1.08,1.08,0,0,0,.82.32,5.4,5.4,0,0,0,.61,0,4.85,4.85,0,0,0,.59-.1l.3,2.47a8.17,8.17,0,0,1-1.14.27,9.14,9.14,0,0,1-1.22.08,3.62,3.62,0,0,1-2.72-1,4.24,4.24,0,0,1-1-3.08v-6.47h-1.86v-2.4h1.86V144Z" transform="translate(-28.21 -1.89)"/>
    <path d="M279.52,143.75a5.74,5.74,0,0,1-.62,2.47,7.14,7.14,0,0,1-1.51,2.12l-1.69-.93a7.66,7.66,0,0,0,.7-1.68,7.44,7.44,0,0,0,.25-2v-2.23h2.87Z" transform="translate(-28.21 -1.89)"/>
    <path d="M291.61,151.48h-2.3L289,149.9a2.82,2.82,0,0,0-.88-.47,3.44,3.44,0,0,0-1.18-.19,2.29,2.29,0,0,0-1.43.4,1.24,1.24,0,0,0-.53,1,1.14,1.14,0,0,0,.51,1,5.25,5.25,0,0,0,2,.68,8.19,8.19,0,0,1,3.49,1.37,3,3,0,0,1,1.14,2.5,3.32,3.32,0,0,1-1.47,2.8,6.38,6.38,0,0,1-3.87,1.08,8.21,8.21,0,0,1-2.69-.42,7.08,7.08,0,0,1-2.18-1.23l0-2.85h2.39l.47,1.66a2.07,2.07,0,0,0,.83.38,4.94,4.94,0,0,0,1.1.12,2.78,2.78,0,0,0,1.59-.38,1.16,1.16,0,0,0,.54-1,1.2,1.2,0,0,0-.55-1,5.62,5.62,0,0,0-2-.72,8.21,8.21,0,0,1-3.39-1.36,2.93,2.93,0,0,1-1.14-2.44,3.57,3.57,0,0,1,1.31-2.75,5.51,5.51,0,0,1,3.74-1.15,9.48,9.48,0,0,1,2.8.4,5.88,5.88,0,0,1,2.07,1Z" transform="translate(-28.21 -1.89)"/>
    <path d="M307.57,159.8c-.09-.21-.17-.43-.24-.65a5.63,5.63,0,0,1-.17-.68,4.65,4.65,0,0,1-1.48,1.14,4.42,4.42,0,0,1-2,.43,4.17,4.17,0,0,1-3-1,3.59,3.59,0,0,1-1.09-2.76,3.1,3.1,0,0,1,1.43-2.75,7.43,7.43,0,0,1,4.19-1H307V151.3a1.89,1.89,0,0,0-.53-1.42,2.2,2.2,0,0,0-1.56-.5,3.65,3.65,0,0,0-1,.13,2.56,2.56,0,0,0-.74.33l-.22,1.36h-2.58v-2.82a9.79,9.79,0,0,1,2.15-1.06,7.8,7.8,0,0,1,2.65-.44A6,6,0,0,1,309,148a3.92,3.92,0,0,1,1.47,3.28v5.24c0,.2,0,.38,0,.55a3.9,3.9,0,0,0,0,.5l1,.14v2.05Zm-3-2.29a3,3,0,0,0,1.4-.33,2.66,2.66,0,0,0,1-.84v-1.93h-1.75a2.38,2.38,0,0,0-1.65.51,1.56,1.56,0,0,0-.56,1.22,1.29,1.29,0,0,0,.41,1A1.73,1.73,0,0,0,304.61,157.51Z" transform="translate(-28.21 -1.89)"/>
    <path d="M312.42,149.18v-2.06h5l.17,1.47a4.11,4.11,0,0,1,1.34-1.26,3.65,3.65,0,0,1,1.83-.45,4.25,4.25,0,0,1,3.66,1.84,8.2,8.2,0,0,1,1.3,4.84v.25a7.26,7.26,0,0,1-1.3,4.52,4.31,4.31,0,0,1-3.63,1.71,4,4,0,0,1-1.77-.37,3.54,3.54,0,0,1-1.33-1.08v3.67l1.65.35v2.06H312.6v-2.06l1.65-.35V149.53Zm9.85,4.38a6.1,6.1,0,0,0-.6-2.9,2,2,0,0,0-1.83-1.12,2.63,2.63,0,0,0-1.32.32,2.26,2.26,0,0,0-.86.9v5.56a2.12,2.12,0,0,0,.86.82,3,3,0,0,0,1.35.28,2,2,0,0,0,1.82-1,5.22,5.22,0,0,0,.58-2.64Z" transform="translate(-28.21 -1.89)"/>
    <path d="M327,149.18v-2.06h5l.17,1.47a4,4,0,0,1,1.35-1.26,3.59,3.59,0,0,1,1.82-.45,4.25,4.25,0,0,1,3.66,1.84,8.2,8.2,0,0,1,1.3,4.84v.25a7.26,7.26,0,0,1-1.3,4.52,4.31,4.31,0,0,1-3.63,1.71,4,4,0,0,1-1.77-.37,3.54,3.54,0,0,1-1.33-1.08v3.67l1.66.35v2.06h-6.72v-2.06l1.65-.35V149.53Zm9.84,4.38a6.1,6.1,0,0,0-.6-2.9,2,2,0,0,0-1.83-1.12,2.63,2.63,0,0,0-1.32.32,2.26,2.26,0,0,0-.86.9v5.56a2.12,2.12,0,0,0,.86.82,3.06,3.06,0,0,0,1.35.28,2,2,0,0,0,1.82-1,5.12,5.12,0,0,0,.58-2.64Z" transform="translate(-28.21 -1.89)"/>
    <path d="M101.66,186.55l1.65-.35v-7.88h-1.89v-2.4h1.89v-1.41a4.3,4.3,0,0,1,1.23-3.29,4.85,4.85,0,0,1,3.46-1.15,6.62,6.62,0,0,1,.88.06c.3.05.63.11,1,.19l-.29,2.54-.55-.08a3.67,3.67,0,0,0-.61,0,1.61,1.61,0,0,0-1.26.46,1.82,1.82,0,0,0-.43,1.31v1.41h2.52v2.4h-2.52v7.88l1.65.35v2h-6.72Z" transform="translate(-28.21 -1.89)"/>
    <path d="M110.4,182.14a6.8,6.8,0,0,1,1.59-4.65,6.24,6.24,0,0,1,8.79,0,6.81,6.81,0,0,1,1.58,4.65v.25a6.79,6.79,0,0,1-1.58,4.65,6.27,6.27,0,0,1-8.79,0,6.75,6.75,0,0,1-1.59-4.65Zm3.42.25a5.48,5.48,0,0,0,.61,2.78,2.11,2.11,0,0,0,2,1.05,2.08,2.08,0,0,0,1.94-1.06,5.47,5.47,0,0,0,.61-2.77v-.25a5.36,5.36,0,0,0-.62-2.75,2.31,2.31,0,0,0-3.9,0,5.46,5.46,0,0,0-.61,2.75Z" transform="translate(-28.21 -1.89)"/>
    <path d="M124.11,186.55l1.64-.35v-7.87l-1.82-.35v-2.06h5l.15,1.85a4,4,0,0,1,1.15-1.54,2.61,2.61,0,0,1,1.63-.55c.18,0,.37,0,.57,0a3.47,3.47,0,0,1,.49.1l-.36,3.12-1.41,0a2.35,2.35,0,0,0-1.24.29,1.84,1.84,0,0,0-.75.83v6.17l1.64.35v2h-6.7Z" transform="translate(-28.21 -1.89)"/>
    <path d="M139,172.81v3.11h2.23v2.4H139v6.46a1.5,1.5,0,0,0,.31,1.05,1.09,1.09,0,0,0,.82.32,5.26,5.26,0,0,0,1.21-.13l.29,2.47a7.85,7.85,0,0,1-1.14.27,9.14,9.14,0,0,1-1.22.08,3.63,3.63,0,0,1-2.72-1,4.24,4.24,0,0,1-1-3.08v-6.47h-1.86v-2.4h1.86v-3.11Z" transform="translate(-28.21 -1.89)"/>
    <path d="M157.09,188.84a7.06,7.06,0,0,1-2.69-.47,5.14,5.14,0,0,1-2-1.37,5.31,5.31,0,0,1-1.89,1.32,6.93,6.93,0,0,1-2.82.52,5.11,5.11,0,0,1-3.47-1.06,3.61,3.61,0,0,1-1.23-2.9,3.27,3.27,0,0,1,1.49-2.87,7.75,7.75,0,0,1,4.34-1H151v-.69a2.12,2.12,0,0,0-.48-1.46,1.74,1.74,0,0,0-1.35-.53,2.32,2.32,0,0,0-1.49.44,1.36,1.36,0,0,0-.54,1.1l-3.31-.22,0-.07a3.18,3.18,0,0,1,1.43-2.79,6.57,6.57,0,0,1,4-1.1,6.88,6.88,0,0,1,2.18.33,4.61,4.61,0,0,1,1.67.93,4.87,4.87,0,0,1,1.67-.93,6.46,6.46,0,0,1,2.12-.33,5,5,0,0,1,3.9,1.55,6,6,0,0,1,1.42,4.2v1.85h-7.62l0,.07a3.14,3.14,0,0,0,.77,2.09,2.83,2.83,0,0,0,2.18.78,5.77,5.77,0,0,0,1.8-.24,9.45,9.45,0,0,0,1.64-.71l.91,2.16a7.29,7.29,0,0,1-2,1A8.58,8.58,0,0,1,157.09,188.84Zm-8.71-2.41a3.28,3.28,0,0,0,1.42-.36,3.69,3.69,0,0,0,1.17-.85v-2.06h-2.1a2.77,2.77,0,0,0-1.79.52,1.56,1.56,0,0,0-.63,1.25,1.37,1.37,0,0,0,.48,1.1A2.3,2.3,0,0,0,148.38,186.43Zm8.44-8.11a2,2,0,0,0-1.67.72,3.56,3.56,0,0,0-.63,2l0,.06h4.25v-.33a2.82,2.82,0,0,0-.5-1.75A1.74,1.74,0,0,0,156.82,178.32Z" transform="translate(-28.21 -1.89)"/>
    <path d="M163.45,172.38v-2.06h5.25V186.2l1.65.35v2h-6.72v-2l1.65-.35V172.73Z" transform="translate(-28.21 -1.89)"/>
    <path d="M171.1,172.38v-2.06h5.25V186.2l1.65.35v2h-6.72v-2l1.65-.35V172.73Z" transform="translate(-28.21 -1.89)"/>
    <path d="M185.19,188.84a5.73,5.73,0,0,1-4.39-1.75,6.32,6.32,0,0,1-1.64-4.47v-.47a6.92,6.92,0,0,1,1.56-4.65,5.78,5.78,0,0,1,8.15-.27,6,6,0,0,1,1.42,4.18v1.87h-7.57l0,.07a3.28,3.28,0,0,0,.84,2.06,2.61,2.61,0,0,0,2,.81,6.68,6.68,0,0,0,1.89-.23,8.56,8.56,0,0,0,1.64-.72l.92,2.11a6.76,6.76,0,0,1-2,1A8.68,8.68,0,0,1,185.19,188.84Zm-.31-10.52a1.78,1.78,0,0,0-1.5.73,3.87,3.87,0,0,0-.68,1.91l0,.06h4.19v-.31a2.73,2.73,0,0,0-.51-1.74A1.84,1.84,0,0,0,184.88,178.32Z" transform="translate(-28.21 -1.89)"/>
    <path d="M192.16,186.55l1.64-.35v-7.87L192,178v-2.06h5l.15,1.85a4,4,0,0,1,1.15-1.54,2.61,2.61,0,0,1,1.63-.55c.18,0,.37,0,.57,0a3.47,3.47,0,0,1,.49.1l-.36,3.12-1.4,0a2.39,2.39,0,0,0-1.25.29,1.84,1.84,0,0,0-.75.83v6.17l1.64.35v2h-6.7Z" transform="translate(-28.21 -1.89)"/>
    <path d="M216.14,187.05a4.2,4.2,0,0,1-1.42,1.34,3.75,3.75,0,0,1-1.85.45,4.29,4.29,0,0,1-3.64-1.71,7.33,7.33,0,0,1-1.3-4.52v-.25a8.27,8.27,0,0,1,1.3-4.84,4.25,4.25,0,0,1,3.66-1.84,3.49,3.49,0,0,1,1.71.42,4.26,4.26,0,0,1,1.34,1.18v-4.55l-1.83-.35v-2.06h5.25V186.2l1.64.35v2h-4.61Zm-4.78-4.44a5.24,5.24,0,0,0,.55,2.62,1.93,1.93,0,0,0,1.82,1,2.72,2.72,0,0,0,1.31-.3,2.52,2.52,0,0,0,.9-.88v-5.38a2.63,2.63,0,0,0-.9-.94,2.33,2.33,0,0,0-1.28-.34,1.91,1.91,0,0,0-1.83,1.12,6.37,6.37,0,0,0-.57,2.9Z" transform="translate(-28.21 -1.89)"/>
    <path d="M222,186.55l1.66-.35v-7.87l-1.83-.35v-2.06h5.25V186.2l1.64.35v2H222Zm5.08-13.67h-3.42v-2.56h3.42Z" transform="translate(-28.21 -1.89)"/>
    <path d="M230,182.36a8.2,8.2,0,0,1,1.3-4.84,4.25,4.25,0,0,1,3.66-1.84,3.6,3.6,0,0,1,1.88.48,4.13,4.13,0,0,1,1.38,1.35l.25-1.59h3v12.3a5.24,5.24,0,0,1-1.57,4,6,6,0,0,1-4.33,1.5,8.42,8.42,0,0,1-2-.27,8.86,8.86,0,0,1-2-.72l.63-2.4a10.59,10.59,0,0,0,1.64.56,7,7,0,0,0,1.73.2,2.27,2.27,0,0,0,1.88-.76,3.28,3.28,0,0,0,.62-2.12v-.83a3.8,3.8,0,0,1-1.32,1.09,3.92,3.92,0,0,1-1.75.37,4.33,4.33,0,0,1-3.64-1.71,7.28,7.28,0,0,1-1.3-4.52Zm3.42.25a5.12,5.12,0,0,0,.56,2.62,1.94,1.94,0,0,0,1.83,1,2.87,2.87,0,0,0,1.33-.28,2.26,2.26,0,0,0,.87-.84v-5.51a2.4,2.4,0,0,0-.87-.89,2.59,2.59,0,0,0-1.31-.32,1.92,1.92,0,0,0-1.83,1.12,6.23,6.23,0,0,0-.58,2.9Z" transform="translate(-28.21 -1.89)"/>
    <path d="M249.23,186.55l1.65-.35V172.73l-1.83-.35v-2.06h5.24v7.21a4.33,4.33,0,0,1,1.47-1.36,4.22,4.22,0,0,1,5,.83,6.12,6.12,0,0,1,1.13,4.07v5.13l1.64.35v2H257v-2l1.47-.35v-5.15A3.25,3.25,0,0,0,258,179a1.92,1.92,0,0,0-1.55-.62,2.88,2.88,0,0,0-1.25.26,2.55,2.55,0,0,0-.9.73v6.87l1.48.35v2h-6.54Z" transform="translate(-28.21 -1.89)"/>
    <path d="M270.05,178l-1.19.22,1.68,5.67.22,1.2h.07l.24-1.2,1.66-5.66-1.22-.23v-2.06h5.75V178l-1.1.18-3.74,10.44h-3.27l-3.75-10.44-1.1-.18v-2.06h5.75Z" transform="translate(-28.21 -1.89)"/>
    <path d="M278.35,182.14a6.8,6.8,0,0,1,1.59-4.65,6.24,6.24,0,0,1,8.79,0,6.76,6.76,0,0,1,1.59,4.65v.25a6.75,6.75,0,0,1-1.59,4.65,6.27,6.27,0,0,1-8.79,0,6.75,6.75,0,0,1-1.59-4.65Zm3.42.25a5.59,5.59,0,0,0,.61,2.78,2.12,2.12,0,0,0,2,1.05,2.08,2.08,0,0,0,1.94-1.06,5.46,5.46,0,0,0,.62-2.77v-.25a5.46,5.46,0,0,0-.62-2.75,2.12,2.12,0,0,0-2-1.07,2.09,2.09,0,0,0-1.95,1.07,5.57,5.57,0,0,0-.61,2.75Z" transform="translate(-28.21 -1.89)"/>
    <path d="M292.06,186.55l1.64-.35v-7.87l-1.81-.35v-2.06h5l.15,1.85a4,4,0,0,1,1.15-1.54,2.61,2.61,0,0,1,1.63-.55c.18,0,.37,0,.57,0a4,4,0,0,1,.5.1l-.37,3.12-1.4,0a2.32,2.32,0,0,0-1.24.29,1.84,1.84,0,0,0-.75.83v6.17l1.64.35v2h-6.71Z" transform="translate(-28.21 -1.89)"/>
    <path d="M301.72,186.55l1.64-.35v-7.87l-1.82-.35v-2.06h5l.15,1.81a4.68,4.68,0,0,1,1.56-1.51,4,4,0,0,1,2.07-.54,3.84,3.84,0,0,1,3,1.21,5.59,5.59,0,0,1,1.08,3.79v5.52l1.64.35v2h-6.54v-2l1.47-.35v-5.51a2.57,2.57,0,0,0-.52-1.81,2.05,2.05,0,0,0-1.56-.54,2.71,2.71,0,0,0-1.22.28,2.41,2.41,0,0,0-.9.78v6.8l1.38.35v2h-6.44Z" transform="translate(-28.21 -1.89)"/>
    <path d="M325.22,188.6A5.12,5.12,0,0,1,325,188a5.63,5.63,0,0,1-.17-.68,4.65,4.65,0,0,1-1.48,1.14,4.42,4.42,0,0,1-2,.43,4.15,4.15,0,0,1-2.95-1,3.59,3.59,0,0,1-1.1-2.76,3.13,3.13,0,0,1,1.43-2.75,7.43,7.43,0,0,1,4.19-1h1.75V180.1a1.85,1.85,0,0,0-.53-1.42,2.2,2.2,0,0,0-1.56-.5,3.7,3.7,0,0,0-1,.13,2.69,2.69,0,0,0-.74.33l-.22,1.36H318v-2.82a9.87,9.87,0,0,1,2.16-1.06,7.7,7.7,0,0,1,2.64-.44,6,6,0,0,1,3.82,1.16,3.92,3.92,0,0,1,1.47,3.28v5.24c0,.2,0,.38,0,.55a3.9,3.9,0,0,0,0,.5l1,.14v2ZM320.64,172a2.15,2.15,0,0,1,.73-1.64,2.52,2.52,0,0,1,1.77-.66,2.45,2.45,0,0,1,1.74.66,2.16,2.16,0,0,1,.71,1.64,2.07,2.07,0,0,1-.71,1.61,2.52,2.52,0,0,1-1.74.64,2.61,2.61,0,0,1-1.78-.64A2,2,0,0,1,320.64,172Zm1.61,14.36a3,3,0,0,0,1.41-.33,2.62,2.62,0,0,0,1-.84v-1.93h-1.75a2.4,2.4,0,0,0-1.65.51,1.6,1.6,0,0,0-.56,1.22,1.26,1.26,0,0,0,.42,1A1.69,1.69,0,0,0,322.25,186.31ZM322,172a1.11,1.11,0,0,0,1.15,1.14,1,1,0,0,0,.79-.32,1.15,1.15,0,0,0,.3-.82,1.21,1.21,0,0,0-.3-.85,1,1,0,0,0-.79-.33,1.08,1.08,0,0,0-.82.34A1.14,1.14,0,0,0,322,172Z" transform="translate(-28.21 -1.89)"/>
    <path d="M330.58,186.55l1.64-.35v-7.87l-1.81-.35v-2.06h5l.15,1.85a4,4,0,0,1,1.15-1.54,2.61,2.61,0,0,1,1.63-.55c.18,0,.37,0,.57,0a4,4,0,0,1,.5.1l-.37,3.12-1.4,0a2.39,2.39,0,0,0-1.25.29,2,2,0,0,0-.75.83v6.17l1.65.35v2h-6.71Z" transform="translate(-28.21 -1.89)"/>
    <path d="M354.56,187.05a4.26,4.26,0,0,1-1.41,1.34,3.82,3.82,0,0,1-1.86.45,4.3,4.3,0,0,1-3.64-1.71,7.32,7.32,0,0,1-1.29-4.52v-.25a8.2,8.2,0,0,1,1.3-4.84,4.22,4.22,0,0,1,3.65-1.84,3.44,3.44,0,0,1,1.71.42,4.16,4.16,0,0,1,1.34,1.18v-4.55l-1.83-.35v-2.06h5.25V186.2l1.64.35v2h-4.6Zm-4.78-4.44a5.24,5.24,0,0,0,.55,2.62,2,2,0,0,0,1.83,1,2.68,2.68,0,0,0,1.3-.3,2.45,2.45,0,0,0,.9-.88v-5.38a2.47,2.47,0,0,0-.9-.94,2.33,2.33,0,0,0-1.28-.34,1.91,1.91,0,0,0-1.83,1.12,6.37,6.37,0,0,0-.57,2.9Z" transform="translate(-28.21 -1.89)"/>
    <path d="M360.41,186.55l1.65-.35v-7.87l-1.83-.35v-2.06h5.25V186.2l1.64.35v2h-6.71Zm5.07-13.67h-3.42v-2.56h3.42Z" transform="translate(-28.21 -1.89)"/>
    <path d="M373.3,172.81v3.11h2.22v2.4H373.3v6.46a1.5,1.5,0,0,0,.3,1.05,1.09,1.09,0,0,0,.82.32,5.1,5.1,0,0,0,1.21-.13l.29,2.47a8,8,0,0,1-1.13.27,9.37,9.37,0,0,1-1.22.08,3.66,3.66,0,0,1-2.73-1,4.29,4.29,0,0,1-.95-3.08v-6.47H368v-2.4h1.87v-3.11Z" transform="translate(-28.21 -1.89)"/>
    <path d="M161,201.18v-2.06h5.24v10.59H167l2-2.78-1.11-.15v-2.06h6.23v2.06l-1.5.34-2.28,3.14,3.2,4.82,1.3.27v2.05h-5.86v-2.05l.7-.12-1.94-3.14h-1.47V215l1.48.35v2.05h-6.54v-2.05l1.65-.35V201.53Z" transform="translate(-28.21 -1.89)"/>
    <path d="M176.15,210.94a6.84,6.84,0,0,1,1.58-4.65,5.57,5.57,0,0,1,4.39-1.81,6.8,6.8,0,0,1,1,.08c.33.05.66.12,1,.2l.78-1.6h1.9l-1.15,2.35a5.49,5.49,0,0,1,1.82,2.26,7.54,7.54,0,0,1,.64,3.17v.25a6.79,6.79,0,0,1-1.59,4.66,5.53,5.53,0,0,1-4.37,1.79,7.56,7.56,0,0,1-1.19-.09,5.87,5.87,0,0,1-1.06-.27l-.87,1.77h-1.9l1.27-2.59a5.25,5.25,0,0,1-1.68-2.21,7.87,7.87,0,0,1-.57-3.06Zm3.42.25a8.61,8.61,0,0,0,.07,1.18,3.61,3.61,0,0,0,.25.9h.05l3-6-.39-.08a1.75,1.75,0,0,0-.4,0,2.07,2.07,0,0,0-1.94,1.07,5.46,5.46,0,0,0-.61,2.75Zm5.13-.25a7.21,7.21,0,0,0-.12-1.35,3.41,3.41,0,0,0-.34-1.05h-.07l-3.07,6.27a2.08,2.08,0,0,0,.48.16,3.27,3.27,0,0,0,.57.05,2.08,2.08,0,0,0,1.94-1.06,5.44,5.44,0,0,0,.61-2.77Z" transform="translate(-28.21 -1.89)"/>
    <path d="M198.05,215.85a4.26,4.26,0,0,1-1.41,1.34,3.82,3.82,0,0,1-1.86.45,4.3,4.3,0,0,1-3.64-1.71,7.32,7.32,0,0,1-1.29-4.52v-.25a8.2,8.2,0,0,1,1.3-4.84,4.22,4.22,0,0,1,3.65-1.84,3.44,3.44,0,0,1,1.71.42,4.16,4.16,0,0,1,1.34,1.18v-4.55l-1.83-.35v-2.06h5.25V215l1.64.35v2.05h-4.6Zm-4.78-4.44a5.24,5.24,0,0,0,.55,2.62,2,2,0,0,0,1.83.95,2.68,2.68,0,0,0,1.3-.3,2.45,2.45,0,0,0,.9-.88v-5.38a2.47,2.47,0,0,0-.9-.94,2.42,2.42,0,0,0-1.28-.34,1.91,1.91,0,0,0-1.83,1.12,6.37,6.37,0,0,0-.57,2.9Z" transform="translate(-28.21 -1.89)"/>
    <path d="M216,217.64a5.73,5.73,0,0,1-4.39-1.75,6.32,6.32,0,0,1-1.64-4.47V211a7,7,0,0,1,1.55-4.65,5.79,5.79,0,0,1,8.16-.27,6,6,0,0,1,1.41,4.18v1.87h-7.57l0,.07a3.28,3.28,0,0,0,.84,2.06,2.6,2.6,0,0,0,2,.81,6.68,6.68,0,0,0,1.89-.23,8.56,8.56,0,0,0,1.64-.72l.92,2.11a6.76,6.76,0,0,1-2,1A8.68,8.68,0,0,1,216,217.64Zm-.31-10.52a1.78,1.78,0,0,0-1.5.73,3.78,3.78,0,0,0-.68,1.91l0,.06h4.19v-.31a2.73,2.73,0,0,0-.51-1.74A1.84,1.84,0,0,0,215.65,207.12Z" transform="translate(-28.21 -1.89)"/>
    <path d="M222.93,215.35l1.64-.35v-7.87l-1.82-.35v-2.06h5l.15,1.85a4,4,0,0,1,1.15-1.54,2.61,2.61,0,0,1,1.63-.55c.18,0,.36,0,.56,0l.5.1-.36,3.12-1.41,0a2.35,2.35,0,0,0-1.24.29,1.84,1.84,0,0,0-.75.83V215l1.64.35v2.05h-6.7Z" transform="translate(-28.21 -1.89)"/>
    <path d="M238.84,215.35l1.65-.35v-7.88h-1.88v-2.4h1.88v-1.41a4.3,4.3,0,0,1,1.23-3.29,4.93,4.93,0,0,1,3.46-1.15,6.77,6.77,0,0,1,.89.06c.3,0,.63.11,1,.19l-.3,2.54-.54-.08a3.79,3.79,0,0,0-.62,0,1.64,1.64,0,0,0-1.26.46,1.86,1.86,0,0,0-.42,1.31v1.41h2.52v2.4h-2.52V215l1.65.35v2.05h-6.73Z" transform="translate(-28.21 -1.89)"/>
    <path d="M261.76,217.64a7.13,7.13,0,0,1-2.69-.47,5.18,5.18,0,0,1-2-1.37,5.28,5.28,0,0,1-1.89,1.32,6.93,6.93,0,0,1-2.82.52,5.11,5.11,0,0,1-3.47-1.06,3.61,3.61,0,0,1-1.23-2.9,3.27,3.27,0,0,1,1.49-2.87,7.75,7.75,0,0,1,4.34-1h2.12v-.69a2.12,2.12,0,0,0-.48-1.46,1.74,1.74,0,0,0-1.35-.53,2.32,2.32,0,0,0-1.49.44,1.36,1.36,0,0,0-.54,1.1l-3.32-.22,0-.07a3.14,3.14,0,0,1,1.43-2.78,6.49,6.49,0,0,1,4-1.11,6.79,6.79,0,0,1,2.18.33,4.57,4.57,0,0,1,1.68.93,4.87,4.87,0,0,1,1.67-.93,6.44,6.44,0,0,1,2.11-.33A5.05,5.05,0,0,1,265.4,206a6,6,0,0,1,1.41,4.2v1.85H259.2l0,.07a3.14,3.14,0,0,0,.78,2.09,2.83,2.83,0,0,0,2.18.78,5.77,5.77,0,0,0,1.8-.24,9.79,9.79,0,0,0,1.64-.71l.9,2.16a7,7,0,0,1-2,1A8.5,8.5,0,0,1,261.76,217.64Zm-8.7-2.41a3.2,3.2,0,0,0,1.41-.36,3.62,3.62,0,0,0,1.18-.85V212h-2.1a2.75,2.75,0,0,0-1.79.52,1.57,1.57,0,0,0-.64,1.25,1.38,1.38,0,0,0,.49,1.1A2.22,2.22,0,0,0,253.06,215.23Zm8.43-8.11a2,2,0,0,0-1.66.72,3.48,3.48,0,0,0-.63,1.95l0,.06h4.24v-.33a2.82,2.82,0,0,0-.49-1.75A1.77,1.77,0,0,0,261.49,207.12Z" transform="translate(-28.21 -1.89)"/>
    <path d="M268.75,215.35l1.64-.35v-7.87l-1.82-.35v-2.06h5l.15,1.85a4,4,0,0,1,1.15-1.54,2.61,2.61,0,0,1,1.63-.55,5.46,5.46,0,0,1,.56,0l.5.1-.36,3.12-1.41,0a2.35,2.35,0,0,0-1.24.29,1.84,1.84,0,0,0-.75.83V215l1.64.35v2.05h-6.7Z" transform="translate(-28.21 -1.89)"/>
    <path d="M286.84,215.85a4.26,4.26,0,0,1-1.41,1.34,3.77,3.77,0,0,1-1.86.45,4.31,4.31,0,0,1-3.64-1.71,7.32,7.32,0,0,1-1.29-4.52v-.25a8.2,8.2,0,0,1,1.3-4.84,4.25,4.25,0,0,1,3.66-1.84,3.49,3.49,0,0,1,1.71.42,4.23,4.23,0,0,1,1.33,1.18v-4.55l-1.83-.35v-2.06h5.25V215l1.65.35v2.05H287.1Zm-4.78-4.44a5.23,5.23,0,0,0,.56,2.62,1.93,1.93,0,0,0,1.82.95,2.68,2.68,0,0,0,1.3-.3,2.37,2.37,0,0,0,.9-.88v-5.38a2.52,2.52,0,0,0-.89-.94,2.46,2.46,0,0,0-1.29-.34,1.9,1.9,0,0,0-1.82,1.12,6.23,6.23,0,0,0-.58,2.9Z" transform="translate(-28.21 -1.89)"/>
    <path d="M292.69,215.35l1.65-.35v-7.87l-1.83-.35v-2.06h5.25V215l1.64.35v2.05h-6.71Zm5.07-13.67h-3.42v-2.56h3.42Z" transform="translate(-28.21 -1.89)"/>
    <path d="M300.74,211.16a8.2,8.2,0,0,1,1.31-4.84,4.25,4.25,0,0,1,3.66-1.84,3.56,3.56,0,0,1,1.87.48,4.25,4.25,0,0,1,1.39,1.35l.24-1.59h3V217a5.25,5.25,0,0,1-1.58,4,6,6,0,0,1-4.33,1.5,8.91,8.91,0,0,1-2-.26,9.6,9.6,0,0,1-2-.73l.64-2.4a10.25,10.25,0,0,0,1.64.56,6.9,6.9,0,0,0,1.73.2,2.28,2.28,0,0,0,1.88-.76,3.28,3.28,0,0,0,.62-2.12v-.83a3.83,3.83,0,0,1-1.33,1.09,3.9,3.9,0,0,1-1.74.37,4.31,4.31,0,0,1-3.64-1.71,7.29,7.29,0,0,1-1.31-4.52Zm3.42.25a5.23,5.23,0,0,0,.56,2.62,2,2,0,0,0,1.83.95,2.82,2.82,0,0,0,1.33-.28,2.15,2.15,0,0,0,.88-.84v-5.51a2.35,2.35,0,0,0-.88-.89,2.56,2.56,0,0,0-1.3-.32,1.93,1.93,0,0,0-1.84,1.12,6.36,6.36,0,0,0-.58,2.9Z" transform="translate(-28.21 -1.89)"/>
    <path d="M319.29,201.61v3.11h2.23v2.4h-2.23v6.46a1.45,1.45,0,0,0,.31,1,1.08,1.08,0,0,0,.82.32,5.4,5.4,0,0,0,.61,0,5.2,5.2,0,0,0,.59-.1l.3,2.47a8.51,8.51,0,0,1-1.14.27,9.26,9.26,0,0,1-1.22.08,3.62,3.62,0,0,1-2.72-1,4.24,4.24,0,0,1-1-3.08v-6.47H314v-2.4h1.86v-3.11Z" transform="translate(-28.21 -1.89)"/>
  </g>
  <g>
    <path d="M29.51,53.53V47.22H51.13v6.31l-5.59,1.08V92.07l5.59,1.08v6.27H29.51V93.15l5.59-1.08V54.61Z" transform="translate(-28.21 -1.89)" fill="#561018"/>
    <path d="M73.11,93.15l5.56-1.08V54.61l-5.56-1.08V47.22H94.44v6.31l-5.3,1.08V68.55h4.55l10-14.59-3.09-.43V47.22h20.69v6.31l-5.66,1L102.83,71.64l14.41,20.61,5.24.9v6.27H101.79V93.15l3.23-.43L95,77.62H89.14V92.07l5.3,1.08v6.27H73.11Z" transform="translate(-28.21 -1.89)" fill="#561018"/>
    <path d="M169.76,73.72q0,11.48-6.57,19T146,100.18a24.46,24.46,0,0,1-6.38-.81A20.74,20.74,0,0,1,134.08,97l-3.41,5.84h-5.16l5-8.57a23.74,23.74,0,0,1-6-8.89,31.39,31.39,0,0,1-2.1-11.65v-.79q0-11.4,6.49-18.93T146,46.47a24.05,24.05,0,0,1,5.7.66,23.07,23.07,0,0,1,5.17,1.92l2.36-4h5.17l-3.8,6.49a24.12,24.12,0,0,1,6.77,9.19,30.67,30.67,0,0,1,2.41,12.25Zm-36.86,0a33.25,33.25,0,0,0,.61,6.61,16.16,16.16,0,0,0,1.86,5.15l.22,0,17-29.11A12.87,12.87,0,0,0,146,54.64c-4.39,0-7.68,1.67-9.84,5s-3.24,7.75-3.24,13.2Zm26.42-.86a30,30,0,0,0-.86-7.39A15.76,15.76,0,0,0,156,59.88l-.21,0L138.45,89.49a10.13,10.13,0,0,0,3.36,1.9A12.92,12.92,0,0,0,146,92q6.63,0,10-5t3.33-13.28Z" transform="translate(-28.21 -1.89)" fill="#561018"/>
    <path d="M172.05,93.15l5.56-1.08V54.61l-5.56-1.08V47.22h21.33v6.31l-5.3,1.08V68.55h4.55l10-14.59-3.08-.43V47.22h20.68v6.31l-5.66,1L201.77,71.64l14.42,20.61,5.23.9v6.27H200.73V93.15l3.23-.43-10-15.1h-5.84V92.07l5.3,1.08v6.27H172.05Z" transform="translate(-28.21 -1.89)" fill="#561018"/>
    <path d="M224.54,93.15l5.56-1.08V54.61l-5.56-1.08V47.22h21.33v6.31l-5.3,1.08V68.55h4.55l10-14.59-3.08-.43V47.22h20.68v6.31l-5.66,1L254.26,71.64l14.42,20.61,5.23.9v6.27H253.22V93.15l3.23-.43-10-15.1h-5.84V92.07l5.3,1.08v6.27H224.54Z" transform="translate(-28.21 -1.89)" fill="#561018"/>
    <path d="M310.73,76.48H293.06V91.39h16.85l.47-6.24h7.95V99.42H277V93.15l5.56-1.08V54.61L277,53.53V47.22h41.23V61.53h-8l-.46-6.24H293.06V68.41h17.67Z" transform="translate(-28.21 -1.89)" fill="#561018"/>
    <path d="M377.28,47.22v6.31l-5.59,1.08V99.42H361.25L340.17,64.29l-.21,0V92.07l5.59,1.08v6.27H323.93V93.15l5.56-1.08V54.61l-5.56-1.08V47.22h16L361,82.36l.21,0V54.61l-5.59-1.08V47.22h21.62Z" transform="translate(-28.21 -1.89)" fill="#561018"/>
    <path d="M414.35,76.48H396.68V91.39h16.85l.46-6.24h8V99.42h-41.3V93.15l5.56-1.08V54.61l-5.56-1.08V47.22h41.23V61.53h-8l-.46-6.24H396.68V68.41h17.67Z" transform="translate(-28.21 -1.89)" fill="#561018"/>
    <path d="M474.17,47.22V61.13h-8l-.43-5.84H456.1V92.07l5.6,1.08v6.27H440V93.15l5.59-1.08V55.29h-9.57l-.43,5.84h-8V47.22Z" transform="translate(-28.21 -1.89)" fill="#561018"/>
  </g>
</svg>
