<svg id="Layer_1" data-name="Layer 1" xmlns="http://www.w3.org/2000/svg" xmlns:xlink="http://www.w3.org/1999/xlink" viewBox="0 0 506.09 283.5">
  <defs>
    <clipPath id="clip-path" transform="translate(0.7 -1.89)">
      <rect x="-56" y="-39.7" width="718.51" height="359.07" fill="none"/>
    </clipPath>
  </defs>
  <title>tekst</title>
  <g>
    <path d="M.91,221.16l2.9-.56V201.08l-2.9-.56v-3.28H22.56v7.45H18.37l-.24-3.25H9.26v7.49h9.52v4.2H9.26v7.47l2.91.56v3.27H.91Z" transform="translate(0.7 -1.89)" fill="#561018"/>
    <path d="M48.66,211a14.47,14.47,0,0,1-3.41,9.87,11.31,11.31,0,0,1-9,3.91,11.2,11.2,0,0,1-8.9-3.91A14.5,14.5,0,0,1,24,211v-.41a14.57,14.57,0,0,1,3.38-9.86,11.17,11.17,0,0,1,8.89-3.93,11.33,11.33,0,0,1,9,3.93,14.45,14.45,0,0,1,3.42,9.86Zm-5.43-.45a12.13,12.13,0,0,0-1.76-6.85,5.83,5.83,0,0,0-5.19-2.64,5.66,5.66,0,0,0-5.12,2.62,12.44,12.44,0,0,0-1.69,6.87V211A12.51,12.51,0,0,0,31.18,218a5.7,5.7,0,0,0,5.12,2.62A5.82,5.82,0,0,0,41.49,218,12.34,12.34,0,0,0,43.23,211Z" transform="translate(0.7 -1.89)" fill="#561018"/>
    <path d="M63.06,197.24a11.21,11.21,0,0,1,7.26,2.12A7.08,7.08,0,0,1,73,205.21a5.94,5.94,0,0,1-1.1,3.57,7.75,7.75,0,0,1-3.23,2.44,5.87,5.87,0,0,1,3.46,2.37,7.47,7.47,0,0,1,1,4.09v1.39a2.34,2.34,0,0,0,.36,1.39,1.62,1.62,0,0,0,1.18.59l.67.09v3.29H72.53A4.43,4.43,0,0,1,68.77,223a6,6,0,0,1-1.08-3.72v-1.55a4.4,4.4,0,0,0-1-3.11,4,4,0,0,0-3-1.18H59.2v7.17l2.91.56v3.27H50.85v-3.27l2.89-.56V201.08l-2.89-.56v-3.28H63.06Zm-3.86,12H63a5.12,5.12,0,0,0,3.41-1,3.46,3.46,0,0,0,1.14-2.8,3.85,3.85,0,0,0-1.13-2.92,4.59,4.59,0,0,0-3.33-1.09H59.2Z" transform="translate(0.7 -1.89)" fill="#561018"/>
    <path d="M100.16,197.24v7.24H96l-.23-3h-5V220.6l2.91.56v3.27H82.38v-3.27l2.92-.56V201.44h-5l-.22,3H75.92v-7.24Z" transform="translate(0.7 -1.89)" fill="#561018"/>
    <path d="M98.6,221.16l2.54-.38,12.66-23.54h19v6.89h-4.16l-.2-2.64h-6.76l.29,6.84h9.32v4.24h-9.15l.32,7.62h7.11l.23-2.64h4.14v6.88H114.29v-3.27l2.73-.52-.12-2.83h-8l-1.55,3.09,1.57.26v3.27H98.6Zm12.4-7.6h5.72l-.43-10.35-.1,0Z" transform="translate(0.7 -1.89)" fill="#561018"/>
    <path d="M136.64,224.43v-3.27l2.9-.56V201.08l-2.9-.56v-3.28H147.9v3.28l-2.91.56v19.16h7.67l.26-3.42h4.17v7.61Z" transform="translate(0.7 -1.89)" fill="#561018"/>
    <path d="M159.05,224.43v-3.27l2.89-.56V201.08l-2.89-.56v-3.28h11.26v3.28l-2.91.56v19.16h7.67l.26-3.42h4.17v7.61Z" transform="translate(0.7 -1.89)" fill="#561018"/>
    <path d="M199,212.47H189.8v7.77h8.78l.24-3.25H203v7.44H181.46v-3.27l2.89-.56V201.08l-2.89-.56v-3.28h21.47v7.45h-4.18l-.24-3.25H189.8v6.83H199Z" transform="translate(0.7 -1.89)" fill="#561018"/>
    <path d="M218.09,197.24a11.26,11.26,0,0,1,7.27,2.12,7.1,7.1,0,0,1,2.63,5.85,5.94,5.94,0,0,1-1.1,3.57,7.69,7.69,0,0,1-3.23,2.44,5.87,5.87,0,0,1,3.46,2.37,7.38,7.38,0,0,1,1.06,4.09v1.39a2.42,2.42,0,0,0,.35,1.39,1.62,1.62,0,0,0,1.18.59l.67.09v3.29h-2.82q-2.67,0-3.75-1.44a6,6,0,0,1-1.09-3.72v-1.55a4.4,4.4,0,0,0-1.05-3.11,4,4,0,0,0-3-1.18h-4.46v7.17l2.91.56v3.27H205.88v-3.27l2.9-.56V201.08l-2.9-.56v-3.28h12.21Zm-3.86,12H218a5.15,5.15,0,0,0,3.42-1,3.46,3.46,0,0,0,1.14-2.8,3.89,3.89,0,0,0-1.13-2.92,4.63,4.63,0,0,0-3.34-1.09h-3.86Z" transform="translate(0.7 -1.89)" fill="#561018"/>
    <path d="M253.78,197.24a11.21,11.21,0,0,1,8.21,3.18,11,11,0,0,1,3.23,8.17v4.5a10.91,10.91,0,0,1-3.23,8.17,11.24,11.24,0,0,1-8.21,3.17H241.55v-3.27l2.89-.56V201.08l-2.89-.56v-3.28h12.23Zm-3.89,4.2v18.8h3.61a5.68,5.68,0,0,0,4.59-2,7.75,7.75,0,0,0,1.66-5.17v-4.54a7.7,7.7,0,0,0-1.66-5.13,5.68,5.68,0,0,0-4.59-2Z" transform="translate(0.7 -1.89)" fill="#561018"/>
    <path d="M267.88,200.52v-3.28h11.26v3.28l-2.92.56V220.6l2.92.56v3.27H267.88v-3.27l2.91-.56V201.08Z" transform="translate(0.7 -1.89)" fill="#561018"/>
    <path d="M303.75,221.4a12.07,12.07,0,0,1-3.87,2.36,16.69,16.69,0,0,1-6.42,1.06,11.71,11.71,0,0,1-9-3.69,13.45,13.45,0,0,1-3.46-9.59v-.93a14.4,14.4,0,0,1,3.41-9.94,11.36,11.36,0,0,1,8.9-3.83,16,16,0,0,1,5.83,1,12.61,12.61,0,0,1,4.4,2.76v5.47h-4l-.77-3.64a5.38,5.38,0,0,0-2-1,9.23,9.23,0,0,0-2.81-.38,6.5,6.5,0,0,0-5.54,2.63,11.15,11.15,0,0,0-2,6.89v1a10.41,10.41,0,0,0,1.94,6.62,6.69,6.69,0,0,0,5.6,2.48,10.1,10.1,0,0,0,2.66-.29,5.68,5.68,0,0,0,1.6-.65v-4.61l-3.89-.3V211h9.36Z" transform="translate(0.7 -1.89)" fill="#561018"/>
    <path d="M315.85,200.52v-3.28h11.26v3.28l-2.91.56v7.85h11.09v-7.85l-2.92-.56v-3.28h11.26v3.28l-2.91.56V220.6l2.91.56v3.27H332.37v-3.27l2.92-.56v-7.47H324.2v7.47l2.91.56v3.27H315.85v-3.27l2.89-.56V201.08Z" transform="translate(0.7 -1.89)" fill="#561018"/>
    <path d="M355.27,200.52l-2.08.38L358,217.2l.34,1.49h.11l.32-1.45,4.83-16.34-2.05-.38v-3.28h9.93v3.28l-2.27.3-8,23.61H355.6l-8-23.61-2.24-.3v-3.28h9.94Z" transform="translate(0.7 -1.89)" fill="#561018"/>
    <path d="M397.78,211a14.42,14.42,0,0,1-3.42,9.87,12.13,12.13,0,0,1-17.84,0,14.5,14.5,0,0,1-3.39-9.87v-.41a14.57,14.57,0,0,1,3.38-9.86,11.16,11.16,0,0,1,8.89-3.93,11.29,11.29,0,0,1,9,3.93,14.41,14.41,0,0,1,3.43,9.86Zm-5.43-.45a12.13,12.13,0,0,0-1.76-6.85,5.83,5.83,0,0,0-5.19-2.64,5.69,5.69,0,0,0-5.13,2.62,12.52,12.52,0,0,0-1.68,6.87V211a12.51,12.51,0,0,0,1.7,6.92,5.73,5.73,0,0,0,5.13,2.62,5.83,5.83,0,0,0,5.19-2.62,12.34,12.34,0,0,0,1.74-6.92Z" transform="translate(0.7 -1.89)" fill="#561018"/>
    <path d="M412.18,197.24a11.21,11.21,0,0,1,7.26,2.12,7.08,7.08,0,0,1,2.64,5.85,5.88,5.88,0,0,1-1.11,3.57,7.62,7.62,0,0,1-3.23,2.44,5.89,5.89,0,0,1,3.47,2.37,7.47,7.47,0,0,1,1.05,4.09v1.39a2.34,2.34,0,0,0,.36,1.39,1.6,1.6,0,0,0,1.17.59l.68.09v3.29h-2.82c-1.78,0-3-.48-3.76-1.44a6,6,0,0,1-1.08-3.72v-1.55a4.36,4.36,0,0,0-1.06-3.11,4,4,0,0,0-3-1.18h-4.47v7.17l2.92.56v3.27H400v-3.27l2.89-.56V201.08l-2.89-.56v-3.28h12.21Zm-3.87,12h3.78a5.14,5.14,0,0,0,3.41-1,3.46,3.46,0,0,0,1.14-2.8,3.89,3.89,0,0,0-1.13-2.92,4.59,4.59,0,0,0-3.33-1.09h-3.87Z" transform="translate(0.7 -1.89)" fill="#561018"/>
    <path d="M454,197.24v3.28l-2.91.56v23.35H445.7l-11-18.3h-.12V220.6l2.92.56v3.27H426.26v-3.27l2.89-.56V201.08l-2.89-.56v-3.28h8.34l11,18.3.12,0V201.08l-2.92-.56v-3.28H454Z" transform="translate(0.7 -1.89)" fill="#561018"/>
    <path d="M453.15,221.16l1.94-.28,8.27-23.64H469l8.21,23.64,1.94.28v3.27h-9.26v-3.27l1.89-.34-1.2-3.73h-8.81l-1.2,3.73,1.89.34v3.27h-9.26Zm8.92-29.32a3.41,3.41,0,0,1,1.15-2.6,4,4,0,0,1,2.83-1.06,3.87,3.87,0,0,1,2.77,1.06,3.39,3.39,0,0,1,1.13,2.6,3.29,3.29,0,0,1-1.13,2.58,4,4,0,0,1-2.77,1,4.15,4.15,0,0,1-2.84-1A3.3,3.3,0,0,1,462.07,191.84Zm.94,21.23h6.23l-3.06-9.58h-.11Zm1.21-21.23a1.77,1.77,0,0,0,.52,1.32,1.81,1.81,0,0,0,1.31.51,1.64,1.64,0,0,0,1.25-.51,2,2,0,0,0,0-2.66,1.62,1.62,0,0,0-1.25-.53,1.76,1.76,0,0,0-1.31.54A1.79,1.79,0,0,0,464.22,191.84Z" transform="translate(0.7 -1.89)" fill="#561018"/>
    <path d="M493.11,197.24a11.21,11.21,0,0,1,7.26,2.12,7.08,7.08,0,0,1,2.64,5.85,5.88,5.88,0,0,1-1.11,3.57,7.62,7.62,0,0,1-3.23,2.44,5.89,5.89,0,0,1,3.47,2.37,7.47,7.47,0,0,1,1.05,4.09v1.39a2.34,2.34,0,0,0,.36,1.39,1.6,1.6,0,0,0,1.17.59l.68.09v3.29h-2.82a4.43,4.43,0,0,1-3.76-1.44,6,6,0,0,1-1.08-3.72v-1.55a4.36,4.36,0,0,0-1.06-3.11,4,4,0,0,0-3-1.18h-4.47v7.17l2.92.56v3.27H480.9v-3.27l2.89-.56V201.08l-2.89-.56v-3.28h12.21Zm-3.87,12H493a5.14,5.14,0,0,0,3.41-1,3.46,3.46,0,0,0,1.14-2.8,3.85,3.85,0,0,0-1.13-2.92,4.59,4.59,0,0,0-3.33-1.09h-3.87Z" transform="translate(0.7 -1.89)" fill="#561018"/>
  </g>
  <g clip-path="url(#clip-path)">
    <g>
      <path d="M20.05,240.64a17.37,17.37,0,0,1,12.7,4.91,17,17,0,0,1,5,12.63v7a16.89,16.89,0,0,1-5,12.62,17.4,17.4,0,0,1-12.7,4.89H1.15v-5l4.48-.86V246.58l-4.48-.87v-5.07h18.9Zm-6,6.49v29.06h5.57a8.77,8.77,0,0,0,7.1-3.06,12,12,0,0,0,2.57-8v-7a11.92,11.92,0,0,0-2.57-7.93,8.77,8.77,0,0,0-7.1-3.06Z" transform="translate(0.7 -1.89)" fill="#561018"/>
      <path d="M41.84,245.71v-5.07h17.4v5.07l-4.5.87v30.16l4.5.86v5H41.84v-5l4.5-.86V246.58Z" transform="translate(0.7 -1.89)" fill="#561018"/>
      <path d="M99.44,240.64v11.19H93l-.35-4.7H84.9v29.61l4.5.86v5H72v-5l4.5-.86V247.13h-7.7l-.35,4.7H62V240.64Z" transform="translate(0.7 -1.89)" fill="#561018"/>
      <path d="M116.67,277.6l4.47-.86V246.58l-4.47-.87v-5.07h17.17v5.07l-4.27.87V257.8h3.66l8.08-11.74-2.48-.35v-5.07h16.65v5.07l-4.56.78-10.33,13.8,11.6,16.59,4.22.72v5H139.76v-5l2.59-.34-8.08-12.15h-4.7v11.63l4.27.86v5H116.67Z" transform="translate(0.7 -1.89)" fill="#561018"/>
      <path d="M197.47,262q0,9.24-5.28,15.27a17.5,17.5,0,0,1-13.82,6,19.94,19.94,0,0,1-5.14-.65,16.24,16.24,0,0,1-4.47-1.92l-2.74,4.7h-4.16l4-6.89a19.15,19.15,0,0,1-4.8-7.16,25.2,25.2,0,0,1-1.69-9.38v-.63q0-9.18,5.22-15.24A17.25,17.25,0,0,1,178.34,240a19.75,19.75,0,0,1,4.59.53,18.64,18.64,0,0,1,4.15,1.55l1.91-3.26h4.15l-3.06,5.22a19.37,19.37,0,0,1,5.46,7.4,24.64,24.64,0,0,1,1.93,9.86Zm-29.67,0a26.82,26.82,0,0,0,.5,5.33,12.93,12.93,0,0,0,1.5,4.14l.17,0L183.62,248a10.19,10.19,0,0,0-5.28-1.41,8.79,8.79,0,0,0-7.92,4q-2.61,4-2.62,10.62Zm21.27-.69a24.11,24.11,0,0,0-.69-5.95,12.89,12.89,0,0,0-2-4.5l-.17,0-13.91,23.87a8.37,8.37,0,0,0,2.7,1.53,10.58,10.58,0,0,0,3.39.52,9,9,0,0,0,8-4.06q2.69-4,2.68-10.69Z" transform="translate(0.7 -1.89)" fill="#561018"/>
      <path d="M218.22,240.64a17.37,17.37,0,0,1,12.7,4.91,17,17,0,0,1,5,12.63v7a16.93,16.93,0,0,1-5,12.62,17.4,17.4,0,0,1-12.7,4.89h-18.9v-5l4.47-.86V246.58l-4.47-.87v-5.07h18.9Zm-6,6.49v29.06h5.57a8.78,8.78,0,0,0,7.1-3.06,12,12,0,0,0,2.56-8v-7a11.92,11.92,0,0,0-2.56-7.93,8.78,8.78,0,0,0-7.1-3.06Z" transform="translate(0.7 -1.89)" fill="#561018"/>
      <path d="M281.65,264.18H267.42v12H281l.38-5h6.4v11.48H254.52v-5l4.47-.86V246.58l-4.47-.87v-5.07h33.19v11.51h-6.47l-.37-5H267.42v10.56h14.23Z" transform="translate(0.7 -1.89)" fill="#561018"/>
      <path d="M311.14,240.64q7.16,0,11.22,3.27a11,11,0,0,1,4.07,9.05,9.09,9.09,0,0,1-1.7,5.51,11.85,11.85,0,0,1-5,3.78,9,9,0,0,1,5.35,3.65,11.5,11.5,0,0,1,1.63,6.33v2.14a3.62,3.62,0,0,0,.55,2.15,2.47,2.47,0,0,0,1.82.91l1,.14v5.08h-4.36q-4.12,0-5.8-2.22a9.27,9.27,0,0,1-1.67-5.74v-2.4a6.77,6.77,0,0,0-1.63-4.8,6.27,6.27,0,0,0-4.61-1.84h-6.89v11.09l4.5.86v5h-17.4v-5l4.47-.86V246.58l-4.47-.87v-5.07h18.87Zm-6,18.52H311a8,8,0,0,0,5.28-1.5,5.38,5.38,0,0,0,1.76-4.33,6,6,0,0,0-1.75-4.51,7.1,7.1,0,0,0-5.15-1.69h-6Z" transform="translate(0.7 -1.89)" fill="#561018"/>
      <path d="M346.5,277.6l4.47-.86V246.58l-4.47-.87v-5.07h17.17v5.07l-4.27.87V257.8h3.66l8.08-11.74-2.48-.35v-5.07h16.65v5.07l-4.56.78-10.33,13.8L382,276.88l4.21.72v5H369.58v-5l2.6-.34-8.08-12.15h-4.7v11.63l4.27.86v5H346.5Z" transform="translate(0.7 -1.89)" fill="#561018"/>
      <path d="M388.75,282.65v-5l4.47-.86V246.58l-4.47-.87v-5.07h17.4v5.07l-4.51.87v29.61h11.87l.4-5.28h6.43v11.74Z" transform="translate(0.7 -1.89)" fill="#561018"/>
      <path d="M422.94,277.6l3-.43,12.79-36.53h8.62l12.7,36.53,3,.43v5H448.74v-5l2.91-.52-1.84-5.77H436.19l-1.85,5.77,2.91.52v5H422.94Zm15.24-12.49h9.64l-4.74-14.81h-.17Z" transform="translate(0.7 -1.89)" fill="#561018"/>
      <path d="M484.7,240.64q7.16,0,11.22,3.27A11,11,0,0,1,500,253a9.15,9.15,0,0,1-1.7,5.51,11.92,11.92,0,0,1-5,3.78,9.08,9.08,0,0,1,5.35,3.65,11.5,11.5,0,0,1,1.63,6.33v2.14a3.62,3.62,0,0,0,.55,2.15,2.45,2.45,0,0,0,1.82.91l1,.14v5.08h-4.35c-2.75,0-4.69-.74-5.8-2.22a9.27,9.27,0,0,1-1.68-5.74v-2.4a6.73,6.73,0,0,0-1.63-4.8,6.23,6.23,0,0,0-4.6-1.84h-6.9v11.09l4.5.86v5h-17.4v-5l4.48-.86V246.58l-4.48-.87v-5.07H484.7Zm-6,18.52h5.83a8,8,0,0,0,5.28-1.5,5.35,5.35,0,0,0,1.76-4.33,6,6,0,0,0-1.74-4.51,7.12,7.12,0,0,0-5.15-1.69h-6Z" transform="translate(0.7 -1.89)" fill="#561018"/>
    </g>
  </g>
  <g>
    <path d="M11.11,11.4v3.44l-3,.59V30.32a5.43,5.43,0,0,0,1.52,4.22,5.87,5.87,0,0,0,4.16,1.4A6,6,0,0,0,18,34.55a5.45,5.45,0,0,0,1.53-4.23V15.43l-3-.59V11.4H28.26v3.44l-3.06.59V30.32A9.06,9.06,0,0,1,22,37.73a12.68,12.68,0,0,1-8.3,2.6,12.57,12.57,0,0,1-8.26-2.6,9.11,9.11,0,0,1-3.14-7.41V15.43l-3-.59V11.4H11.11Z" transform="translate(0.7 -1.89)" fill="#561018"/>
    <path d="M59.09,11.4v3.44L56,15.43V39.92h-5.7L38.82,20.72l-.12,0V35.9l3,.59v3.43H29.94V36.49l3-.59V15.43l-3-.59V11.4H38.7L50.22,30.59l.12,0V15.43l-3.06-.59V11.4H59.09Z" transform="translate(0.7 -1.89)" fill="#561018"/>
    <path d="M73.77,11.4a11.77,11.77,0,0,1,8.62,3.34,11.5,11.5,0,0,1,3.39,8.57V28a11.46,11.46,0,0,1-3.39,8.57,11.83,11.83,0,0,1-8.62,3.32H60.93V36.49l3-.59V15.43l-3-.59V11.4H73.77Zm-4.08,4.4V35.53h3.78a5.94,5.94,0,0,0,4.82-2.08A8.15,8.15,0,0,0,80,28V23.27a8.1,8.1,0,0,0-1.75-5.39,6,6,0,0,0-4.82-2.08Z" transform="translate(0.7 -1.89)" fill="#561018"/>
    <path d="M112.22,36.75a12.57,12.57,0,0,1-4,2.47,17.68,17.68,0,0,1-6.74,1.11A12.32,12.32,0,0,1,92,36.46,14.14,14.14,0,0,1,88.4,26.4v-1A15.06,15.06,0,0,1,92,15a11.89,11.89,0,0,1,9.33-4,17,17,0,0,1,6.12,1.07,13.28,13.28,0,0,1,4.62,2.89v5.74h-4.23L107,16.86A6,6,0,0,0,105,15.79a10.17,10.17,0,0,0-3-.4,6.85,6.85,0,0,0-5.82,2.76,11.72,11.72,0,0,0-2.08,7.23v1a11,11,0,0,0,2,7A7,7,0,0,0,102,35.94a10.64,10.64,0,0,0,2.79-.29,6.22,6.22,0,0,0,1.67-.69V30.12l-4.07-.31v-4h9.81Z" transform="translate(0.7 -1.89)" fill="#561018"/>
    <path d="M114.79,36.49l2-.29,8.68-24.8h5.85L140,36.2l2,.29v3.43H132.3V36.49l2-.35L133,32.22h-9.25l-1.25,3.92,2,.35v3.43h-9.72Zm9.36-30.76A3.58,3.58,0,0,1,125.36,3a4.21,4.21,0,0,1,3-1.11A4.1,4.1,0,0,1,131.24,3a3.59,3.59,0,0,1,1.18,2.73,3.47,3.47,0,0,1-1.18,2.71,4.23,4.23,0,0,1-2.91,1.05,4.36,4.36,0,0,1-3-1.05A3.46,3.46,0,0,1,124.15,5.73Zm1,22.28h6.55l-3.22-10h-.11Zm1.28-22.28A1.85,1.85,0,0,0,127,7.12a1.89,1.89,0,0,0,1.37.53,1.76,1.76,0,0,0,1.31-.53,1.94,1.94,0,0,0,.51-1.39,2,2,0,0,0-.51-1.41,1.73,1.73,0,0,0-1.31-.55,1.84,1.84,0,0,0-1.37.56A1.9,1.9,0,0,0,126.41,5.73Z" transform="translate(0.7 -1.89)" fill="#561018"/>
  </g>
  <g>
    <path d="M164.78,11.4q5,0,7.85,1.95a6.67,6.67,0,0,1,2.82,5.86,6.26,6.26,0,0,1-1,3.54,6.33,6.33,0,0,1-3,2.34,6.09,6.09,0,0,1,3.85,2.35,7,7,0,0,1,1.28,4.17,7.38,7.38,0,0,1-2.7,6.2c-1.8,1.41-4.36,2.11-7.66,2.11h-14V36.49l3-.59V15.43l-3-.59V11.4h12.68Zm-3.92,12H165a5.77,5.77,0,0,0,3.53-.94,3.26,3.26,0,0,0,1.23-2.75,3.42,3.42,0,0,0-1.24-2.92,6.16,6.16,0,0,0-3.71-.94h-3.92Zm0,3.95v8.23h5.27a5.33,5.33,0,0,0,3.47-1,3.59,3.59,0,0,0,1.19-2.93,4.57,4.57,0,0,0-1-3.2,4.16,4.16,0,0,0-3.21-1.11Z" transform="translate(0.7 -1.89)" fill="#a32026"/>
    <path d="M197,27.38h-9.65v8.15h9.2l.26-3.41h4.35v7.8H178.63V36.49l3-.59V15.43l-3-.59V11.4h22.53v7.81h-4.39l-.26-3.41h-9.12V23H197Z" transform="translate(0.7 -1.89)" fill="#a32026"/>
    <path d="M204.25,36.49l3-.59V15.43l-3-.59V11.4h11.66v3.44l-2.9.59v7.62h2.49l5.48-8-1.68-.24V11.4h11.3v3.44l-3.09.53-7,9.37L228.37,36l2.86.49v3.43h-11.3V36.49l1.76-.23L216.2,28H213V35.9l2.9.59v3.43H204.25Z" transform="translate(0.7 -1.89)" fill="#a32026"/>
    <path d="M243.34,14.84l-2.33.34,4.42,9.36h.12L250,15.18l-2.31-.34V11.4h10.79v3.44l-2.43.4-7.76,14.65v6l3.06.59v3.43H239.52V36.49l3-.59V29.6L235,15.24l-2.41-.4V11.4h10.8Z" transform="translate(0.7 -1.89)" fill="#a32026"/>
    <path d="M287.85,18.82l-.12,0-7.64,21.12h-3.84l-7.6-21-.12,0,.55,12.52V35.9l3.06.59v3.43H260.32V36.49l3-.59V15.43l-3-.59V11.4h10.5l7.27,21h.12l7.33-21h10.54v3.44l-3.06.59V35.9l3.06.59v3.43H284.26V36.49l3-.59V31.42Z" transform="translate(0.7 -1.89)" fill="#a32026"/>
    <path d="M310.93,11.4a11.88,11.88,0,0,1,7.62,2.22,7.45,7.45,0,0,1,2.76,6.14,6.18,6.18,0,0,1-1.16,3.74,8,8,0,0,1-3.39,2.57,6.16,6.16,0,0,1,3.64,2.48,7.81,7.81,0,0,1,1.1,4.3V34.3a2.48,2.48,0,0,0,.38,1.46,1.64,1.64,0,0,0,1.23.61l.71.1v3.45h-3c-1.87,0-3.18-.5-3.94-1.51a6.27,6.27,0,0,1-1.14-3.9V32.89a4.65,4.65,0,0,0-1.1-3.27,4.26,4.26,0,0,0-3.13-1.24h-4.68V35.9l3.06.59v3.43H298.11V36.49l3-.59V15.43l-3-.59V11.4h12.82ZM306.87,24h4a5.38,5.38,0,0,0,3.58-1,3.61,3.61,0,0,0,1.2-2.93A4.07,4.07,0,0,0,314.42,17a4.84,4.84,0,0,0-3.49-1.15h-4.06Z" transform="translate(0.7 -1.89)" fill="#a32026"/>
    <path d="M325.68,14.84V11.4h11.81v3.44l-3.06.59V35.9l3.06.59v3.43H325.68V36.49l3.05-.59V15.43Z" transform="translate(0.7 -1.89)" fill="#a32026"/>
    <path d="M368.82,11.4v3.44l-3.06.59V39.92h-5.7l-11.52-19.2-.12,0V35.9l3.06.59v3.43H339.67V36.49l3-.59V15.43l-3-.59V11.4h8.75l11.52,19.19.12,0V15.43L357,14.84V11.4h11.82Z" transform="translate(0.7 -1.89)" fill="#a32026"/>
    <path d="M394.3,36.75a12.57,12.57,0,0,1-4.05,2.47,17.65,17.65,0,0,1-6.74,1.11,12.28,12.28,0,0,1-9.4-3.87,14.11,14.11,0,0,1-3.63-10.06v-1A15.06,15.06,0,0,1,374.06,15a11.89,11.89,0,0,1,9.33-4,16.87,16.87,0,0,1,6.12,1.07,13.28,13.28,0,0,1,4.62,2.89v5.74H389.9l-.81-3.82A6,6,0,0,0,387,15.79a10.17,10.17,0,0,0-2.95-.4,6.85,6.85,0,0,0-5.82,2.76,11.72,11.72,0,0,0-2.08,7.23v1a11,11,0,0,0,2,7,7,7,0,0,0,5.88,2.59,10.64,10.64,0,0,0,2.79-.29,6.22,6.22,0,0,0,1.67-.69V30.12l-4.07-.31v-4h9.81Z" transform="translate(0.7 -1.89)" fill="#a32026"/>
    <path d="M415.58,27.38h-9.66v8.15h9.21l.25-3.41h4.35v7.8H397.16V36.49l3-.59V15.43l-3-.59V11.4h22.53v7.81h-4.38l-.26-3.41h-9.13V23h9.66Z" transform="translate(0.7 -1.89)" fill="#a32026"/>
    <path d="M435.6,11.4q4.86,0,7.62,2.22A7.46,7.46,0,0,1,446,19.76a6.18,6.18,0,0,1-1.16,3.74,8,8,0,0,1-3.39,2.57,6.1,6.1,0,0,1,3.63,2.48,7.81,7.81,0,0,1,1.11,4.3V34.3a2.48,2.48,0,0,0,.37,1.46,1.67,1.67,0,0,0,1.24.61l.7.1v3.45h-3c-1.86,0-3.18-.5-3.93-1.51a6.27,6.27,0,0,1-1.14-3.9V32.89a4.61,4.61,0,0,0-1.11-3.27,4.23,4.23,0,0,0-3.12-1.24h-4.68V35.9l3.05.59v3.43H422.79V36.49l3-.59V15.43l-3-.59V11.4H435.6ZM431.55,24h3.95a5.41,5.41,0,0,0,3.59-1A3.6,3.6,0,0,0,440.28,20,4.07,4.07,0,0,0,439.1,17a4.87,4.87,0,0,0-3.5-1.15h-4.05Z" transform="translate(0.7 -1.89)" fill="#a32026"/>
    <path d="M479.52,11.4v3.44l-3,.59V39.92h-5.7l-11.52-19.2-.12,0V35.9l3.06.59v3.43H450.37V36.49l3-.59V15.43l-3-.59V11.4h8.76l11.52,19.19.12,0V15.43l-3.06-.59V11.4h11.81Z" transform="translate(0.7 -1.89)" fill="#a32026"/>
    <path d="M499.78,27.38h-9.66v8.15h9.21l.26-3.41h4.34v7.8H481.37V36.49l3-.59V15.43l-3-.59V11.4H503.9v7.81h-4.39l-.26-3.41h-9.13V23h9.66Z" transform="translate(0.7 -1.89)" fill="#a32026"/>
  </g>
  <g>
    <path d="M28.34,159.77H23.16l-.72-4.62a7.13,7.13,0,0,0-2.59-1.63,10.48,10.48,0,0,0-3.68-.59,8.19,8.19,0,0,0-7,3.29,14,14,0,0,0-2.45,8.59V166a14.21,14.21,0,0,0,2.44,8.61A8,8,0,0,0,16.05,178a11.28,11.28,0,0,0,3.76-.59,6.35,6.35,0,0,0,2.63-1.62l.72-4.63h5.18V178A15.09,15.09,0,0,1,23,181.86a17.83,17.83,0,0,1-7.29,1.44,14.89,14.89,0,0,1-11.45-4.84Q-.23,173.61-.22,166v-1.17a17.71,17.71,0,0,1,4.44-12.43,14.78,14.78,0,0,1,11.47-4.87A17.47,17.47,0,0,1,23,149a15.77,15.77,0,0,1,5.37,3.87Z" transform="translate(0.7 -1.89)" fill="#a32026"/>
    <path d="M63.29,165.69a18.46,18.46,0,0,1-4.37,12.62,14.45,14.45,0,0,1-11.43,5,14.29,14.29,0,0,1-11.36-5,18.53,18.53,0,0,1-4.33-12.62v-.52a18.6,18.6,0,0,1,4.31-12.6,14.28,14.28,0,0,1,11.36-5,14.47,14.47,0,0,1,11.44,5,18.45,18.45,0,0,1,4.38,12.6Zm-6.95-.57a15.49,15.49,0,0,0-2.24-8.76A7.44,7.44,0,0,0,47.47,153a7.26,7.26,0,0,0-6.55,3.34,16,16,0,0,0-2.16,8.78v.57a16,16,0,0,0,2.18,8.84,7.29,7.29,0,0,0,6.55,3.35,7.42,7.42,0,0,0,6.64-3.35,15.75,15.75,0,0,0,2.21-8.84Z" transform="translate(0.7 -1.89)" fill="#a32026"/>
    <path d="M97.83,165.69a18.45,18.45,0,0,1-4.36,12.62,14.45,14.45,0,0,1-11.43,5,14.33,14.33,0,0,1-11.37-5,18.53,18.53,0,0,1-4.33-12.62v-.52a18.61,18.61,0,0,1,4.32-12.6,14.26,14.26,0,0,1,11.36-5,14.48,14.48,0,0,1,11.44,5,18.49,18.49,0,0,1,4.37,12.6Zm-6.94-.57a15.57,15.57,0,0,0-2.24-8.76A7.47,7.47,0,0,0,82,153a7.26,7.26,0,0,0-6.55,3.34,16,16,0,0,0-2.16,8.78v.57a15.92,15.92,0,0,0,2.18,8.84A7.29,7.29,0,0,0,82,177.88a7.41,7.41,0,0,0,6.63-3.35,15.75,15.75,0,0,0,2.22-8.84Z" transform="translate(0.7 -1.89)" fill="#a32026"/>
    <path d="M100.62,178.62l3.7-.71V153l-3.7-.72v-4.2h14.2v4.2l-3.53.72v9.28h3l6.68-9.71-2-.29v-4.2h13.76v4.2l-3.77.64-8.54,11.41L130,178l3.49.59v4.18H119.71v-4.18l2.15-.28-6.68-10.05h-3.89v9.62l3.53.71v4.18h-14.2Z" transform="translate(0.7 -1.89)" fill="#a32026"/>
    <path d="M152.09,148.06q6,0,9.41,3.07a11,11,0,0,1,0,16q-3.45,3-9.41,3h-5.87v7.71l3.72.71v4.18H135.55v-4.18l3.7-.71V153l-3.7-.72v-4.2h16.54Zm-5.87,16.77h5.87a5.79,5.79,0,0,0,4.4-1.58A5.7,5.7,0,0,0,158,159.2a5.93,5.93,0,0,0-1.49-4.14,5.66,5.66,0,0,0-4.4-1.63h-5.87Z" transform="translate(0.7 -1.89)" fill="#a32026"/>
    <path d="M189.59,167.53H177.83v9.92H189l.31-4.15h5.3v9.5H167.16v-4.18l3.7-.71V153l-3.7-.72v-4.2H194.6v9.52h-5.34l-.31-4.15H177.83v8.73h11.76Z" transform="translate(0.7 -1.89)" fill="#a32026"/>
    <path d="M214,148.06q5.92,0,9.28,2.71a9.05,9.05,0,0,1,3.37,7.48,7.48,7.48,0,0,1-1.41,4.55,9.77,9.77,0,0,1-4.13,3.13,7.49,7.49,0,0,1,4.43,3,9.52,9.52,0,0,1,1.35,5.23V176a3,3,0,0,0,.45,1.78,2,2,0,0,0,1.5.75l.86.12v4.2h-3.6c-2.28,0-3.87-.61-4.8-1.84a7.69,7.69,0,0,1-1.38-4.75v-2a5.59,5.59,0,0,0-1.35-4,5.15,5.15,0,0,0-3.8-1.51H209v9.16l3.73.71v4.18H198.37v-4.18l3.7-.71V153l-3.7-.72v-4.2H214ZM209,163.38h4.82a6.64,6.64,0,0,0,4.37-1.24,4.45,4.45,0,0,0,1.46-3.58,5,5,0,0,0-1.45-3.74,5.89,5.89,0,0,0-4.26-1.39H209Z" transform="translate(0.7 -1.89)" fill="#a32026"/>
    <path d="M232,178.62l3.7-.71V153l-3.7-.72v-4.2h27.65v9.52h-5.34l-.31-4.15H242.63V163h12.16v5.36H242.63v9.55l3.72.71v4.18H232Z" transform="translate(0.7 -1.89)" fill="#a32026"/>
    <path d="M284.57,167.53H272.81v9.92H284l.31-4.15h5.3v9.5H262.14v-4.18l3.7-.71V153l-3.7-.72v-4.2h27.44v9.52h-5.35l-.31-4.15H272.81v8.73h11.76Z" transform="translate(0.7 -1.89)" fill="#a32026"/>
    <path d="M321.81,159.77h-5.18l-.71-4.62a7.3,7.3,0,0,0-2.59-1.63,10.5,10.5,0,0,0-3.69-.59,8.19,8.19,0,0,0-7,3.29,14,14,0,0,0-2.44,8.59V166a14.21,14.21,0,0,0,2.43,8.61,8,8,0,0,0,6.87,3.31,11.28,11.28,0,0,0,3.76-.59,6.33,6.33,0,0,0,2.64-1.62l.71-4.63h5.18V178a15.09,15.09,0,0,1-5.36,3.88,17.83,17.83,0,0,1-7.29,1.44,14.9,14.9,0,0,1-11.45-4.84A17.66,17.66,0,0,1,293.25,166v-1.17a17.71,17.71,0,0,1,4.44-12.43,14.8,14.8,0,0,1,11.47-4.87,17.44,17.44,0,0,1,7.28,1.47,15.77,15.77,0,0,1,5.37,3.87Z" transform="translate(0.7 -1.89)" fill="#a32026"/>
    <path d="M354.86,148.06v9.26h-5.35l-.28-3.89h-6.39v24.48l3.72.71v4.18H332.15v-4.18l3.72-.71V153.43H329.5l-.29,3.89h-5.32v-9.26Z" transform="translate(0.7 -1.89)" fill="#a32026"/>
    <path d="M365,150.14a11.66,11.66,0,0,1-1.26,5,13.83,13.83,0,0,1-3.08,4.3l-3.43-1.88a15.89,15.89,0,0,0,1.43-3.42,15,15,0,0,0,.5-4v-4.56H365Z" transform="translate(0.7 -1.89)" fill="#a32026"/>
    <path d="M394.75,159.15h-5.23l-.9-4.77a9.5,9.5,0,0,0-2.65-1,15.19,15.19,0,0,0-3.7-.43,7,7,0,0,0-4.42,1.21,3.74,3.74,0,0,0-1.57,3.11,3.41,3.41,0,0,0,1.64,2.9,23.09,23.09,0,0,0,5.64,2.4,22,22,0,0,1,8.72,4.22,8.76,8.76,0,0,1,3,6.89,8.26,8.26,0,0,1-3.53,7,15.41,15.41,0,0,1-9.3,2.58A20.27,20.27,0,0,1,375,182a15.48,15.48,0,0,1-5.55-3.63v-7.25h5.39l.74,4.94a8.61,8.61,0,0,0,2.85,1.42,13.73,13.73,0,0,0,4,.56,7,7,0,0,0,4.35-1.17,3.78,3.78,0,0,0,1.49-3.13,4,4,0,0,0-1.42-3.22,14.47,14.47,0,0,0-5-2.29,28.32,28.32,0,0,1-9.36-4.25,8,8,0,0,1-3.17-6.72,8.26,8.26,0,0,1,3.58-6.91,14.9,14.9,0,0,1,9-2.76,20.9,20.9,0,0,1,7.3,1.22,16.73,16.73,0,0,1,5.54,3.25Z" transform="translate(0.7 -1.89)" fill="#a32026"/>
    <path d="M408.64,178.62l2.48-.36,10.57-30.2h7.13l10.5,30.2,2.48.36v4.18H430v-4.18l2.41-.43-1.52-4.77H419.59l-1.53,4.77,2.41.43v4.18H408.64Zm12.59-10.33h8l-3.91-12.24h-.15Z" transform="translate(0.7 -1.89)" fill="#a32026"/>
    <path d="M460.62,148.06q6,0,9.41,3.07a11,11,0,0,1,0,16q-3.45,3-9.41,3h-5.87v7.71l3.72.71v4.18H444.09v-4.18l3.7-.71V153l-3.7-.72v-4.2h16.53Zm-5.87,16.77h5.87a5.77,5.77,0,0,0,4.4-1.58,5.66,5.66,0,0,0,1.49-4.05,5.88,5.88,0,0,0-1.49-4.14,5.65,5.65,0,0,0-4.4-1.63h-5.87Z" transform="translate(0.7 -1.89)" fill="#a32026"/>
    <path d="M492.23,148.06q6,0,9.41,3.07a11,11,0,0,1,0,16q-3.43,3-9.41,3h-5.87v7.71l3.73.71v4.18H475.7v-4.18l3.7-.71V153l-3.7-.72v-4.2h16.53Zm-5.87,16.77h5.87a5.81,5.81,0,0,0,4.41-1.58,5.7,5.7,0,0,0,1.49-4.05,5.93,5.93,0,0,0-1.49-4.14,5.69,5.69,0,0,0-4.41-1.63h-5.87Z" transform="translate(0.7 -1.89)" fill="#a32026"/>
  </g>
  <g>
    <path d="M.77,60.37V53.23H25.25v7.14l-6.33,1.22V104l6.33,1.22v7.11H.77v-7.11L7.1,104V61.59Z" transform="translate(0.7 -1.89)" fill="#561018"/>
    <path d="M50.15,105.24,56.44,104V61.59l-6.29-1.22V53.23H74.3v7.14l-6,1.22v15.8h5.15L84.82,60.86l-3.49-.49V53.23h23.43v7.14l-6.42,1.1L83.81,80.88l16.32,23.35,5.93,1v7.11H82.63v-7.11l3.65-.49L74.91,87.66H68.3V104l6,1.22v7.11H50.15Z" transform="translate(0.7 -1.89)" fill="#561018"/>
    <path d="M159.6,83.23q0,13-7.44,21.48t-19.44,8.49a27.76,27.76,0,0,1-7.23-.91,23.46,23.46,0,0,1-6.3-2.7l-3.85,6.61h-5.85l5.64-9.7a27.14,27.14,0,0,1-6.76-10.07A35.67,35.67,0,0,1,106,83.23v-.89q0-12.91,7.35-21.44t19.33-8.52a27.25,27.25,0,0,1,6.45.75A26.13,26.13,0,0,1,145,55.3l2.68-4.59h5.84l-4.3,7.35a27.28,27.28,0,0,1,7.67,10.41,34.61,34.61,0,0,1,2.73,13.87Zm-41.75,0a38.12,38.12,0,0,0,.69,7.5,18.43,18.43,0,0,0,2.12,5.82l.24,0,19.21-33a14.6,14.6,0,0,0-7.43-2q-7.49,0-11.15,5.69t-3.68,14.94Zm29.93-1a33.7,33.7,0,0,0-1-8.36A17.74,17.74,0,0,0,144,67.56l-.24,0L124.15,101.1a11.55,11.55,0,0,0,3.79,2.15,14.67,14.67,0,0,0,4.78.73c5,0,8.77-1.9,11.28-5.7s3.78-8.82,3.78-15Z" transform="translate(0.7 -1.89)" fill="#561018"/>
    <path d="M162.19,105.24l6.3-1.22V61.59l-6.3-1.22V53.23h24.16v7.14l-6,1.22v15.8h5.16l11.37-16.53-3.49-.49V53.23h23.43v7.14l-6.42,1.1L195.85,80.88l16.33,23.35,5.93,1v7.11H194.68v-7.11l3.65-.49L187,87.66h-6.62V104l6,1.22v7.11H162.19Z" transform="translate(0.7 -1.89)" fill="#561018"/>
    <path d="M221.64,105.24l6.29-1.22V61.59l-6.29-1.22V53.23H245.8v7.14l-6,1.22v15.8H245l11.36-16.53-3.49-.49V53.23h23.43v7.14l-6.41,1.1L255.3,80.88l16.32,23.35,5.93,1v7.11H254.12v-7.11l3.66-.49L246.41,87.66h-6.62V104l6,1.22v7.11H221.64Z" transform="translate(0.7 -1.89)" fill="#561018"/>
    <path d="M319.25,86.36h-20v16.89h19.09l.52-7.06h9v16.16H281.08v-7.11l6.3-1.22V61.59l-6.3-1.22V53.23h46.7v16.2h-9.1l-.53-7.07H299.23V77.22h20Z" transform="translate(0.7 -1.89)" fill="#561018"/>
    <path d="M394.61,53.23v7.14l-6.33,1.22v50.76H376.46L352.59,72.56l-.25,0V104l6.34,1.22v7.11H334.19v-7.11l6.3-1.22V61.59l-6.3-1.22V53.23h18.15L376.22,93l.24,0V61.59l-6.33-1.22V53.23h24.48Z" transform="translate(0.7 -1.89)" fill="#561018"/>
    <path d="M436.6,86.36h-20v16.89h19.08l.53-7.06h9v16.16H398.43v-7.11l6.29-1.22V61.59l-6.29-1.22V53.23h46.69v16.2H436l-.53-7.07H416.58V77.22h20Z" transform="translate(0.7 -1.89)" fill="#561018"/>
    <path d="M504.34,53.23V69h-9.09l-.49-6.62H483.88V104l6.33,1.22v7.11H465.69v-7.11L472,104V62.36H461.18L460.69,69h-9.05V53.23Z" transform="translate(0.7 -1.89)" fill="#561018"/>
  </g>
</svg>
